G04 #@! TF.GenerationSoftware,KiCad,Pcbnew,6.0.0-rc1-unknown-d4e4359~66~ubuntu18.04.1*
G04 #@! TF.CreationDate,2018-09-17T12:26:01-04:00*
G04 #@! TF.ProjectId,dac_controller_3x2,6461635F636F6E74726F6C6C65725F33,1.0*
G04 #@! TF.SameCoordinates,Original*
G04 #@! TF.FileFunction,Copper,L1,Top,Signal*
G04 #@! TF.FilePolarity,Positive*
%FSLAX46Y46*%
G04 Gerber Fmt 4.6, Leading zero omitted, Abs format (unit mm)*
G04 Created by KiCad (PCBNEW 6.0.0-rc1-unknown-d4e4359~66~ubuntu18.04.1) date Mon Sep 17 12:26:01 2018*
%MOMM*%
%LPD*%
G01*
G04 APERTURE LIST*
G04 #@! TA.AperFunction,NonConductor*
%ADD10C,0.228600*%
G04 #@! TD*
G04 #@! TA.AperFunction,ComponentPad*
%ADD11C,3.556000*%
G04 #@! TD*
G04 #@! TA.AperFunction,ComponentPad*
%ADD12O,1.854200X2.540000*%
G04 #@! TD*
G04 #@! TA.AperFunction,ComponentPad*
%ADD13R,1.854200X2.540000*%
G04 #@! TD*
G04 #@! TA.AperFunction,ComponentPad*
%ADD14O,5.080000X3.048000*%
G04 #@! TD*
G04 #@! TA.AperFunction,ComponentPad*
%ADD15O,2.032000X1.524000*%
G04 #@! TD*
G04 #@! TA.AperFunction,ComponentPad*
%ADD16O,1.524000X2.032000*%
G04 #@! TD*
G04 #@! TA.AperFunction,ComponentPad*
%ADD17O,2.540000X1.524000*%
G04 #@! TD*
G04 #@! TA.AperFunction,ComponentPad*
%ADD18R,2.540000X1.524000*%
G04 #@! TD*
G04 #@! TA.AperFunction,ViaPad*
%ADD19C,0.889000*%
G04 #@! TD*
G04 #@! TA.AperFunction,Conductor*
%ADD20C,0.406400*%
G04 #@! TD*
G04 #@! TA.AperFunction,Conductor*
%ADD21C,0.254000*%
G04 #@! TD*
G04 APERTURE END LIST*
D10*
X156210000Y-67945000D02*
X85725000Y-67945000D01*
X156210000Y-109855000D02*
X156210000Y-67945000D01*
X85725000Y-109855000D02*
X156210000Y-109855000D01*
X85725000Y-67945000D02*
X85725000Y-109855000D01*
D11*
G04 #@! TO.P,MDB1,*
G04 #@! TO.N,*
X130175000Y-71120000D03*
X130175000Y-106680000D03*
X89535000Y-101600000D03*
X89535000Y-76200000D03*
D12*
G04 #@! TO.P,MDB1,AREF*
G04 #@! TO.N,N/C*
X88265000Y-106680000D03*
G04 #@! TO.P,MDB1,VEE*
G04 #@! TO.N,VEE*
X90805000Y-106680000D03*
G04 #@! TO.P,MDB1,AGND*
G04 #@! TO.N,N/C*
X93345000Y-106680000D03*
G04 #@! TO.P,MDB1,3V3*
X95885000Y-106680000D03*
G04 #@! TO.P,MDB1,23*
X98425000Y-106680000D03*
G04 #@! TO.P,MDB1,22*
X100965000Y-106680000D03*
G04 #@! TO.P,MDB1,21*
X103505000Y-106680000D03*
G04 #@! TO.P,MDB1,20*
X106045000Y-106680000D03*
G04 #@! TO.P,MDB1,19*
X108585000Y-106680000D03*
G04 #@! TO.P,MDB1,18*
X111125000Y-106680000D03*
G04 #@! TO.P,MDB1,17*
X113665000Y-106680000D03*
G04 #@! TO.P,MDB1,16*
X116205000Y-106680000D03*
G04 #@! TO.P,MDB1,15*
X118745000Y-106680000D03*
G04 #@! TO.P,MDB1,14*
X121285000Y-106680000D03*
G04 #@! TO.P,MDB1,13*
G04 #@! TO.N,/SCK*
X123825000Y-106680000D03*
G04 #@! TO.P,MDB1,DAC*
G04 #@! TO.N,N/C*
X126365000Y-106680000D03*
G04 #@! TO.P,MDB1,28*
X126365000Y-71120000D03*
G04 #@! TO.P,MDB1,12*
G04 #@! TO.N,/MISO*
X123825000Y-71120000D03*
G04 #@! TO.P,MDB1,11*
G04 #@! TO.N,/MOSI*
X121285000Y-71120000D03*
G04 #@! TO.P,MDB1,10*
G04 #@! TO.N,/CS*
X118745000Y-71120000D03*
G04 #@! TO.P,MDB1,9*
G04 #@! TO.N,N/C*
X116205000Y-71120000D03*
G04 #@! TO.P,MDB1,29*
X113665000Y-71120000D03*
G04 #@! TO.P,MDB1,30*
X111125000Y-71120000D03*
G04 #@! TO.P,MDB1,6*
X108585000Y-71120000D03*
G04 #@! TO.P,MDB1,5*
X106045000Y-71120000D03*
G04 #@! TO.P,MDB1,4*
G04 #@! TO.N,/CLR*
X103505000Y-71120000D03*
G04 #@! TO.P,MDB1,3*
G04 #@! TO.N,/LDAC*
X100965000Y-71120000D03*
G04 #@! TO.P,MDB1,2*
G04 #@! TO.N,N/C*
X98425000Y-71120000D03*
G04 #@! TO.P,MDB1,25*
X95885000Y-71120000D03*
D13*
G04 #@! TO.P,MDB1,VDD*
G04 #@! TO.N,VDD*
X88265000Y-71120000D03*
D12*
G04 #@! TO.P,MDB1,24*
G04 #@! TO.N,N/C*
X93345000Y-71120000D03*
G04 #@! TO.P,MDB1,GND*
G04 #@! TO.N,GND*
X90805000Y-71120000D03*
G04 #@! TD*
D14*
G04 #@! TO.P,P1,*
G04 #@! TO.N,*
X150495000Y-97155000D03*
X150495000Y-107315000D03*
D15*
G04 #@! TO.P,P1,1*
G04 #@! TO.N,/dac_3x2/DAC_0*
X144399000Y-102235000D03*
D16*
G04 #@! TO.P,P1,3*
G04 #@! TO.N,/dac_3x2/DAC_1*
X141605000Y-102235000D03*
G04 #@! TO.P,P1,2*
G04 #@! TO.N,GND*
X141605000Y-105029000D03*
G04 #@! TO.P,P1,4*
X141605000Y-99441000D03*
G04 #@! TD*
G04 #@! TO.P,P2,4*
G04 #@! TO.N,GND*
X141605000Y-72771000D03*
G04 #@! TO.P,P2,2*
X141605000Y-78359000D03*
G04 #@! TO.P,P2,3*
G04 #@! TO.N,/dac_3x2/DAC_3*
X141605000Y-75565000D03*
D15*
G04 #@! TO.P,P2,1*
G04 #@! TO.N,/dac_3x2/DAC_2*
X144399000Y-75565000D03*
D14*
G04 #@! TO.P,P2,*
G04 #@! TO.N,*
X150495000Y-80645000D03*
X150495000Y-70485000D03*
G04 #@! TD*
D17*
G04 #@! TO.P,REG1,2*
G04 #@! TO.N,VDD*
X107315000Y-95250000D03*
G04 #@! TO.P,REG1,3*
G04 #@! TO.N,N/C*
X107315000Y-92710000D03*
D18*
G04 #@! TO.P,REG1,1*
G04 #@! TO.N,GND*
X107315000Y-97790000D03*
D17*
G04 #@! TO.P,REG1,5*
G04 #@! TO.N,N/C*
X107315000Y-87630000D03*
G04 #@! TO.P,REG1,6*
G04 #@! TO.N,VDDA*
X107315000Y-85090000D03*
G04 #@! TO.P,REG1,7*
G04 #@! TO.N,GND*
X107315000Y-82550000D03*
G04 #@! TO.P,REG1,8*
G04 #@! TO.N,VSSA*
X107315000Y-80010000D03*
G04 #@! TD*
D19*
G04 #@! TO.N,GND*
X128048100Y-83247000D03*
G04 #@! TO.N,VEE*
X126650500Y-87731300D03*
G04 #@! TO.N,VDDA*
X133882700Y-84763500D03*
G04 #@! TO.N,VSSA*
X124168600Y-81866700D03*
G04 #@! TO.N,/LDAC*
X121920000Y-81070700D03*
G04 #@! TD*
D20*
G04 #@! TO.N,GND*
X107315000Y-82550000D02*
X108915200Y-82550000D01*
X108915200Y-82550000D02*
X109612200Y-83247000D01*
X109612200Y-83247000D02*
X128048100Y-83247000D01*
X141605000Y-73025000D02*
X141605000Y-74117200D01*
X141605000Y-74117200D02*
X141195300Y-74117200D01*
X141195300Y-74117200D02*
X140512800Y-74799700D01*
X140512800Y-74799700D02*
X140512800Y-78105000D01*
X141605000Y-78105000D02*
X140512800Y-78105000D01*
X135370800Y-83247000D02*
X140512800Y-78105000D01*
X135370800Y-83247000D02*
X135370800Y-94553000D01*
X135370800Y-94553000D02*
X140512800Y-99695000D01*
X128048100Y-83247000D02*
X135370800Y-83247000D01*
X141605000Y-104775000D02*
X141605000Y-103682800D01*
X140537800Y-99695000D02*
X140537800Y-102955100D01*
X140537800Y-102955100D02*
X141265500Y-103682800D01*
X141265500Y-103682800D02*
X141605000Y-103682800D01*
X140537800Y-99695000D02*
X140512800Y-99695000D01*
X140652500Y-99695000D02*
X140537800Y-99695000D01*
X141605000Y-99695000D02*
X140652500Y-99695000D01*
G04 #@! TO.N,VEE*
X90805000Y-106680000D02*
X92062300Y-106680000D01*
X126650500Y-87731300D02*
X110147100Y-87731300D01*
X110147100Y-87731300D02*
X92062300Y-105816100D01*
X92062300Y-105816100D02*
X92062300Y-106680000D01*
G04 #@! TO.N,VDDA*
X107315000Y-85090000D02*
X133556200Y-85090000D01*
X133556200Y-85090000D02*
X133882700Y-84763500D01*
G04 #@! TO.N,VSSA*
X107315000Y-80010000D02*
X108915200Y-80010000D01*
X108915200Y-80010000D02*
X110771900Y-81866700D01*
X110771900Y-81866700D02*
X124168600Y-81866700D01*
G04 #@! TO.N,/LDAC*
X100965000Y-71120000D02*
X102222300Y-71120000D01*
X121920000Y-81070700D02*
X111309100Y-81070700D01*
X111309100Y-81070700D02*
X102222300Y-71983900D01*
X102222300Y-71983900D02*
X102222300Y-71120000D01*
G04 #@! TD*
D21*
G04 #@! TO.N,GND*
G36*
X155765500Y-109410500D02*
X86169500Y-109410500D01*
X86169500Y-106213272D01*
X87007700Y-106213272D01*
X87007700Y-107146729D01*
X87080650Y-107513474D01*
X87358539Y-107929362D01*
X87774427Y-108207250D01*
X88265000Y-108304831D01*
X88755574Y-108207250D01*
X89171462Y-107929362D01*
X89449350Y-107513474D01*
X89522300Y-107146728D01*
X89522300Y-106213272D01*
X89547700Y-106213272D01*
X89547700Y-107146729D01*
X89620650Y-107513474D01*
X89898539Y-107929362D01*
X90314427Y-108207250D01*
X90805000Y-108304831D01*
X91295574Y-108207250D01*
X91711462Y-107929362D01*
X91989350Y-107513474D01*
X92047544Y-107220914D01*
X92062300Y-107223849D01*
X92101490Y-107216054D01*
X92160650Y-107513474D01*
X92438539Y-107929362D01*
X92854427Y-108207250D01*
X93345000Y-108304831D01*
X93835574Y-108207250D01*
X94251462Y-107929362D01*
X94529350Y-107513474D01*
X94602300Y-107146728D01*
X94602300Y-106213272D01*
X94627700Y-106213272D01*
X94627700Y-107146729D01*
X94700650Y-107513474D01*
X94978539Y-107929362D01*
X95394427Y-108207250D01*
X95885000Y-108304831D01*
X96375574Y-108207250D01*
X96791462Y-107929362D01*
X97069350Y-107513474D01*
X97142300Y-107146728D01*
X97142300Y-106213272D01*
X97167700Y-106213272D01*
X97167700Y-107146729D01*
X97240650Y-107513474D01*
X97518539Y-107929362D01*
X97934427Y-108207250D01*
X98425000Y-108304831D01*
X98915574Y-108207250D01*
X99331462Y-107929362D01*
X99609350Y-107513474D01*
X99682300Y-107146728D01*
X99682300Y-106213272D01*
X99707700Y-106213272D01*
X99707700Y-107146729D01*
X99780650Y-107513474D01*
X100058539Y-107929362D01*
X100474427Y-108207250D01*
X100965000Y-108304831D01*
X101455574Y-108207250D01*
X101871462Y-107929362D01*
X102149350Y-107513474D01*
X102222300Y-107146728D01*
X102222300Y-106213272D01*
X102247700Y-106213272D01*
X102247700Y-107146729D01*
X102320650Y-107513474D01*
X102598539Y-107929362D01*
X103014427Y-108207250D01*
X103505000Y-108304831D01*
X103995574Y-108207250D01*
X104411462Y-107929362D01*
X104689350Y-107513474D01*
X104762300Y-107146728D01*
X104762300Y-106213272D01*
X104787700Y-106213272D01*
X104787700Y-107146729D01*
X104860650Y-107513474D01*
X105138539Y-107929362D01*
X105554427Y-108207250D01*
X106045000Y-108304831D01*
X106535574Y-108207250D01*
X106951462Y-107929362D01*
X107229350Y-107513474D01*
X107302300Y-107146728D01*
X107302300Y-106213272D01*
X107327700Y-106213272D01*
X107327700Y-107146729D01*
X107400650Y-107513474D01*
X107678539Y-107929362D01*
X108094427Y-108207250D01*
X108585000Y-108304831D01*
X109075574Y-108207250D01*
X109491462Y-107929362D01*
X109769350Y-107513474D01*
X109842300Y-107146728D01*
X109842300Y-106213272D01*
X109867700Y-106213272D01*
X109867700Y-107146729D01*
X109940650Y-107513474D01*
X110218539Y-107929362D01*
X110634427Y-108207250D01*
X111125000Y-108304831D01*
X111615574Y-108207250D01*
X112031462Y-107929362D01*
X112309350Y-107513474D01*
X112382300Y-107146728D01*
X112382300Y-106213272D01*
X112407700Y-106213272D01*
X112407700Y-107146729D01*
X112480650Y-107513474D01*
X112758539Y-107929362D01*
X113174427Y-108207250D01*
X113665000Y-108304831D01*
X114155574Y-108207250D01*
X114571462Y-107929362D01*
X114849350Y-107513474D01*
X114922300Y-107146728D01*
X114922300Y-106213272D01*
X114947700Y-106213272D01*
X114947700Y-107146729D01*
X115020650Y-107513474D01*
X115298539Y-107929362D01*
X115714427Y-108207250D01*
X116205000Y-108304831D01*
X116695574Y-108207250D01*
X117111462Y-107929362D01*
X117389350Y-107513474D01*
X117462300Y-107146728D01*
X117462300Y-106213272D01*
X117487700Y-106213272D01*
X117487700Y-107146729D01*
X117560650Y-107513474D01*
X117838539Y-107929362D01*
X118254427Y-108207250D01*
X118745000Y-108304831D01*
X119235574Y-108207250D01*
X119651462Y-107929362D01*
X119929350Y-107513474D01*
X120002300Y-107146728D01*
X120002300Y-106213272D01*
X120027700Y-106213272D01*
X120027700Y-107146729D01*
X120100650Y-107513474D01*
X120378539Y-107929362D01*
X120794427Y-108207250D01*
X121285000Y-108304831D01*
X121775574Y-108207250D01*
X122191462Y-107929362D01*
X122469350Y-107513474D01*
X122542300Y-107146728D01*
X122542300Y-106213272D01*
X122567700Y-106213272D01*
X122567700Y-107146729D01*
X122640650Y-107513474D01*
X122918539Y-107929362D01*
X123334427Y-108207250D01*
X123825000Y-108304831D01*
X124315574Y-108207250D01*
X124731462Y-107929362D01*
X125009350Y-107513474D01*
X125082300Y-107146728D01*
X125082300Y-106213272D01*
X125107700Y-106213272D01*
X125107700Y-107146729D01*
X125180650Y-107513474D01*
X125458539Y-107929362D01*
X125874427Y-108207250D01*
X126365000Y-108304831D01*
X126855574Y-108207250D01*
X127271462Y-107929362D01*
X127549350Y-107513474D01*
X127622300Y-107146728D01*
X127622300Y-106260653D01*
X128066800Y-106260653D01*
X128066800Y-107099347D01*
X128387754Y-107874199D01*
X128980801Y-108467246D01*
X129755653Y-108788200D01*
X130594347Y-108788200D01*
X131369199Y-108467246D01*
X131962246Y-107874199D01*
X132193873Y-107315000D01*
X147588475Y-107315000D01*
X147732383Y-108038473D01*
X148142197Y-108651803D01*
X148755527Y-109061617D01*
X149296382Y-109169200D01*
X151693618Y-109169200D01*
X152234473Y-109061617D01*
X152847803Y-108651803D01*
X153257617Y-108038473D01*
X153401525Y-107315000D01*
X153257617Y-106591527D01*
X152847803Y-105978197D01*
X152234473Y-105568383D01*
X151693618Y-105460800D01*
X149296382Y-105460800D01*
X148755527Y-105568383D01*
X148142197Y-105978197D01*
X147732383Y-106591527D01*
X147588475Y-107315000D01*
X132193873Y-107315000D01*
X132283200Y-107099347D01*
X132283200Y-106260653D01*
X131962246Y-105485801D01*
X131632445Y-105156000D01*
X140208000Y-105156000D01*
X140208000Y-105410000D01*
X140362941Y-105934941D01*
X140706974Y-106360630D01*
X141187723Y-106622260D01*
X141261930Y-106637220D01*
X141478000Y-106514720D01*
X141478000Y-105156000D01*
X141732000Y-105156000D01*
X141732000Y-106514720D01*
X141948070Y-106637220D01*
X142022277Y-106622260D01*
X142503026Y-106360630D01*
X142847059Y-105934941D01*
X143002000Y-105410000D01*
X143002000Y-105156000D01*
X141732000Y-105156000D01*
X141478000Y-105156000D01*
X140208000Y-105156000D01*
X131632445Y-105156000D01*
X131369199Y-104892754D01*
X130594347Y-104571800D01*
X129755653Y-104571800D01*
X128980801Y-104892754D01*
X128387754Y-105485801D01*
X128066800Y-106260653D01*
X127622300Y-106260653D01*
X127622300Y-106213271D01*
X127549350Y-105846526D01*
X127271462Y-105430638D01*
X126855573Y-105152750D01*
X126365000Y-105055169D01*
X125874426Y-105152750D01*
X125458538Y-105430638D01*
X125180650Y-105846527D01*
X125107700Y-106213272D01*
X125082300Y-106213272D01*
X125082300Y-106213271D01*
X125009350Y-105846526D01*
X124731462Y-105430638D01*
X124315573Y-105152750D01*
X123825000Y-105055169D01*
X123334426Y-105152750D01*
X122918538Y-105430638D01*
X122640650Y-105846527D01*
X122567700Y-106213272D01*
X122542300Y-106213272D01*
X122542300Y-106213271D01*
X122469350Y-105846526D01*
X122191462Y-105430638D01*
X121775573Y-105152750D01*
X121285000Y-105055169D01*
X120794426Y-105152750D01*
X120378538Y-105430638D01*
X120100650Y-105846527D01*
X120027700Y-106213272D01*
X120002300Y-106213272D01*
X120002300Y-106213271D01*
X119929350Y-105846526D01*
X119651462Y-105430638D01*
X119235573Y-105152750D01*
X118745000Y-105055169D01*
X118254426Y-105152750D01*
X117838538Y-105430638D01*
X117560650Y-105846527D01*
X117487700Y-106213272D01*
X117462300Y-106213272D01*
X117462300Y-106213271D01*
X117389350Y-105846526D01*
X117111462Y-105430638D01*
X116695573Y-105152750D01*
X116205000Y-105055169D01*
X115714426Y-105152750D01*
X115298538Y-105430638D01*
X115020650Y-105846527D01*
X114947700Y-106213272D01*
X114922300Y-106213272D01*
X114922300Y-106213271D01*
X114849350Y-105846526D01*
X114571462Y-105430638D01*
X114155573Y-105152750D01*
X113665000Y-105055169D01*
X113174426Y-105152750D01*
X112758538Y-105430638D01*
X112480650Y-105846527D01*
X112407700Y-106213272D01*
X112382300Y-106213272D01*
X112382300Y-106213271D01*
X112309350Y-105846526D01*
X112031462Y-105430638D01*
X111615573Y-105152750D01*
X111125000Y-105055169D01*
X110634426Y-105152750D01*
X110218538Y-105430638D01*
X109940650Y-105846527D01*
X109867700Y-106213272D01*
X109842300Y-106213272D01*
X109842300Y-106213271D01*
X109769350Y-105846526D01*
X109491462Y-105430638D01*
X109075573Y-105152750D01*
X108585000Y-105055169D01*
X108094426Y-105152750D01*
X107678538Y-105430638D01*
X107400650Y-105846527D01*
X107327700Y-106213272D01*
X107302300Y-106213272D01*
X107302300Y-106213271D01*
X107229350Y-105846526D01*
X106951462Y-105430638D01*
X106535573Y-105152750D01*
X106045000Y-105055169D01*
X105554426Y-105152750D01*
X105138538Y-105430638D01*
X104860650Y-105846527D01*
X104787700Y-106213272D01*
X104762300Y-106213272D01*
X104762300Y-106213271D01*
X104689350Y-105846526D01*
X104411462Y-105430638D01*
X103995573Y-105152750D01*
X103505000Y-105055169D01*
X103014426Y-105152750D01*
X102598538Y-105430638D01*
X102320650Y-105846527D01*
X102247700Y-106213272D01*
X102222300Y-106213272D01*
X102222300Y-106213271D01*
X102149350Y-105846526D01*
X101871462Y-105430638D01*
X101455573Y-105152750D01*
X100965000Y-105055169D01*
X100474426Y-105152750D01*
X100058538Y-105430638D01*
X99780650Y-105846527D01*
X99707700Y-106213272D01*
X99682300Y-106213272D01*
X99682300Y-106213271D01*
X99609350Y-105846526D01*
X99331462Y-105430638D01*
X98915573Y-105152750D01*
X98425000Y-105055169D01*
X97934426Y-105152750D01*
X97518538Y-105430638D01*
X97240650Y-105846527D01*
X97167700Y-106213272D01*
X97142300Y-106213272D01*
X97142300Y-106213271D01*
X97069350Y-105846526D01*
X96791462Y-105430638D01*
X96375573Y-105152750D01*
X95885000Y-105055169D01*
X95394426Y-105152750D01*
X94978538Y-105430638D01*
X94700650Y-105846527D01*
X94627700Y-106213272D01*
X94602300Y-106213272D01*
X94602300Y-106213271D01*
X94529350Y-105846526D01*
X94251462Y-105430638D01*
X93835573Y-105152750D01*
X93538985Y-105093755D01*
X99064740Y-99568000D01*
X140208000Y-99568000D01*
X140208000Y-99822000D01*
X140362941Y-100346941D01*
X140706974Y-100772630D01*
X141115122Y-100994750D01*
X140817569Y-101193568D01*
X140576171Y-101554845D01*
X140512800Y-101873431D01*
X140512800Y-102596568D01*
X140576171Y-102915154D01*
X140817568Y-103276432D01*
X141115122Y-103475251D01*
X140706974Y-103697370D01*
X140362941Y-104123059D01*
X140208000Y-104648000D01*
X140208000Y-104902000D01*
X141478000Y-104902000D01*
X141478000Y-104882000D01*
X141732000Y-104882000D01*
X141732000Y-104902000D01*
X143002000Y-104902000D01*
X143002000Y-104648000D01*
X142847059Y-104123059D01*
X142503026Y-103697370D01*
X142094878Y-103475250D01*
X142392432Y-103276432D01*
X142633829Y-102915155D01*
X142697200Y-102596569D01*
X142697200Y-102235000D01*
X143031403Y-102235000D01*
X143116171Y-102661155D01*
X143357568Y-103022432D01*
X143718845Y-103263829D01*
X144037431Y-103327200D01*
X144760569Y-103327200D01*
X145079155Y-103263829D01*
X145440432Y-103022432D01*
X145681829Y-102661155D01*
X145766597Y-102235000D01*
X145681829Y-101808845D01*
X145440432Y-101447568D01*
X145079155Y-101206171D01*
X144760569Y-101142800D01*
X144037431Y-101142800D01*
X143718845Y-101206171D01*
X143357568Y-101447568D01*
X143116171Y-101808845D01*
X143031403Y-102235000D01*
X142697200Y-102235000D01*
X142697200Y-101873432D01*
X142633829Y-101554846D01*
X142392432Y-101193568D01*
X142094878Y-100994749D01*
X142503026Y-100772630D01*
X142847059Y-100346941D01*
X143002000Y-99822000D01*
X143002000Y-99568000D01*
X141732000Y-99568000D01*
X141732000Y-99588000D01*
X141478000Y-99588000D01*
X141478000Y-99568000D01*
X140208000Y-99568000D01*
X99064740Y-99568000D01*
X100556991Y-98075750D01*
X105410000Y-98075750D01*
X105410000Y-98678309D01*
X105506673Y-98911698D01*
X105685301Y-99090327D01*
X105918690Y-99187000D01*
X107029250Y-99187000D01*
X107188000Y-99028250D01*
X107188000Y-97917000D01*
X107442000Y-97917000D01*
X107442000Y-99028250D01*
X107600750Y-99187000D01*
X108711310Y-99187000D01*
X108944699Y-99090327D01*
X108975025Y-99060000D01*
X140208000Y-99060000D01*
X140208000Y-99314000D01*
X141478000Y-99314000D01*
X141478000Y-97955280D01*
X141732000Y-97955280D01*
X141732000Y-99314000D01*
X143002000Y-99314000D01*
X143002000Y-99060000D01*
X142847059Y-98535059D01*
X142503026Y-98109370D01*
X142022277Y-97847740D01*
X141948070Y-97832780D01*
X141732000Y-97955280D01*
X141478000Y-97955280D01*
X141261930Y-97832780D01*
X141187723Y-97847740D01*
X140706974Y-98109370D01*
X140362941Y-98535059D01*
X140208000Y-99060000D01*
X108975025Y-99060000D01*
X109123327Y-98911698D01*
X109220000Y-98678309D01*
X109220000Y-98075750D01*
X109061250Y-97917000D01*
X107442000Y-97917000D01*
X107188000Y-97917000D01*
X105568750Y-97917000D01*
X105410000Y-98075750D01*
X100556991Y-98075750D01*
X101731050Y-96901691D01*
X105410000Y-96901691D01*
X105410000Y-97504250D01*
X105568750Y-97663000D01*
X107188000Y-97663000D01*
X107188000Y-96551750D01*
X107442000Y-96551750D01*
X107442000Y-97663000D01*
X109061250Y-97663000D01*
X109220000Y-97504250D01*
X109220000Y-97155000D01*
X147588475Y-97155000D01*
X147732383Y-97878473D01*
X148142197Y-98491803D01*
X148755527Y-98901617D01*
X149296382Y-99009200D01*
X151693618Y-99009200D01*
X152234473Y-98901617D01*
X152847803Y-98491803D01*
X153257617Y-97878473D01*
X153401525Y-97155000D01*
X153257617Y-96431527D01*
X152847803Y-95818197D01*
X152234473Y-95408383D01*
X151693618Y-95300800D01*
X149296382Y-95300800D01*
X148755527Y-95408383D01*
X148142197Y-95818197D01*
X147732383Y-96431527D01*
X147588475Y-97155000D01*
X109220000Y-97155000D01*
X109220000Y-96901691D01*
X109123327Y-96668302D01*
X108944699Y-96489673D01*
X108711310Y-96393000D01*
X107600750Y-96393000D01*
X107442000Y-96551750D01*
X107188000Y-96551750D01*
X107029250Y-96393000D01*
X105918690Y-96393000D01*
X105685301Y-96489673D01*
X105506673Y-96668302D01*
X105410000Y-96901691D01*
X101731050Y-96901691D01*
X103382741Y-95250000D01*
X105693403Y-95250000D01*
X105778171Y-95676155D01*
X106019568Y-96037432D01*
X106380845Y-96278829D01*
X106699431Y-96342200D01*
X107930569Y-96342200D01*
X108249155Y-96278829D01*
X108610432Y-96037432D01*
X108851829Y-95676155D01*
X108936597Y-95250000D01*
X108851829Y-94823845D01*
X108610432Y-94462568D01*
X108249155Y-94221171D01*
X107930569Y-94157800D01*
X106699431Y-94157800D01*
X106380845Y-94221171D01*
X106019568Y-94462568D01*
X105778171Y-94823845D01*
X105693403Y-95250000D01*
X103382741Y-95250000D01*
X105731453Y-92901289D01*
X105778171Y-93136155D01*
X106019568Y-93497432D01*
X106380845Y-93738829D01*
X106699431Y-93802200D01*
X107930569Y-93802200D01*
X108249155Y-93738829D01*
X108610432Y-93497432D01*
X108851829Y-93136155D01*
X108936597Y-92710000D01*
X108851829Y-92283845D01*
X108610432Y-91922568D01*
X108249155Y-91681171D01*
X107930569Y-91617800D01*
X107014942Y-91617800D01*
X110368042Y-88264700D01*
X126088309Y-88264700D01*
X126211668Y-88388059D01*
X126496403Y-88506000D01*
X126804597Y-88506000D01*
X127089332Y-88388059D01*
X127307259Y-88170132D01*
X127425200Y-87885397D01*
X127425200Y-87577203D01*
X127307259Y-87292468D01*
X127089332Y-87074541D01*
X126804597Y-86956600D01*
X126496403Y-86956600D01*
X126211668Y-87074541D01*
X126088309Y-87197900D01*
X110199625Y-87197900D01*
X110147099Y-87187452D01*
X110094573Y-87197900D01*
X110094569Y-87197900D01*
X109938978Y-87228849D01*
X109938976Y-87228850D01*
X109938977Y-87228850D01*
X109807073Y-87316985D01*
X109807071Y-87316987D01*
X109762541Y-87346741D01*
X109732787Y-87391271D01*
X91722277Y-105401783D01*
X91695277Y-105419824D01*
X91295573Y-105152750D01*
X90805000Y-105055169D01*
X90314426Y-105152750D01*
X89898538Y-105430638D01*
X89620650Y-105846527D01*
X89547700Y-106213272D01*
X89522300Y-106213272D01*
X89522300Y-106213271D01*
X89449350Y-105846526D01*
X89171462Y-105430638D01*
X88755573Y-105152750D01*
X88265000Y-105055169D01*
X87774426Y-105152750D01*
X87358538Y-105430638D01*
X87080650Y-105846527D01*
X87007700Y-106213272D01*
X86169500Y-106213272D01*
X86169500Y-101180653D01*
X87426800Y-101180653D01*
X87426800Y-102019347D01*
X87747754Y-102794199D01*
X88340801Y-103387246D01*
X89115653Y-103708200D01*
X89954347Y-103708200D01*
X90729199Y-103387246D01*
X91322246Y-102794199D01*
X91643200Y-102019347D01*
X91643200Y-101180653D01*
X91322246Y-100405801D01*
X90729199Y-99812754D01*
X89954347Y-99491800D01*
X89115653Y-99491800D01*
X88340801Y-99812754D01*
X87747754Y-100405801D01*
X87426800Y-101180653D01*
X86169500Y-101180653D01*
X86169500Y-87630000D01*
X105693403Y-87630000D01*
X105778171Y-88056155D01*
X106019568Y-88417432D01*
X106380845Y-88658829D01*
X106699431Y-88722200D01*
X107930569Y-88722200D01*
X108249155Y-88658829D01*
X108610432Y-88417432D01*
X108851829Y-88056155D01*
X108936597Y-87630000D01*
X108851829Y-87203845D01*
X108610432Y-86842568D01*
X108249155Y-86601171D01*
X107930569Y-86537800D01*
X106699431Y-86537800D01*
X106380845Y-86601171D01*
X106019568Y-86842568D01*
X105778171Y-87203845D01*
X105693403Y-87630000D01*
X86169500Y-87630000D01*
X86169500Y-85090000D01*
X105693403Y-85090000D01*
X105778171Y-85516155D01*
X106019568Y-85877432D01*
X106380845Y-86118829D01*
X106699431Y-86182200D01*
X107930569Y-86182200D01*
X108249155Y-86118829D01*
X108610432Y-85877432D01*
X108780170Y-85623400D01*
X133503674Y-85623400D01*
X133556200Y-85633848D01*
X133608726Y-85623400D01*
X133608731Y-85623400D01*
X133764322Y-85592451D01*
X133845514Y-85538200D01*
X134036797Y-85538200D01*
X134321532Y-85420259D01*
X134539459Y-85202332D01*
X134657400Y-84917597D01*
X134657400Y-84609403D01*
X134539459Y-84324668D01*
X134321532Y-84106741D01*
X134036797Y-83988800D01*
X133728603Y-83988800D01*
X133443868Y-84106741D01*
X133225941Y-84324668D01*
X133129872Y-84556600D01*
X108780170Y-84556600D01*
X108610432Y-84302568D01*
X108249155Y-84061171D01*
X107930569Y-83997800D01*
X106699431Y-83997800D01*
X106380845Y-84061171D01*
X106019568Y-84302568D01*
X105778171Y-84663845D01*
X105693403Y-85090000D01*
X86169500Y-85090000D01*
X86169500Y-82893070D01*
X105452780Y-82893070D01*
X105467740Y-82967277D01*
X105729370Y-83448026D01*
X106155059Y-83792059D01*
X106680000Y-83947000D01*
X107188000Y-83947000D01*
X107188000Y-82677000D01*
X107442000Y-82677000D01*
X107442000Y-83947000D01*
X107950000Y-83947000D01*
X108474941Y-83792059D01*
X108900630Y-83448026D01*
X109162260Y-82967277D01*
X109177220Y-82893070D01*
X109054720Y-82677000D01*
X107442000Y-82677000D01*
X107188000Y-82677000D01*
X105575280Y-82677000D01*
X105452780Y-82893070D01*
X86169500Y-82893070D01*
X86169500Y-82206930D01*
X105452780Y-82206930D01*
X105575280Y-82423000D01*
X107188000Y-82423000D01*
X107188000Y-81153000D01*
X107442000Y-81153000D01*
X107442000Y-82423000D01*
X109054720Y-82423000D01*
X109177220Y-82206930D01*
X109162260Y-82132723D01*
X108900630Y-81651974D01*
X108474941Y-81307941D01*
X107950000Y-81153000D01*
X107442000Y-81153000D01*
X107188000Y-81153000D01*
X106680000Y-81153000D01*
X106155059Y-81307941D01*
X105729370Y-81651974D01*
X105467740Y-82132723D01*
X105452780Y-82206930D01*
X86169500Y-82206930D01*
X86169500Y-75780653D01*
X87426800Y-75780653D01*
X87426800Y-76619347D01*
X87747754Y-77394199D01*
X88340801Y-77987246D01*
X89115653Y-78308200D01*
X89954347Y-78308200D01*
X90729199Y-77987246D01*
X91322246Y-77394199D01*
X91643200Y-76619347D01*
X91643200Y-75780653D01*
X91322246Y-75005801D01*
X90729199Y-74412754D01*
X89954347Y-74091800D01*
X89115653Y-74091800D01*
X88340801Y-74412754D01*
X87747754Y-75005801D01*
X87426800Y-75780653D01*
X86169500Y-75780653D01*
X86169500Y-69850000D01*
X87001231Y-69850000D01*
X87001231Y-72390000D01*
X87026858Y-72518838D01*
X87099839Y-72628061D01*
X87209062Y-72701042D01*
X87337900Y-72726669D01*
X89192100Y-72726669D01*
X89320938Y-72701042D01*
X89430161Y-72628061D01*
X89503142Y-72518838D01*
X89528769Y-72390000D01*
X89528769Y-72327366D01*
X89790231Y-72657273D01*
X90324542Y-72954692D01*
X90436006Y-72980793D01*
X90678000Y-72860492D01*
X90678000Y-71247000D01*
X90658000Y-71247000D01*
X90658000Y-70993000D01*
X90678000Y-70993000D01*
X90678000Y-69379508D01*
X90932000Y-69379508D01*
X90932000Y-70993000D01*
X90952000Y-70993000D01*
X90952000Y-71247000D01*
X90932000Y-71247000D01*
X90932000Y-72860492D01*
X91173994Y-72980793D01*
X91285458Y-72954692D01*
X91819769Y-72657273D01*
X92199591Y-72178022D01*
X92232794Y-72061445D01*
X92438539Y-72369362D01*
X92854427Y-72647250D01*
X93345000Y-72744831D01*
X93835574Y-72647250D01*
X94251462Y-72369362D01*
X94529350Y-71953474D01*
X94602300Y-71586728D01*
X94602300Y-70653272D01*
X94627700Y-70653272D01*
X94627700Y-71586729D01*
X94700650Y-71953474D01*
X94978539Y-72369362D01*
X95394427Y-72647250D01*
X95885000Y-72744831D01*
X96375574Y-72647250D01*
X96791462Y-72369362D01*
X97069350Y-71953474D01*
X97142300Y-71586728D01*
X97142300Y-70653272D01*
X97167700Y-70653272D01*
X97167700Y-71586729D01*
X97240650Y-71953474D01*
X97518539Y-72369362D01*
X97934427Y-72647250D01*
X98425000Y-72744831D01*
X98915574Y-72647250D01*
X99331462Y-72369362D01*
X99609350Y-71953474D01*
X99682300Y-71586728D01*
X99682300Y-70653272D01*
X99707700Y-70653272D01*
X99707700Y-71586729D01*
X99780650Y-71953474D01*
X100058539Y-72369362D01*
X100474427Y-72647250D01*
X100965000Y-72744831D01*
X101455574Y-72647250D01*
X101855277Y-72380176D01*
X101882277Y-72398217D01*
X108958905Y-79474845D01*
X108915200Y-79466152D01*
X108862674Y-79476600D01*
X108780170Y-79476600D01*
X108610432Y-79222568D01*
X108249155Y-78981171D01*
X107930569Y-78917800D01*
X106699431Y-78917800D01*
X106380845Y-78981171D01*
X106019568Y-79222568D01*
X105778171Y-79583845D01*
X105693403Y-80010000D01*
X105778171Y-80436155D01*
X106019568Y-80797432D01*
X106380845Y-81038829D01*
X106699431Y-81102200D01*
X107930569Y-81102200D01*
X108249155Y-81038829D01*
X108610432Y-80797432D01*
X108745759Y-80594900D01*
X110357584Y-82206725D01*
X110387341Y-82251259D01*
X110563778Y-82369151D01*
X110719369Y-82400100D01*
X110719373Y-82400100D01*
X110771899Y-82410548D01*
X110824425Y-82400100D01*
X123606409Y-82400100D01*
X123729768Y-82523459D01*
X124014503Y-82641400D01*
X124322697Y-82641400D01*
X124607432Y-82523459D01*
X124825359Y-82305532D01*
X124943300Y-82020797D01*
X124943300Y-81712603D01*
X124825359Y-81427868D01*
X124607432Y-81209941D01*
X124322697Y-81092000D01*
X124014503Y-81092000D01*
X123729768Y-81209941D01*
X123606409Y-81333300D01*
X122649757Y-81333300D01*
X122694700Y-81224797D01*
X122694700Y-80916603D01*
X122582199Y-80645000D01*
X147588475Y-80645000D01*
X147732383Y-81368473D01*
X148142197Y-81981803D01*
X148755527Y-82391617D01*
X149296382Y-82499200D01*
X151693618Y-82499200D01*
X152234473Y-82391617D01*
X152847803Y-81981803D01*
X153257617Y-81368473D01*
X153401525Y-80645000D01*
X153257617Y-79921527D01*
X152847803Y-79308197D01*
X152234473Y-78898383D01*
X151693618Y-78790800D01*
X149296382Y-78790800D01*
X148755527Y-78898383D01*
X148142197Y-79308197D01*
X147732383Y-79921527D01*
X147588475Y-80645000D01*
X122582199Y-80645000D01*
X122576759Y-80631868D01*
X122358832Y-80413941D01*
X122074097Y-80296000D01*
X121765903Y-80296000D01*
X121481168Y-80413941D01*
X121357809Y-80537300D01*
X111530041Y-80537300D01*
X109478741Y-78486000D01*
X140208000Y-78486000D01*
X140208000Y-78740000D01*
X140362941Y-79264941D01*
X140706974Y-79690630D01*
X141187723Y-79952260D01*
X141261930Y-79967220D01*
X141478000Y-79844720D01*
X141478000Y-78486000D01*
X141732000Y-78486000D01*
X141732000Y-79844720D01*
X141948070Y-79967220D01*
X142022277Y-79952260D01*
X142503026Y-79690630D01*
X142847059Y-79264941D01*
X143002000Y-78740000D01*
X143002000Y-78486000D01*
X141732000Y-78486000D01*
X141478000Y-78486000D01*
X140208000Y-78486000D01*
X109478741Y-78486000D01*
X103698985Y-72706245D01*
X103995574Y-72647250D01*
X104411462Y-72369362D01*
X104689350Y-71953474D01*
X104762300Y-71586728D01*
X104762300Y-70653272D01*
X104787700Y-70653272D01*
X104787700Y-71586729D01*
X104860650Y-71953474D01*
X105138539Y-72369362D01*
X105554427Y-72647250D01*
X106045000Y-72744831D01*
X106535574Y-72647250D01*
X106951462Y-72369362D01*
X107229350Y-71953474D01*
X107302300Y-71586728D01*
X107302300Y-70653272D01*
X107327700Y-70653272D01*
X107327700Y-71586729D01*
X107400650Y-71953474D01*
X107678539Y-72369362D01*
X108094427Y-72647250D01*
X108585000Y-72744831D01*
X109075574Y-72647250D01*
X109491462Y-72369362D01*
X109769350Y-71953474D01*
X109842300Y-71586728D01*
X109842300Y-70653272D01*
X109867700Y-70653272D01*
X109867700Y-71586729D01*
X109940650Y-71953474D01*
X110218539Y-72369362D01*
X110634427Y-72647250D01*
X111125000Y-72744831D01*
X111615574Y-72647250D01*
X112031462Y-72369362D01*
X112309350Y-71953474D01*
X112382300Y-71586728D01*
X112382300Y-70653272D01*
X112407700Y-70653272D01*
X112407700Y-71586729D01*
X112480650Y-71953474D01*
X112758539Y-72369362D01*
X113174427Y-72647250D01*
X113665000Y-72744831D01*
X114155574Y-72647250D01*
X114571462Y-72369362D01*
X114849350Y-71953474D01*
X114922300Y-71586728D01*
X114922300Y-70653272D01*
X114947700Y-70653272D01*
X114947700Y-71586729D01*
X115020650Y-71953474D01*
X115298539Y-72369362D01*
X115714427Y-72647250D01*
X116205000Y-72744831D01*
X116695574Y-72647250D01*
X117111462Y-72369362D01*
X117389350Y-71953474D01*
X117462300Y-71586728D01*
X117462300Y-70653272D01*
X117487700Y-70653272D01*
X117487700Y-71586729D01*
X117560650Y-71953474D01*
X117838539Y-72369362D01*
X118254427Y-72647250D01*
X118745000Y-72744831D01*
X119235574Y-72647250D01*
X119651462Y-72369362D01*
X119929350Y-71953474D01*
X120002300Y-71586728D01*
X120002300Y-70653272D01*
X120027700Y-70653272D01*
X120027700Y-71586729D01*
X120100650Y-71953474D01*
X120378539Y-72369362D01*
X120794427Y-72647250D01*
X121285000Y-72744831D01*
X121775574Y-72647250D01*
X122191462Y-72369362D01*
X122469350Y-71953474D01*
X122542300Y-71586728D01*
X122542300Y-70653272D01*
X122567700Y-70653272D01*
X122567700Y-71586729D01*
X122640650Y-71953474D01*
X122918539Y-72369362D01*
X123334427Y-72647250D01*
X123825000Y-72744831D01*
X124315574Y-72647250D01*
X124731462Y-72369362D01*
X125009350Y-71953474D01*
X125082300Y-71586728D01*
X125082300Y-70653272D01*
X125107700Y-70653272D01*
X125107700Y-71586729D01*
X125180650Y-71953474D01*
X125458539Y-72369362D01*
X125874427Y-72647250D01*
X126365000Y-72744831D01*
X126855574Y-72647250D01*
X127271462Y-72369362D01*
X127549350Y-71953474D01*
X127622300Y-71586728D01*
X127622300Y-70700653D01*
X128066800Y-70700653D01*
X128066800Y-71539347D01*
X128387754Y-72314199D01*
X128980801Y-72907246D01*
X129755653Y-73228200D01*
X130594347Y-73228200D01*
X131369199Y-72907246D01*
X131378445Y-72898000D01*
X140208000Y-72898000D01*
X140208000Y-73152000D01*
X140362941Y-73676941D01*
X140706974Y-74102630D01*
X141115122Y-74324750D01*
X140817569Y-74523568D01*
X140576171Y-74884845D01*
X140512800Y-75203431D01*
X140512800Y-75926568D01*
X140576171Y-76245154D01*
X140817568Y-76606432D01*
X141115122Y-76805251D01*
X140706974Y-77027370D01*
X140362941Y-77453059D01*
X140208000Y-77978000D01*
X140208000Y-78232000D01*
X141478000Y-78232000D01*
X141478000Y-78212000D01*
X141732000Y-78212000D01*
X141732000Y-78232000D01*
X143002000Y-78232000D01*
X143002000Y-77978000D01*
X142847059Y-77453059D01*
X142503026Y-77027370D01*
X142094878Y-76805250D01*
X142392432Y-76606432D01*
X142633829Y-76245155D01*
X142697200Y-75926569D01*
X142697200Y-75565000D01*
X143031403Y-75565000D01*
X143116171Y-75991155D01*
X143357568Y-76352432D01*
X143718845Y-76593829D01*
X144037431Y-76657200D01*
X144760569Y-76657200D01*
X145079155Y-76593829D01*
X145440432Y-76352432D01*
X145681829Y-75991155D01*
X145766597Y-75565000D01*
X145681829Y-75138845D01*
X145440432Y-74777568D01*
X145079155Y-74536171D01*
X144760569Y-74472800D01*
X144037431Y-74472800D01*
X143718845Y-74536171D01*
X143357568Y-74777568D01*
X143116171Y-75138845D01*
X143031403Y-75565000D01*
X142697200Y-75565000D01*
X142697200Y-75203432D01*
X142633829Y-74884846D01*
X142392432Y-74523568D01*
X142094878Y-74324749D01*
X142503026Y-74102630D01*
X142847059Y-73676941D01*
X143002000Y-73152000D01*
X143002000Y-72898000D01*
X141732000Y-72898000D01*
X141732000Y-72918000D01*
X141478000Y-72918000D01*
X141478000Y-72898000D01*
X140208000Y-72898000D01*
X131378445Y-72898000D01*
X131886445Y-72390000D01*
X140208000Y-72390000D01*
X140208000Y-72644000D01*
X141478000Y-72644000D01*
X141478000Y-71285280D01*
X141732000Y-71285280D01*
X141732000Y-72644000D01*
X143002000Y-72644000D01*
X143002000Y-72390000D01*
X142847059Y-71865059D01*
X142503026Y-71439370D01*
X142022277Y-71177740D01*
X141948070Y-71162780D01*
X141732000Y-71285280D01*
X141478000Y-71285280D01*
X141261930Y-71162780D01*
X141187723Y-71177740D01*
X140706974Y-71439370D01*
X140362941Y-71865059D01*
X140208000Y-72390000D01*
X131886445Y-72390000D01*
X131962246Y-72314199D01*
X132283200Y-71539347D01*
X132283200Y-70700653D01*
X132193874Y-70485000D01*
X147588475Y-70485000D01*
X147732383Y-71208473D01*
X148142197Y-71821803D01*
X148755527Y-72231617D01*
X149296382Y-72339200D01*
X151693618Y-72339200D01*
X152234473Y-72231617D01*
X152847803Y-71821803D01*
X153257617Y-71208473D01*
X153401525Y-70485000D01*
X153257617Y-69761527D01*
X152847803Y-69148197D01*
X152234473Y-68738383D01*
X151693618Y-68630800D01*
X149296382Y-68630800D01*
X148755527Y-68738383D01*
X148142197Y-69148197D01*
X147732383Y-69761527D01*
X147588475Y-70485000D01*
X132193874Y-70485000D01*
X131962246Y-69925801D01*
X131369199Y-69332754D01*
X130594347Y-69011800D01*
X129755653Y-69011800D01*
X128980801Y-69332754D01*
X128387754Y-69925801D01*
X128066800Y-70700653D01*
X127622300Y-70700653D01*
X127622300Y-70653271D01*
X127549350Y-70286526D01*
X127271462Y-69870638D01*
X126855573Y-69592750D01*
X126365000Y-69495169D01*
X125874426Y-69592750D01*
X125458538Y-69870638D01*
X125180650Y-70286527D01*
X125107700Y-70653272D01*
X125082300Y-70653272D01*
X125082300Y-70653271D01*
X125009350Y-70286526D01*
X124731462Y-69870638D01*
X124315573Y-69592750D01*
X123825000Y-69495169D01*
X123334426Y-69592750D01*
X122918538Y-69870638D01*
X122640650Y-70286527D01*
X122567700Y-70653272D01*
X122542300Y-70653272D01*
X122542300Y-70653271D01*
X122469350Y-70286526D01*
X122191462Y-69870638D01*
X121775573Y-69592750D01*
X121285000Y-69495169D01*
X120794426Y-69592750D01*
X120378538Y-69870638D01*
X120100650Y-70286527D01*
X120027700Y-70653272D01*
X120002300Y-70653272D01*
X120002300Y-70653271D01*
X119929350Y-70286526D01*
X119651462Y-69870638D01*
X119235573Y-69592750D01*
X118745000Y-69495169D01*
X118254426Y-69592750D01*
X117838538Y-69870638D01*
X117560650Y-70286527D01*
X117487700Y-70653272D01*
X117462300Y-70653272D01*
X117462300Y-70653271D01*
X117389350Y-70286526D01*
X117111462Y-69870638D01*
X116695573Y-69592750D01*
X116205000Y-69495169D01*
X115714426Y-69592750D01*
X115298538Y-69870638D01*
X115020650Y-70286527D01*
X114947700Y-70653272D01*
X114922300Y-70653272D01*
X114922300Y-70653271D01*
X114849350Y-70286526D01*
X114571462Y-69870638D01*
X114155573Y-69592750D01*
X113665000Y-69495169D01*
X113174426Y-69592750D01*
X112758538Y-69870638D01*
X112480650Y-70286527D01*
X112407700Y-70653272D01*
X112382300Y-70653272D01*
X112382300Y-70653271D01*
X112309350Y-70286526D01*
X112031462Y-69870638D01*
X111615573Y-69592750D01*
X111125000Y-69495169D01*
X110634426Y-69592750D01*
X110218538Y-69870638D01*
X109940650Y-70286527D01*
X109867700Y-70653272D01*
X109842300Y-70653272D01*
X109842300Y-70653271D01*
X109769350Y-70286526D01*
X109491462Y-69870638D01*
X109075573Y-69592750D01*
X108585000Y-69495169D01*
X108094426Y-69592750D01*
X107678538Y-69870638D01*
X107400650Y-70286527D01*
X107327700Y-70653272D01*
X107302300Y-70653272D01*
X107302300Y-70653271D01*
X107229350Y-70286526D01*
X106951462Y-69870638D01*
X106535573Y-69592750D01*
X106045000Y-69495169D01*
X105554426Y-69592750D01*
X105138538Y-69870638D01*
X104860650Y-70286527D01*
X104787700Y-70653272D01*
X104762300Y-70653272D01*
X104762300Y-70653271D01*
X104689350Y-70286526D01*
X104411462Y-69870638D01*
X103995573Y-69592750D01*
X103505000Y-69495169D01*
X103014426Y-69592750D01*
X102598538Y-69870638D01*
X102320650Y-70286527D01*
X102261490Y-70583946D01*
X102222300Y-70576151D01*
X102207544Y-70579086D01*
X102149350Y-70286526D01*
X101871462Y-69870638D01*
X101455573Y-69592750D01*
X100965000Y-69495169D01*
X100474426Y-69592750D01*
X100058538Y-69870638D01*
X99780650Y-70286527D01*
X99707700Y-70653272D01*
X99682300Y-70653272D01*
X99682300Y-70653271D01*
X99609350Y-70286526D01*
X99331462Y-69870638D01*
X98915573Y-69592750D01*
X98425000Y-69495169D01*
X97934426Y-69592750D01*
X97518538Y-69870638D01*
X97240650Y-70286527D01*
X97167700Y-70653272D01*
X97142300Y-70653272D01*
X97142300Y-70653271D01*
X97069350Y-70286526D01*
X96791462Y-69870638D01*
X96375573Y-69592750D01*
X95885000Y-69495169D01*
X95394426Y-69592750D01*
X94978538Y-69870638D01*
X94700650Y-70286527D01*
X94627700Y-70653272D01*
X94602300Y-70653272D01*
X94602300Y-70653271D01*
X94529350Y-70286526D01*
X94251462Y-69870638D01*
X93835573Y-69592750D01*
X93345000Y-69495169D01*
X92854426Y-69592750D01*
X92438538Y-69870638D01*
X92232794Y-70178555D01*
X92199591Y-70061978D01*
X91819769Y-69582727D01*
X91285458Y-69285308D01*
X91173994Y-69259207D01*
X90932000Y-69379508D01*
X90678000Y-69379508D01*
X90436006Y-69259207D01*
X90324542Y-69285308D01*
X89790231Y-69582727D01*
X89528769Y-69912634D01*
X89528769Y-69850000D01*
X89503142Y-69721162D01*
X89430161Y-69611939D01*
X89320938Y-69538958D01*
X89192100Y-69513331D01*
X87337900Y-69513331D01*
X87209062Y-69538958D01*
X87099839Y-69611939D01*
X87026858Y-69721162D01*
X87001231Y-69850000D01*
X86169500Y-69850000D01*
X86169500Y-68389500D01*
X155765501Y-68389500D01*
X155765500Y-109410500D01*
X155765500Y-109410500D01*
G37*
X155765500Y-109410500D02*
X86169500Y-109410500D01*
X86169500Y-106213272D01*
X87007700Y-106213272D01*
X87007700Y-107146729D01*
X87080650Y-107513474D01*
X87358539Y-107929362D01*
X87774427Y-108207250D01*
X88265000Y-108304831D01*
X88755574Y-108207250D01*
X89171462Y-107929362D01*
X89449350Y-107513474D01*
X89522300Y-107146728D01*
X89522300Y-106213272D01*
X89547700Y-106213272D01*
X89547700Y-107146729D01*
X89620650Y-107513474D01*
X89898539Y-107929362D01*
X90314427Y-108207250D01*
X90805000Y-108304831D01*
X91295574Y-108207250D01*
X91711462Y-107929362D01*
X91989350Y-107513474D01*
X92047544Y-107220914D01*
X92062300Y-107223849D01*
X92101490Y-107216054D01*
X92160650Y-107513474D01*
X92438539Y-107929362D01*
X92854427Y-108207250D01*
X93345000Y-108304831D01*
X93835574Y-108207250D01*
X94251462Y-107929362D01*
X94529350Y-107513474D01*
X94602300Y-107146728D01*
X94602300Y-106213272D01*
X94627700Y-106213272D01*
X94627700Y-107146729D01*
X94700650Y-107513474D01*
X94978539Y-107929362D01*
X95394427Y-108207250D01*
X95885000Y-108304831D01*
X96375574Y-108207250D01*
X96791462Y-107929362D01*
X97069350Y-107513474D01*
X97142300Y-107146728D01*
X97142300Y-106213272D01*
X97167700Y-106213272D01*
X97167700Y-107146729D01*
X97240650Y-107513474D01*
X97518539Y-107929362D01*
X97934427Y-108207250D01*
X98425000Y-108304831D01*
X98915574Y-108207250D01*
X99331462Y-107929362D01*
X99609350Y-107513474D01*
X99682300Y-107146728D01*
X99682300Y-106213272D01*
X99707700Y-106213272D01*
X99707700Y-107146729D01*
X99780650Y-107513474D01*
X100058539Y-107929362D01*
X100474427Y-108207250D01*
X100965000Y-108304831D01*
X101455574Y-108207250D01*
X101871462Y-107929362D01*
X102149350Y-107513474D01*
X102222300Y-107146728D01*
X102222300Y-106213272D01*
X102247700Y-106213272D01*
X102247700Y-107146729D01*
X102320650Y-107513474D01*
X102598539Y-107929362D01*
X103014427Y-108207250D01*
X103505000Y-108304831D01*
X103995574Y-108207250D01*
X104411462Y-107929362D01*
X104689350Y-107513474D01*
X104762300Y-107146728D01*
X104762300Y-106213272D01*
X104787700Y-106213272D01*
X104787700Y-107146729D01*
X104860650Y-107513474D01*
X105138539Y-107929362D01*
X105554427Y-108207250D01*
X106045000Y-108304831D01*
X106535574Y-108207250D01*
X106951462Y-107929362D01*
X107229350Y-107513474D01*
X107302300Y-107146728D01*
X107302300Y-106213272D01*
X107327700Y-106213272D01*
X107327700Y-107146729D01*
X107400650Y-107513474D01*
X107678539Y-107929362D01*
X108094427Y-108207250D01*
X108585000Y-108304831D01*
X109075574Y-108207250D01*
X109491462Y-107929362D01*
X109769350Y-107513474D01*
X109842300Y-107146728D01*
X109842300Y-106213272D01*
X109867700Y-106213272D01*
X109867700Y-107146729D01*
X109940650Y-107513474D01*
X110218539Y-107929362D01*
X110634427Y-108207250D01*
X111125000Y-108304831D01*
X111615574Y-108207250D01*
X112031462Y-107929362D01*
X112309350Y-107513474D01*
X112382300Y-107146728D01*
X112382300Y-106213272D01*
X112407700Y-106213272D01*
X112407700Y-107146729D01*
X112480650Y-107513474D01*
X112758539Y-107929362D01*
X113174427Y-108207250D01*
X113665000Y-108304831D01*
X114155574Y-108207250D01*
X114571462Y-107929362D01*
X114849350Y-107513474D01*
X114922300Y-107146728D01*
X114922300Y-106213272D01*
X114947700Y-106213272D01*
X114947700Y-107146729D01*
X115020650Y-107513474D01*
X115298539Y-107929362D01*
X115714427Y-108207250D01*
X116205000Y-108304831D01*
X116695574Y-108207250D01*
X117111462Y-107929362D01*
X117389350Y-107513474D01*
X117462300Y-107146728D01*
X117462300Y-106213272D01*
X117487700Y-106213272D01*
X117487700Y-107146729D01*
X117560650Y-107513474D01*
X117838539Y-107929362D01*
X118254427Y-108207250D01*
X118745000Y-108304831D01*
X119235574Y-108207250D01*
X119651462Y-107929362D01*
X119929350Y-107513474D01*
X120002300Y-107146728D01*
X120002300Y-106213272D01*
X120027700Y-106213272D01*
X120027700Y-107146729D01*
X120100650Y-107513474D01*
X120378539Y-107929362D01*
X120794427Y-108207250D01*
X121285000Y-108304831D01*
X121775574Y-108207250D01*
X122191462Y-107929362D01*
X122469350Y-107513474D01*
X122542300Y-107146728D01*
X122542300Y-106213272D01*
X122567700Y-106213272D01*
X122567700Y-107146729D01*
X122640650Y-107513474D01*
X122918539Y-107929362D01*
X123334427Y-108207250D01*
X123825000Y-108304831D01*
X124315574Y-108207250D01*
X124731462Y-107929362D01*
X125009350Y-107513474D01*
X125082300Y-107146728D01*
X125082300Y-106213272D01*
X125107700Y-106213272D01*
X125107700Y-107146729D01*
X125180650Y-107513474D01*
X125458539Y-107929362D01*
X125874427Y-108207250D01*
X126365000Y-108304831D01*
X126855574Y-108207250D01*
X127271462Y-107929362D01*
X127549350Y-107513474D01*
X127622300Y-107146728D01*
X127622300Y-106260653D01*
X128066800Y-106260653D01*
X128066800Y-107099347D01*
X128387754Y-107874199D01*
X128980801Y-108467246D01*
X129755653Y-108788200D01*
X130594347Y-108788200D01*
X131369199Y-108467246D01*
X131962246Y-107874199D01*
X132193873Y-107315000D01*
X147588475Y-107315000D01*
X147732383Y-108038473D01*
X148142197Y-108651803D01*
X148755527Y-109061617D01*
X149296382Y-109169200D01*
X151693618Y-109169200D01*
X152234473Y-109061617D01*
X152847803Y-108651803D01*
X153257617Y-108038473D01*
X153401525Y-107315000D01*
X153257617Y-106591527D01*
X152847803Y-105978197D01*
X152234473Y-105568383D01*
X151693618Y-105460800D01*
X149296382Y-105460800D01*
X148755527Y-105568383D01*
X148142197Y-105978197D01*
X147732383Y-106591527D01*
X147588475Y-107315000D01*
X132193873Y-107315000D01*
X132283200Y-107099347D01*
X132283200Y-106260653D01*
X131962246Y-105485801D01*
X131632445Y-105156000D01*
X140208000Y-105156000D01*
X140208000Y-105410000D01*
X140362941Y-105934941D01*
X140706974Y-106360630D01*
X141187723Y-106622260D01*
X141261930Y-106637220D01*
X141478000Y-106514720D01*
X141478000Y-105156000D01*
X141732000Y-105156000D01*
X141732000Y-106514720D01*
X141948070Y-106637220D01*
X142022277Y-106622260D01*
X142503026Y-106360630D01*
X142847059Y-105934941D01*
X143002000Y-105410000D01*
X143002000Y-105156000D01*
X141732000Y-105156000D01*
X141478000Y-105156000D01*
X140208000Y-105156000D01*
X131632445Y-105156000D01*
X131369199Y-104892754D01*
X130594347Y-104571800D01*
X129755653Y-104571800D01*
X128980801Y-104892754D01*
X128387754Y-105485801D01*
X128066800Y-106260653D01*
X127622300Y-106260653D01*
X127622300Y-106213271D01*
X127549350Y-105846526D01*
X127271462Y-105430638D01*
X126855573Y-105152750D01*
X126365000Y-105055169D01*
X125874426Y-105152750D01*
X125458538Y-105430638D01*
X125180650Y-105846527D01*
X125107700Y-106213272D01*
X125082300Y-106213272D01*
X125082300Y-106213271D01*
X125009350Y-105846526D01*
X124731462Y-105430638D01*
X124315573Y-105152750D01*
X123825000Y-105055169D01*
X123334426Y-105152750D01*
X122918538Y-105430638D01*
X122640650Y-105846527D01*
X122567700Y-106213272D01*
X122542300Y-106213272D01*
X122542300Y-106213271D01*
X122469350Y-105846526D01*
X122191462Y-105430638D01*
X121775573Y-105152750D01*
X121285000Y-105055169D01*
X120794426Y-105152750D01*
X120378538Y-105430638D01*
X120100650Y-105846527D01*
X120027700Y-106213272D01*
X120002300Y-106213272D01*
X120002300Y-106213271D01*
X119929350Y-105846526D01*
X119651462Y-105430638D01*
X119235573Y-105152750D01*
X118745000Y-105055169D01*
X118254426Y-105152750D01*
X117838538Y-105430638D01*
X117560650Y-105846527D01*
X117487700Y-106213272D01*
X117462300Y-106213272D01*
X117462300Y-106213271D01*
X117389350Y-105846526D01*
X117111462Y-105430638D01*
X116695573Y-105152750D01*
X116205000Y-105055169D01*
X115714426Y-105152750D01*
X115298538Y-105430638D01*
X115020650Y-105846527D01*
X114947700Y-106213272D01*
X114922300Y-106213272D01*
X114922300Y-106213271D01*
X114849350Y-105846526D01*
X114571462Y-105430638D01*
X114155573Y-105152750D01*
X113665000Y-105055169D01*
X113174426Y-105152750D01*
X112758538Y-105430638D01*
X112480650Y-105846527D01*
X112407700Y-106213272D01*
X112382300Y-106213272D01*
X112382300Y-106213271D01*
X112309350Y-105846526D01*
X112031462Y-105430638D01*
X111615573Y-105152750D01*
X111125000Y-105055169D01*
X110634426Y-105152750D01*
X110218538Y-105430638D01*
X109940650Y-105846527D01*
X109867700Y-106213272D01*
X109842300Y-106213272D01*
X109842300Y-106213271D01*
X109769350Y-105846526D01*
X109491462Y-105430638D01*
X109075573Y-105152750D01*
X108585000Y-105055169D01*
X108094426Y-105152750D01*
X107678538Y-105430638D01*
X107400650Y-105846527D01*
X107327700Y-106213272D01*
X107302300Y-106213272D01*
X107302300Y-106213271D01*
X107229350Y-105846526D01*
X106951462Y-105430638D01*
X106535573Y-105152750D01*
X106045000Y-105055169D01*
X105554426Y-105152750D01*
X105138538Y-105430638D01*
X104860650Y-105846527D01*
X104787700Y-106213272D01*
X104762300Y-106213272D01*
X104762300Y-106213271D01*
X104689350Y-105846526D01*
X104411462Y-105430638D01*
X103995573Y-105152750D01*
X103505000Y-105055169D01*
X103014426Y-105152750D01*
X102598538Y-105430638D01*
X102320650Y-105846527D01*
X102247700Y-106213272D01*
X102222300Y-106213272D01*
X102222300Y-106213271D01*
X102149350Y-105846526D01*
X101871462Y-105430638D01*
X101455573Y-105152750D01*
X100965000Y-105055169D01*
X100474426Y-105152750D01*
X100058538Y-105430638D01*
X99780650Y-105846527D01*
X99707700Y-106213272D01*
X99682300Y-106213272D01*
X99682300Y-106213271D01*
X99609350Y-105846526D01*
X99331462Y-105430638D01*
X98915573Y-105152750D01*
X98425000Y-105055169D01*
X97934426Y-105152750D01*
X97518538Y-105430638D01*
X97240650Y-105846527D01*
X97167700Y-106213272D01*
X97142300Y-106213272D01*
X97142300Y-106213271D01*
X97069350Y-105846526D01*
X96791462Y-105430638D01*
X96375573Y-105152750D01*
X95885000Y-105055169D01*
X95394426Y-105152750D01*
X94978538Y-105430638D01*
X94700650Y-105846527D01*
X94627700Y-106213272D01*
X94602300Y-106213272D01*
X94602300Y-106213271D01*
X94529350Y-105846526D01*
X94251462Y-105430638D01*
X93835573Y-105152750D01*
X93538985Y-105093755D01*
X99064740Y-99568000D01*
X140208000Y-99568000D01*
X140208000Y-99822000D01*
X140362941Y-100346941D01*
X140706974Y-100772630D01*
X141115122Y-100994750D01*
X140817569Y-101193568D01*
X140576171Y-101554845D01*
X140512800Y-101873431D01*
X140512800Y-102596568D01*
X140576171Y-102915154D01*
X140817568Y-103276432D01*
X141115122Y-103475251D01*
X140706974Y-103697370D01*
X140362941Y-104123059D01*
X140208000Y-104648000D01*
X140208000Y-104902000D01*
X141478000Y-104902000D01*
X141478000Y-104882000D01*
X141732000Y-104882000D01*
X141732000Y-104902000D01*
X143002000Y-104902000D01*
X143002000Y-104648000D01*
X142847059Y-104123059D01*
X142503026Y-103697370D01*
X142094878Y-103475250D01*
X142392432Y-103276432D01*
X142633829Y-102915155D01*
X142697200Y-102596569D01*
X142697200Y-102235000D01*
X143031403Y-102235000D01*
X143116171Y-102661155D01*
X143357568Y-103022432D01*
X143718845Y-103263829D01*
X144037431Y-103327200D01*
X144760569Y-103327200D01*
X145079155Y-103263829D01*
X145440432Y-103022432D01*
X145681829Y-102661155D01*
X145766597Y-102235000D01*
X145681829Y-101808845D01*
X145440432Y-101447568D01*
X145079155Y-101206171D01*
X144760569Y-101142800D01*
X144037431Y-101142800D01*
X143718845Y-101206171D01*
X143357568Y-101447568D01*
X143116171Y-101808845D01*
X143031403Y-102235000D01*
X142697200Y-102235000D01*
X142697200Y-101873432D01*
X142633829Y-101554846D01*
X142392432Y-101193568D01*
X142094878Y-100994749D01*
X142503026Y-100772630D01*
X142847059Y-100346941D01*
X143002000Y-99822000D01*
X143002000Y-99568000D01*
X141732000Y-99568000D01*
X141732000Y-99588000D01*
X141478000Y-99588000D01*
X141478000Y-99568000D01*
X140208000Y-99568000D01*
X99064740Y-99568000D01*
X100556991Y-98075750D01*
X105410000Y-98075750D01*
X105410000Y-98678309D01*
X105506673Y-98911698D01*
X105685301Y-99090327D01*
X105918690Y-99187000D01*
X107029250Y-99187000D01*
X107188000Y-99028250D01*
X107188000Y-97917000D01*
X107442000Y-97917000D01*
X107442000Y-99028250D01*
X107600750Y-99187000D01*
X108711310Y-99187000D01*
X108944699Y-99090327D01*
X108975025Y-99060000D01*
X140208000Y-99060000D01*
X140208000Y-99314000D01*
X141478000Y-99314000D01*
X141478000Y-97955280D01*
X141732000Y-97955280D01*
X141732000Y-99314000D01*
X143002000Y-99314000D01*
X143002000Y-99060000D01*
X142847059Y-98535059D01*
X142503026Y-98109370D01*
X142022277Y-97847740D01*
X141948070Y-97832780D01*
X141732000Y-97955280D01*
X141478000Y-97955280D01*
X141261930Y-97832780D01*
X141187723Y-97847740D01*
X140706974Y-98109370D01*
X140362941Y-98535059D01*
X140208000Y-99060000D01*
X108975025Y-99060000D01*
X109123327Y-98911698D01*
X109220000Y-98678309D01*
X109220000Y-98075750D01*
X109061250Y-97917000D01*
X107442000Y-97917000D01*
X107188000Y-97917000D01*
X105568750Y-97917000D01*
X105410000Y-98075750D01*
X100556991Y-98075750D01*
X101731050Y-96901691D01*
X105410000Y-96901691D01*
X105410000Y-97504250D01*
X105568750Y-97663000D01*
X107188000Y-97663000D01*
X107188000Y-96551750D01*
X107442000Y-96551750D01*
X107442000Y-97663000D01*
X109061250Y-97663000D01*
X109220000Y-97504250D01*
X109220000Y-97155000D01*
X147588475Y-97155000D01*
X147732383Y-97878473D01*
X148142197Y-98491803D01*
X148755527Y-98901617D01*
X149296382Y-99009200D01*
X151693618Y-99009200D01*
X152234473Y-98901617D01*
X152847803Y-98491803D01*
X153257617Y-97878473D01*
X153401525Y-97155000D01*
X153257617Y-96431527D01*
X152847803Y-95818197D01*
X152234473Y-95408383D01*
X151693618Y-95300800D01*
X149296382Y-95300800D01*
X148755527Y-95408383D01*
X148142197Y-95818197D01*
X147732383Y-96431527D01*
X147588475Y-97155000D01*
X109220000Y-97155000D01*
X109220000Y-96901691D01*
X109123327Y-96668302D01*
X108944699Y-96489673D01*
X108711310Y-96393000D01*
X107600750Y-96393000D01*
X107442000Y-96551750D01*
X107188000Y-96551750D01*
X107029250Y-96393000D01*
X105918690Y-96393000D01*
X105685301Y-96489673D01*
X105506673Y-96668302D01*
X105410000Y-96901691D01*
X101731050Y-96901691D01*
X103382741Y-95250000D01*
X105693403Y-95250000D01*
X105778171Y-95676155D01*
X106019568Y-96037432D01*
X106380845Y-96278829D01*
X106699431Y-96342200D01*
X107930569Y-96342200D01*
X108249155Y-96278829D01*
X108610432Y-96037432D01*
X108851829Y-95676155D01*
X108936597Y-95250000D01*
X108851829Y-94823845D01*
X108610432Y-94462568D01*
X108249155Y-94221171D01*
X107930569Y-94157800D01*
X106699431Y-94157800D01*
X106380845Y-94221171D01*
X106019568Y-94462568D01*
X105778171Y-94823845D01*
X105693403Y-95250000D01*
X103382741Y-95250000D01*
X105731453Y-92901289D01*
X105778171Y-93136155D01*
X106019568Y-93497432D01*
X106380845Y-93738829D01*
X106699431Y-93802200D01*
X107930569Y-93802200D01*
X108249155Y-93738829D01*
X108610432Y-93497432D01*
X108851829Y-93136155D01*
X108936597Y-92710000D01*
X108851829Y-92283845D01*
X108610432Y-91922568D01*
X108249155Y-91681171D01*
X107930569Y-91617800D01*
X107014942Y-91617800D01*
X110368042Y-88264700D01*
X126088309Y-88264700D01*
X126211668Y-88388059D01*
X126496403Y-88506000D01*
X126804597Y-88506000D01*
X127089332Y-88388059D01*
X127307259Y-88170132D01*
X127425200Y-87885397D01*
X127425200Y-87577203D01*
X127307259Y-87292468D01*
X127089332Y-87074541D01*
X126804597Y-86956600D01*
X126496403Y-86956600D01*
X126211668Y-87074541D01*
X126088309Y-87197900D01*
X110199625Y-87197900D01*
X110147099Y-87187452D01*
X110094573Y-87197900D01*
X110094569Y-87197900D01*
X109938978Y-87228849D01*
X109938976Y-87228850D01*
X109938977Y-87228850D01*
X109807073Y-87316985D01*
X109807071Y-87316987D01*
X109762541Y-87346741D01*
X109732787Y-87391271D01*
X91722277Y-105401783D01*
X91695277Y-105419824D01*
X91295573Y-105152750D01*
X90805000Y-105055169D01*
X90314426Y-105152750D01*
X89898538Y-105430638D01*
X89620650Y-105846527D01*
X89547700Y-106213272D01*
X89522300Y-106213272D01*
X89522300Y-106213271D01*
X89449350Y-105846526D01*
X89171462Y-105430638D01*
X88755573Y-105152750D01*
X88265000Y-105055169D01*
X87774426Y-105152750D01*
X87358538Y-105430638D01*
X87080650Y-105846527D01*
X87007700Y-106213272D01*
X86169500Y-106213272D01*
X86169500Y-101180653D01*
X87426800Y-101180653D01*
X87426800Y-102019347D01*
X87747754Y-102794199D01*
X88340801Y-103387246D01*
X89115653Y-103708200D01*
X89954347Y-103708200D01*
X90729199Y-103387246D01*
X91322246Y-102794199D01*
X91643200Y-102019347D01*
X91643200Y-101180653D01*
X91322246Y-100405801D01*
X90729199Y-99812754D01*
X89954347Y-99491800D01*
X89115653Y-99491800D01*
X88340801Y-99812754D01*
X87747754Y-100405801D01*
X87426800Y-101180653D01*
X86169500Y-101180653D01*
X86169500Y-87630000D01*
X105693403Y-87630000D01*
X105778171Y-88056155D01*
X106019568Y-88417432D01*
X106380845Y-88658829D01*
X106699431Y-88722200D01*
X107930569Y-88722200D01*
X108249155Y-88658829D01*
X108610432Y-88417432D01*
X108851829Y-88056155D01*
X108936597Y-87630000D01*
X108851829Y-87203845D01*
X108610432Y-86842568D01*
X108249155Y-86601171D01*
X107930569Y-86537800D01*
X106699431Y-86537800D01*
X106380845Y-86601171D01*
X106019568Y-86842568D01*
X105778171Y-87203845D01*
X105693403Y-87630000D01*
X86169500Y-87630000D01*
X86169500Y-85090000D01*
X105693403Y-85090000D01*
X105778171Y-85516155D01*
X106019568Y-85877432D01*
X106380845Y-86118829D01*
X106699431Y-86182200D01*
X107930569Y-86182200D01*
X108249155Y-86118829D01*
X108610432Y-85877432D01*
X108780170Y-85623400D01*
X133503674Y-85623400D01*
X133556200Y-85633848D01*
X133608726Y-85623400D01*
X133608731Y-85623400D01*
X133764322Y-85592451D01*
X133845514Y-85538200D01*
X134036797Y-85538200D01*
X134321532Y-85420259D01*
X134539459Y-85202332D01*
X134657400Y-84917597D01*
X134657400Y-84609403D01*
X134539459Y-84324668D01*
X134321532Y-84106741D01*
X134036797Y-83988800D01*
X133728603Y-83988800D01*
X133443868Y-84106741D01*
X133225941Y-84324668D01*
X133129872Y-84556600D01*
X108780170Y-84556600D01*
X108610432Y-84302568D01*
X108249155Y-84061171D01*
X107930569Y-83997800D01*
X106699431Y-83997800D01*
X106380845Y-84061171D01*
X106019568Y-84302568D01*
X105778171Y-84663845D01*
X105693403Y-85090000D01*
X86169500Y-85090000D01*
X86169500Y-82893070D01*
X105452780Y-82893070D01*
X105467740Y-82967277D01*
X105729370Y-83448026D01*
X106155059Y-83792059D01*
X106680000Y-83947000D01*
X107188000Y-83947000D01*
X107188000Y-82677000D01*
X107442000Y-82677000D01*
X107442000Y-83947000D01*
X107950000Y-83947000D01*
X108474941Y-83792059D01*
X108900630Y-83448026D01*
X109162260Y-82967277D01*
X109177220Y-82893070D01*
X109054720Y-82677000D01*
X107442000Y-82677000D01*
X107188000Y-82677000D01*
X105575280Y-82677000D01*
X105452780Y-82893070D01*
X86169500Y-82893070D01*
X86169500Y-82206930D01*
X105452780Y-82206930D01*
X105575280Y-82423000D01*
X107188000Y-82423000D01*
X107188000Y-81153000D01*
X107442000Y-81153000D01*
X107442000Y-82423000D01*
X109054720Y-82423000D01*
X109177220Y-82206930D01*
X109162260Y-82132723D01*
X108900630Y-81651974D01*
X108474941Y-81307941D01*
X107950000Y-81153000D01*
X107442000Y-81153000D01*
X107188000Y-81153000D01*
X106680000Y-81153000D01*
X106155059Y-81307941D01*
X105729370Y-81651974D01*
X105467740Y-82132723D01*
X105452780Y-82206930D01*
X86169500Y-82206930D01*
X86169500Y-75780653D01*
X87426800Y-75780653D01*
X87426800Y-76619347D01*
X87747754Y-77394199D01*
X88340801Y-77987246D01*
X89115653Y-78308200D01*
X89954347Y-78308200D01*
X90729199Y-77987246D01*
X91322246Y-77394199D01*
X91643200Y-76619347D01*
X91643200Y-75780653D01*
X91322246Y-75005801D01*
X90729199Y-74412754D01*
X89954347Y-74091800D01*
X89115653Y-74091800D01*
X88340801Y-74412754D01*
X87747754Y-75005801D01*
X87426800Y-75780653D01*
X86169500Y-75780653D01*
X86169500Y-69850000D01*
X87001231Y-69850000D01*
X87001231Y-72390000D01*
X87026858Y-72518838D01*
X87099839Y-72628061D01*
X87209062Y-72701042D01*
X87337900Y-72726669D01*
X89192100Y-72726669D01*
X89320938Y-72701042D01*
X89430161Y-72628061D01*
X89503142Y-72518838D01*
X89528769Y-72390000D01*
X89528769Y-72327366D01*
X89790231Y-72657273D01*
X90324542Y-72954692D01*
X90436006Y-72980793D01*
X90678000Y-72860492D01*
X90678000Y-71247000D01*
X90658000Y-71247000D01*
X90658000Y-70993000D01*
X90678000Y-70993000D01*
X90678000Y-69379508D01*
X90932000Y-69379508D01*
X90932000Y-70993000D01*
X90952000Y-70993000D01*
X90952000Y-71247000D01*
X90932000Y-71247000D01*
X90932000Y-72860492D01*
X91173994Y-72980793D01*
X91285458Y-72954692D01*
X91819769Y-72657273D01*
X92199591Y-72178022D01*
X92232794Y-72061445D01*
X92438539Y-72369362D01*
X92854427Y-72647250D01*
X93345000Y-72744831D01*
X93835574Y-72647250D01*
X94251462Y-72369362D01*
X94529350Y-71953474D01*
X94602300Y-71586728D01*
X94602300Y-70653272D01*
X94627700Y-70653272D01*
X94627700Y-71586729D01*
X94700650Y-71953474D01*
X94978539Y-72369362D01*
X95394427Y-72647250D01*
X95885000Y-72744831D01*
X96375574Y-72647250D01*
X96791462Y-72369362D01*
X97069350Y-71953474D01*
X97142300Y-71586728D01*
X97142300Y-70653272D01*
X97167700Y-70653272D01*
X97167700Y-71586729D01*
X97240650Y-71953474D01*
X97518539Y-72369362D01*
X97934427Y-72647250D01*
X98425000Y-72744831D01*
X98915574Y-72647250D01*
X99331462Y-72369362D01*
X99609350Y-71953474D01*
X99682300Y-71586728D01*
X99682300Y-70653272D01*
X99707700Y-70653272D01*
X99707700Y-71586729D01*
X99780650Y-71953474D01*
X100058539Y-72369362D01*
X100474427Y-72647250D01*
X100965000Y-72744831D01*
X101455574Y-72647250D01*
X101855277Y-72380176D01*
X101882277Y-72398217D01*
X108958905Y-79474845D01*
X108915200Y-79466152D01*
X108862674Y-79476600D01*
X108780170Y-79476600D01*
X108610432Y-79222568D01*
X108249155Y-78981171D01*
X107930569Y-78917800D01*
X106699431Y-78917800D01*
X106380845Y-78981171D01*
X106019568Y-79222568D01*
X105778171Y-79583845D01*
X105693403Y-80010000D01*
X105778171Y-80436155D01*
X106019568Y-80797432D01*
X106380845Y-81038829D01*
X106699431Y-81102200D01*
X107930569Y-81102200D01*
X108249155Y-81038829D01*
X108610432Y-80797432D01*
X108745759Y-80594900D01*
X110357584Y-82206725D01*
X110387341Y-82251259D01*
X110563778Y-82369151D01*
X110719369Y-82400100D01*
X110719373Y-82400100D01*
X110771899Y-82410548D01*
X110824425Y-82400100D01*
X123606409Y-82400100D01*
X123729768Y-82523459D01*
X124014503Y-82641400D01*
X124322697Y-82641400D01*
X124607432Y-82523459D01*
X124825359Y-82305532D01*
X124943300Y-82020797D01*
X124943300Y-81712603D01*
X124825359Y-81427868D01*
X124607432Y-81209941D01*
X124322697Y-81092000D01*
X124014503Y-81092000D01*
X123729768Y-81209941D01*
X123606409Y-81333300D01*
X122649757Y-81333300D01*
X122694700Y-81224797D01*
X122694700Y-80916603D01*
X122582199Y-80645000D01*
X147588475Y-80645000D01*
X147732383Y-81368473D01*
X148142197Y-81981803D01*
X148755527Y-82391617D01*
X149296382Y-82499200D01*
X151693618Y-82499200D01*
X152234473Y-82391617D01*
X152847803Y-81981803D01*
X153257617Y-81368473D01*
X153401525Y-80645000D01*
X153257617Y-79921527D01*
X152847803Y-79308197D01*
X152234473Y-78898383D01*
X151693618Y-78790800D01*
X149296382Y-78790800D01*
X148755527Y-78898383D01*
X148142197Y-79308197D01*
X147732383Y-79921527D01*
X147588475Y-80645000D01*
X122582199Y-80645000D01*
X122576759Y-80631868D01*
X122358832Y-80413941D01*
X122074097Y-80296000D01*
X121765903Y-80296000D01*
X121481168Y-80413941D01*
X121357809Y-80537300D01*
X111530041Y-80537300D01*
X109478741Y-78486000D01*
X140208000Y-78486000D01*
X140208000Y-78740000D01*
X140362941Y-79264941D01*
X140706974Y-79690630D01*
X141187723Y-79952260D01*
X141261930Y-79967220D01*
X141478000Y-79844720D01*
X141478000Y-78486000D01*
X141732000Y-78486000D01*
X141732000Y-79844720D01*
X141948070Y-79967220D01*
X142022277Y-79952260D01*
X142503026Y-79690630D01*
X142847059Y-79264941D01*
X143002000Y-78740000D01*
X143002000Y-78486000D01*
X141732000Y-78486000D01*
X141478000Y-78486000D01*
X140208000Y-78486000D01*
X109478741Y-78486000D01*
X103698985Y-72706245D01*
X103995574Y-72647250D01*
X104411462Y-72369362D01*
X104689350Y-71953474D01*
X104762300Y-71586728D01*
X104762300Y-70653272D01*
X104787700Y-70653272D01*
X104787700Y-71586729D01*
X104860650Y-71953474D01*
X105138539Y-72369362D01*
X105554427Y-72647250D01*
X106045000Y-72744831D01*
X106535574Y-72647250D01*
X106951462Y-72369362D01*
X107229350Y-71953474D01*
X107302300Y-71586728D01*
X107302300Y-70653272D01*
X107327700Y-70653272D01*
X107327700Y-71586729D01*
X107400650Y-71953474D01*
X107678539Y-72369362D01*
X108094427Y-72647250D01*
X108585000Y-72744831D01*
X109075574Y-72647250D01*
X109491462Y-72369362D01*
X109769350Y-71953474D01*
X109842300Y-71586728D01*
X109842300Y-70653272D01*
X109867700Y-70653272D01*
X109867700Y-71586729D01*
X109940650Y-71953474D01*
X110218539Y-72369362D01*
X110634427Y-72647250D01*
X111125000Y-72744831D01*
X111615574Y-72647250D01*
X112031462Y-72369362D01*
X112309350Y-71953474D01*
X112382300Y-71586728D01*
X112382300Y-70653272D01*
X112407700Y-70653272D01*
X112407700Y-71586729D01*
X112480650Y-71953474D01*
X112758539Y-72369362D01*
X113174427Y-72647250D01*
X113665000Y-72744831D01*
X114155574Y-72647250D01*
X114571462Y-72369362D01*
X114849350Y-71953474D01*
X114922300Y-71586728D01*
X114922300Y-70653272D01*
X114947700Y-70653272D01*
X114947700Y-71586729D01*
X115020650Y-71953474D01*
X115298539Y-72369362D01*
X115714427Y-72647250D01*
X116205000Y-72744831D01*
X116695574Y-72647250D01*
X117111462Y-72369362D01*
X117389350Y-71953474D01*
X117462300Y-71586728D01*
X117462300Y-70653272D01*
X117487700Y-70653272D01*
X117487700Y-71586729D01*
X117560650Y-71953474D01*
X117838539Y-72369362D01*
X118254427Y-72647250D01*
X118745000Y-72744831D01*
X119235574Y-72647250D01*
X119651462Y-72369362D01*
X119929350Y-71953474D01*
X120002300Y-71586728D01*
X120002300Y-70653272D01*
X120027700Y-70653272D01*
X120027700Y-71586729D01*
X120100650Y-71953474D01*
X120378539Y-72369362D01*
X120794427Y-72647250D01*
X121285000Y-72744831D01*
X121775574Y-72647250D01*
X122191462Y-72369362D01*
X122469350Y-71953474D01*
X122542300Y-71586728D01*
X122542300Y-70653272D01*
X122567700Y-70653272D01*
X122567700Y-71586729D01*
X122640650Y-71953474D01*
X122918539Y-72369362D01*
X123334427Y-72647250D01*
X123825000Y-72744831D01*
X124315574Y-72647250D01*
X124731462Y-72369362D01*
X125009350Y-71953474D01*
X125082300Y-71586728D01*
X125082300Y-70653272D01*
X125107700Y-70653272D01*
X125107700Y-71586729D01*
X125180650Y-71953474D01*
X125458539Y-72369362D01*
X125874427Y-72647250D01*
X126365000Y-72744831D01*
X126855574Y-72647250D01*
X127271462Y-72369362D01*
X127549350Y-71953474D01*
X127622300Y-71586728D01*
X127622300Y-70700653D01*
X128066800Y-70700653D01*
X128066800Y-71539347D01*
X128387754Y-72314199D01*
X128980801Y-72907246D01*
X129755653Y-73228200D01*
X130594347Y-73228200D01*
X131369199Y-72907246D01*
X131378445Y-72898000D01*
X140208000Y-72898000D01*
X140208000Y-73152000D01*
X140362941Y-73676941D01*
X140706974Y-74102630D01*
X141115122Y-74324750D01*
X140817569Y-74523568D01*
X140576171Y-74884845D01*
X140512800Y-75203431D01*
X140512800Y-75926568D01*
X140576171Y-76245154D01*
X140817568Y-76606432D01*
X141115122Y-76805251D01*
X140706974Y-77027370D01*
X140362941Y-77453059D01*
X140208000Y-77978000D01*
X140208000Y-78232000D01*
X141478000Y-78232000D01*
X141478000Y-78212000D01*
X141732000Y-78212000D01*
X141732000Y-78232000D01*
X143002000Y-78232000D01*
X143002000Y-77978000D01*
X142847059Y-77453059D01*
X142503026Y-77027370D01*
X142094878Y-76805250D01*
X142392432Y-76606432D01*
X142633829Y-76245155D01*
X142697200Y-75926569D01*
X142697200Y-75565000D01*
X143031403Y-75565000D01*
X143116171Y-75991155D01*
X143357568Y-76352432D01*
X143718845Y-76593829D01*
X144037431Y-76657200D01*
X144760569Y-76657200D01*
X145079155Y-76593829D01*
X145440432Y-76352432D01*
X145681829Y-75991155D01*
X145766597Y-75565000D01*
X145681829Y-75138845D01*
X145440432Y-74777568D01*
X145079155Y-74536171D01*
X144760569Y-74472800D01*
X144037431Y-74472800D01*
X143718845Y-74536171D01*
X143357568Y-74777568D01*
X143116171Y-75138845D01*
X143031403Y-75565000D01*
X142697200Y-75565000D01*
X142697200Y-75203432D01*
X142633829Y-74884846D01*
X142392432Y-74523568D01*
X142094878Y-74324749D01*
X142503026Y-74102630D01*
X142847059Y-73676941D01*
X143002000Y-73152000D01*
X143002000Y-72898000D01*
X141732000Y-72898000D01*
X141732000Y-72918000D01*
X141478000Y-72918000D01*
X141478000Y-72898000D01*
X140208000Y-72898000D01*
X131378445Y-72898000D01*
X131886445Y-72390000D01*
X140208000Y-72390000D01*
X140208000Y-72644000D01*
X141478000Y-72644000D01*
X141478000Y-71285280D01*
X141732000Y-71285280D01*
X141732000Y-72644000D01*
X143002000Y-72644000D01*
X143002000Y-72390000D01*
X142847059Y-71865059D01*
X142503026Y-71439370D01*
X142022277Y-71177740D01*
X141948070Y-71162780D01*
X141732000Y-71285280D01*
X141478000Y-71285280D01*
X141261930Y-71162780D01*
X141187723Y-71177740D01*
X140706974Y-71439370D01*
X140362941Y-71865059D01*
X140208000Y-72390000D01*
X131886445Y-72390000D01*
X131962246Y-72314199D01*
X132283200Y-71539347D01*
X132283200Y-70700653D01*
X132193874Y-70485000D01*
X147588475Y-70485000D01*
X147732383Y-71208473D01*
X148142197Y-71821803D01*
X148755527Y-72231617D01*
X149296382Y-72339200D01*
X151693618Y-72339200D01*
X152234473Y-72231617D01*
X152847803Y-71821803D01*
X153257617Y-71208473D01*
X153401525Y-70485000D01*
X153257617Y-69761527D01*
X152847803Y-69148197D01*
X152234473Y-68738383D01*
X151693618Y-68630800D01*
X149296382Y-68630800D01*
X148755527Y-68738383D01*
X148142197Y-69148197D01*
X147732383Y-69761527D01*
X147588475Y-70485000D01*
X132193874Y-70485000D01*
X131962246Y-69925801D01*
X131369199Y-69332754D01*
X130594347Y-69011800D01*
X129755653Y-69011800D01*
X128980801Y-69332754D01*
X128387754Y-69925801D01*
X128066800Y-70700653D01*
X127622300Y-70700653D01*
X127622300Y-70653271D01*
X127549350Y-70286526D01*
X127271462Y-69870638D01*
X126855573Y-69592750D01*
X126365000Y-69495169D01*
X125874426Y-69592750D01*
X125458538Y-69870638D01*
X125180650Y-70286527D01*
X125107700Y-70653272D01*
X125082300Y-70653272D01*
X125082300Y-70653271D01*
X125009350Y-70286526D01*
X124731462Y-69870638D01*
X124315573Y-69592750D01*
X123825000Y-69495169D01*
X123334426Y-69592750D01*
X122918538Y-69870638D01*
X122640650Y-70286527D01*
X122567700Y-70653272D01*
X122542300Y-70653272D01*
X122542300Y-70653271D01*
X122469350Y-70286526D01*
X122191462Y-69870638D01*
X121775573Y-69592750D01*
X121285000Y-69495169D01*
X120794426Y-69592750D01*
X120378538Y-69870638D01*
X120100650Y-70286527D01*
X120027700Y-70653272D01*
X120002300Y-70653272D01*
X120002300Y-70653271D01*
X119929350Y-70286526D01*
X119651462Y-69870638D01*
X119235573Y-69592750D01*
X118745000Y-69495169D01*
X118254426Y-69592750D01*
X117838538Y-69870638D01*
X117560650Y-70286527D01*
X117487700Y-70653272D01*
X117462300Y-70653272D01*
X117462300Y-70653271D01*
X117389350Y-70286526D01*
X117111462Y-69870638D01*
X116695573Y-69592750D01*
X116205000Y-69495169D01*
X115714426Y-69592750D01*
X115298538Y-69870638D01*
X115020650Y-70286527D01*
X114947700Y-70653272D01*
X114922300Y-70653272D01*
X114922300Y-70653271D01*
X114849350Y-70286526D01*
X114571462Y-69870638D01*
X114155573Y-69592750D01*
X113665000Y-69495169D01*
X113174426Y-69592750D01*
X112758538Y-69870638D01*
X112480650Y-70286527D01*
X112407700Y-70653272D01*
X112382300Y-70653272D01*
X112382300Y-70653271D01*
X112309350Y-70286526D01*
X112031462Y-69870638D01*
X111615573Y-69592750D01*
X111125000Y-69495169D01*
X110634426Y-69592750D01*
X110218538Y-69870638D01*
X109940650Y-70286527D01*
X109867700Y-70653272D01*
X109842300Y-70653272D01*
X109842300Y-70653271D01*
X109769350Y-70286526D01*
X109491462Y-69870638D01*
X109075573Y-69592750D01*
X108585000Y-69495169D01*
X108094426Y-69592750D01*
X107678538Y-69870638D01*
X107400650Y-70286527D01*
X107327700Y-70653272D01*
X107302300Y-70653272D01*
X107302300Y-70653271D01*
X107229350Y-70286526D01*
X106951462Y-69870638D01*
X106535573Y-69592750D01*
X106045000Y-69495169D01*
X105554426Y-69592750D01*
X105138538Y-69870638D01*
X104860650Y-70286527D01*
X104787700Y-70653272D01*
X104762300Y-70653272D01*
X104762300Y-70653271D01*
X104689350Y-70286526D01*
X104411462Y-69870638D01*
X103995573Y-69592750D01*
X103505000Y-69495169D01*
X103014426Y-69592750D01*
X102598538Y-69870638D01*
X102320650Y-70286527D01*
X102261490Y-70583946D01*
X102222300Y-70576151D01*
X102207544Y-70579086D01*
X102149350Y-70286526D01*
X101871462Y-69870638D01*
X101455573Y-69592750D01*
X100965000Y-69495169D01*
X100474426Y-69592750D01*
X100058538Y-69870638D01*
X99780650Y-70286527D01*
X99707700Y-70653272D01*
X99682300Y-70653272D01*
X99682300Y-70653271D01*
X99609350Y-70286526D01*
X99331462Y-69870638D01*
X98915573Y-69592750D01*
X98425000Y-69495169D01*
X97934426Y-69592750D01*
X97518538Y-69870638D01*
X97240650Y-70286527D01*
X97167700Y-70653272D01*
X97142300Y-70653272D01*
X97142300Y-70653271D01*
X97069350Y-70286526D01*
X96791462Y-69870638D01*
X96375573Y-69592750D01*
X95885000Y-69495169D01*
X95394426Y-69592750D01*
X94978538Y-69870638D01*
X94700650Y-70286527D01*
X94627700Y-70653272D01*
X94602300Y-70653272D01*
X94602300Y-70653271D01*
X94529350Y-70286526D01*
X94251462Y-69870638D01*
X93835573Y-69592750D01*
X93345000Y-69495169D01*
X92854426Y-69592750D01*
X92438538Y-69870638D01*
X92232794Y-70178555D01*
X92199591Y-70061978D01*
X91819769Y-69582727D01*
X91285458Y-69285308D01*
X91173994Y-69259207D01*
X90932000Y-69379508D01*
X90678000Y-69379508D01*
X90436006Y-69259207D01*
X90324542Y-69285308D01*
X89790231Y-69582727D01*
X89528769Y-69912634D01*
X89528769Y-69850000D01*
X89503142Y-69721162D01*
X89430161Y-69611939D01*
X89320938Y-69538958D01*
X89192100Y-69513331D01*
X87337900Y-69513331D01*
X87209062Y-69538958D01*
X87099839Y-69611939D01*
X87026858Y-69721162D01*
X87001231Y-69850000D01*
X86169500Y-69850000D01*
X86169500Y-68389500D01*
X155765501Y-68389500D01*
X155765500Y-109410500D01*
G04 #@! TD*
M02*
