M48
;DRILL file {KiCad 6.0.0-rc1-unknown-d4e4359~66~ubuntu18.04.1} date Mon Sep 17 12:26:04 2018
;FORMAT={-:-/ absolute / metric / decimal}
FMAT,2
METRIC,TZ
T1C0.635
T2C0.889
T3C1.016
T4C1.092
T5C2.286
T6C3.302
%
G90
G05
M71
T1
X121.92Y-81.071
X124.169Y-81.867
X126.65Y-87.731
X128.048Y-83.247
X133.883Y-84.763
T2
X141.605Y-99.695
X141.605Y-102.235
X141.605Y-104.775
X144.145Y-102.235
X141.605Y-73.025
X141.605Y-75.565
X141.605Y-78.105
X144.145Y-75.565
T3
X107.315Y-80.01
X107.315Y-82.55
X107.315Y-85.09
X107.315Y-87.63
X107.315Y-92.71
X107.315Y-95.25
X107.315Y-97.79
T4
X88.265Y-71.12
X88.265Y-106.68
X90.805Y-71.12
X90.805Y-106.68
X93.345Y-71.12
X93.345Y-106.68
X95.885Y-71.12
X95.885Y-106.68
X98.425Y-71.12
X98.425Y-106.68
X100.965Y-71.12
X100.965Y-106.68
X103.505Y-71.12
X103.505Y-106.68
X106.045Y-71.12
X106.045Y-106.68
X108.585Y-71.12
X108.585Y-106.68
X111.125Y-71.12
X111.125Y-106.68
X113.665Y-71.12
X113.665Y-106.68
X116.205Y-71.12
X116.205Y-106.68
X118.745Y-71.12
X118.745Y-106.68
X121.285Y-71.12
X121.285Y-106.68
X123.825Y-71.12
X123.825Y-106.68
X126.365Y-71.12
X126.365Y-106.68
T5
X150.495Y-97.155
X150.495Y-107.315
X150.495Y-70.485
X150.495Y-80.645
T6
X89.535Y-76.2
X89.535Y-101.6
X130.175Y-71.12
X130.175Y-106.68
T0
M30
