G04 #@! TF.GenerationSoftware,KiCad,Pcbnew,6.0.0-rc1-unknown-d4e4359~66~ubuntu18.04.1*
G04 #@! TF.CreationDate,2018-09-17T12:26:01-04:00*
G04 #@! TF.ProjectId,dac_controller_3x2,6461635F636F6E74726F6C6C65725F33,1.0*
G04 #@! TF.SameCoordinates,Original*
G04 #@! TF.FileFunction,Copper,L2,Bot,Signal*
G04 #@! TF.FilePolarity,Positive*
%FSLAX46Y46*%
G04 Gerber Fmt 4.6, Leading zero omitted, Abs format (unit mm)*
G04 Created by KiCad (PCBNEW 6.0.0-rc1-unknown-d4e4359~66~ubuntu18.04.1) date Mon Sep 17 12:26:01 2018*
%MOMM*%
%LPD*%
G01*
G04 APERTURE LIST*
G04 #@! TA.AperFunction,NonConductor*
%ADD10C,0.228600*%
G04 #@! TD*
G04 #@! TA.AperFunction,ComponentPad*
%ADD11C,3.556000*%
G04 #@! TD*
G04 #@! TA.AperFunction,ComponentPad*
%ADD12O,1.854200X2.540000*%
G04 #@! TD*
G04 #@! TA.AperFunction,ComponentPad*
%ADD13R,1.854200X2.540000*%
G04 #@! TD*
G04 #@! TA.AperFunction,SMDPad,CuDef*
%ADD14R,2.540000X1.270000*%
G04 #@! TD*
G04 #@! TA.AperFunction,SMDPad,CuDef*
%ADD15R,1.270000X2.540000*%
G04 #@! TD*
G04 #@! TA.AperFunction,SMDPad,CuDef*
%ADD16R,0.355600X1.473200*%
G04 #@! TD*
G04 #@! TA.AperFunction,SMDPad,CuDef*
%ADD17R,5.029200X3.251200*%
G04 #@! TD*
G04 #@! TA.AperFunction,ComponentPad*
%ADD18O,5.080000X3.048000*%
G04 #@! TD*
G04 #@! TA.AperFunction,ComponentPad*
%ADD19O,2.032000X1.524000*%
G04 #@! TD*
G04 #@! TA.AperFunction,ComponentPad*
%ADD20O,1.524000X2.032000*%
G04 #@! TD*
G04 #@! TA.AperFunction,ComponentPad*
%ADD21O,2.540000X1.524000*%
G04 #@! TD*
G04 #@! TA.AperFunction,ComponentPad*
%ADD22R,2.540000X1.524000*%
G04 #@! TD*
G04 #@! TA.AperFunction,ViaPad*
%ADD23C,0.889000*%
G04 #@! TD*
G04 #@! TA.AperFunction,Conductor*
%ADD24C,0.406400*%
G04 #@! TD*
G04 #@! TA.AperFunction,Conductor*
%ADD25C,0.254000*%
G04 #@! TD*
G04 APERTURE END LIST*
D10*
X156210000Y-67945000D02*
X85725000Y-67945000D01*
X156210000Y-109855000D02*
X156210000Y-67945000D01*
X85725000Y-109855000D02*
X156210000Y-109855000D01*
X85725000Y-67945000D02*
X85725000Y-109855000D01*
D11*
G04 #@! TO.P,MDB1,*
G04 #@! TO.N,*
X130175000Y-71120000D03*
X130175000Y-106680000D03*
X89535000Y-101600000D03*
X89535000Y-76200000D03*
D12*
G04 #@! TO.P,MDB1,AREF*
G04 #@! TO.N,N/C*
X88265000Y-106680000D03*
G04 #@! TO.P,MDB1,VEE*
G04 #@! TO.N,VEE*
X90805000Y-106680000D03*
G04 #@! TO.P,MDB1,AGND*
G04 #@! TO.N,N/C*
X93345000Y-106680000D03*
G04 #@! TO.P,MDB1,3V3*
X95885000Y-106680000D03*
G04 #@! TO.P,MDB1,23*
X98425000Y-106680000D03*
G04 #@! TO.P,MDB1,22*
X100965000Y-106680000D03*
G04 #@! TO.P,MDB1,21*
X103505000Y-106680000D03*
G04 #@! TO.P,MDB1,20*
X106045000Y-106680000D03*
G04 #@! TO.P,MDB1,19*
X108585000Y-106680000D03*
G04 #@! TO.P,MDB1,18*
X111125000Y-106680000D03*
G04 #@! TO.P,MDB1,17*
X113665000Y-106680000D03*
G04 #@! TO.P,MDB1,16*
X116205000Y-106680000D03*
G04 #@! TO.P,MDB1,15*
X118745000Y-106680000D03*
G04 #@! TO.P,MDB1,14*
X121285000Y-106680000D03*
G04 #@! TO.P,MDB1,13*
G04 #@! TO.N,/SCK*
X123825000Y-106680000D03*
G04 #@! TO.P,MDB1,DAC*
G04 #@! TO.N,N/C*
X126365000Y-106680000D03*
G04 #@! TO.P,MDB1,28*
X126365000Y-71120000D03*
G04 #@! TO.P,MDB1,12*
G04 #@! TO.N,/MISO*
X123825000Y-71120000D03*
G04 #@! TO.P,MDB1,11*
G04 #@! TO.N,/MOSI*
X121285000Y-71120000D03*
G04 #@! TO.P,MDB1,10*
G04 #@! TO.N,/CS*
X118745000Y-71120000D03*
G04 #@! TO.P,MDB1,9*
G04 #@! TO.N,N/C*
X116205000Y-71120000D03*
G04 #@! TO.P,MDB1,29*
X113665000Y-71120000D03*
G04 #@! TO.P,MDB1,30*
X111125000Y-71120000D03*
G04 #@! TO.P,MDB1,6*
X108585000Y-71120000D03*
G04 #@! TO.P,MDB1,5*
X106045000Y-71120000D03*
G04 #@! TO.P,MDB1,4*
G04 #@! TO.N,/CLR*
X103505000Y-71120000D03*
G04 #@! TO.P,MDB1,3*
G04 #@! TO.N,/LDAC*
X100965000Y-71120000D03*
G04 #@! TO.P,MDB1,2*
G04 #@! TO.N,N/C*
X98425000Y-71120000D03*
G04 #@! TO.P,MDB1,25*
X95885000Y-71120000D03*
D13*
G04 #@! TO.P,MDB1,VDD*
G04 #@! TO.N,VDD*
X88265000Y-71120000D03*
D12*
G04 #@! TO.P,MDB1,24*
G04 #@! TO.N,N/C*
X93345000Y-71120000D03*
G04 #@! TO.P,MDB1,GND*
G04 #@! TO.N,GND*
X90805000Y-71120000D03*
G04 #@! TD*
D14*
G04 #@! TO.P,C1,1*
G04 #@! TO.N,VDD*
X102235000Y-94996000D03*
G04 #@! TO.P,C1,2*
G04 #@! TO.N,GND*
X102235000Y-98044000D03*
G04 #@! TD*
D15*
G04 #@! TO.P,C2,2*
G04 #@! TO.N,GND*
X131699000Y-81280000D03*
G04 #@! TO.P,C2,1*
G04 #@! TO.N,VEE*
X128651000Y-81280000D03*
G04 #@! TD*
D14*
G04 #@! TO.P,C3,1*
G04 #@! TO.N,VDDA*
X111760000Y-86614000D03*
G04 #@! TO.P,C3,2*
G04 #@! TO.N,GND*
X111760000Y-83566000D03*
G04 #@! TD*
G04 #@! TO.P,C4,2*
G04 #@! TO.N,GND*
X118110000Y-83566000D03*
G04 #@! TO.P,C4,1*
G04 #@! TO.N,VDDA*
X118110000Y-86614000D03*
G04 #@! TD*
G04 #@! TO.P,C5,1*
G04 #@! TO.N,VSSA*
X111760000Y-78486000D03*
G04 #@! TO.P,C5,2*
G04 #@! TO.N,GND*
X111760000Y-81534000D03*
G04 #@! TD*
G04 #@! TO.P,C6,2*
G04 #@! TO.N,GND*
X118110000Y-81534000D03*
G04 #@! TO.P,C6,1*
G04 #@! TO.N,VSSA*
X118110000Y-78486000D03*
G04 #@! TD*
D16*
G04 #@! TO.P,D1,1*
G04 #@! TO.N,VSSA*
X133749999Y-91719400D03*
G04 #@! TO.P,D1,2*
G04 #@! TO.N,N/C*
X133100000Y-91719400D03*
G04 #@! TO.P,D1,3*
G04 #@! TO.N,/dac_3x2/DAC_0*
X132450002Y-91719400D03*
G04 #@! TO.P,D1,4*
G04 #@! TO.N,/dac_3x2/DAC_1*
X131800001Y-91719400D03*
G04 #@! TO.P,D1,5*
G04 #@! TO.N,GND*
X131150002Y-91719400D03*
G04 #@! TO.P,D1,6*
G04 #@! TO.N,N/C*
X130500001Y-91719400D03*
G04 #@! TO.P,D1,7*
G04 #@! TO.N,/CS*
X129850002Y-91719400D03*
G04 #@! TO.P,D1,8*
G04 #@! TO.N,/SCK*
X129200001Y-91719400D03*
G04 #@! TO.P,D1,9*
G04 #@! TO.N,/MOSI*
X128550002Y-91719400D03*
G04 #@! TO.P,D1,10*
G04 #@! TO.N,/LDAC*
X127900001Y-91719400D03*
G04 #@! TO.P,D1,11*
G04 #@! TO.N,/CLR*
X127250002Y-91719400D03*
G04 #@! TO.P,D1,12*
G04 #@! TO.N,N/C*
X126600001Y-91719400D03*
G04 #@! TO.P,D1,13*
X126600001Y-86080600D03*
G04 #@! TO.P,D1,14*
G04 #@! TO.N,VEE*
X127250000Y-86080600D03*
G04 #@! TO.P,D1,15*
G04 #@! TO.N,GND*
X127900001Y-86080600D03*
G04 #@! TO.P,D1,16*
G04 #@! TO.N,/MISO*
X128549999Y-86080600D03*
G04 #@! TO.P,D1,17*
G04 #@! TO.N,N/C*
X129200001Y-86080600D03*
G04 #@! TO.P,D1,18*
G04 #@! TO.N,GND*
X129849999Y-86080600D03*
G04 #@! TO.P,D1,19*
X130499998Y-86080600D03*
G04 #@! TO.P,D1,20*
X131149999Y-86080600D03*
G04 #@! TO.P,D1,21*
X131799998Y-86080600D03*
G04 #@! TO.P,D1,22*
G04 #@! TO.N,/dac_3x2/DAC_3*
X132449999Y-86080600D03*
G04 #@! TO.P,D1,23*
G04 #@! TO.N,/dac_3x2/DAC_2*
X133099998Y-86080600D03*
G04 #@! TO.P,D1,24*
G04 #@! TO.N,VDDA*
X133749999Y-86080600D03*
D17*
G04 #@! TO.P,D1,25*
G04 #@! TO.N,VSSA*
X130175000Y-88900000D03*
G04 #@! TD*
D18*
G04 #@! TO.P,P1,*
G04 #@! TO.N,*
X150495000Y-97155000D03*
X150495000Y-107315000D03*
D19*
G04 #@! TO.P,P1,1*
G04 #@! TO.N,/dac_3x2/DAC_0*
X144399000Y-102235000D03*
D20*
G04 #@! TO.P,P1,3*
G04 #@! TO.N,/dac_3x2/DAC_1*
X141605000Y-102235000D03*
G04 #@! TO.P,P1,2*
G04 #@! TO.N,GND*
X141605000Y-105029000D03*
G04 #@! TO.P,P1,4*
X141605000Y-99441000D03*
G04 #@! TD*
G04 #@! TO.P,P2,4*
G04 #@! TO.N,GND*
X141605000Y-72771000D03*
G04 #@! TO.P,P2,2*
X141605000Y-78359000D03*
G04 #@! TO.P,P2,3*
G04 #@! TO.N,/dac_3x2/DAC_3*
X141605000Y-75565000D03*
D19*
G04 #@! TO.P,P2,1*
G04 #@! TO.N,/dac_3x2/DAC_2*
X144399000Y-75565000D03*
D18*
G04 #@! TO.P,P2,*
G04 #@! TO.N,*
X150495000Y-80645000D03*
X150495000Y-70485000D03*
G04 #@! TD*
D21*
G04 #@! TO.P,REG1,2*
G04 #@! TO.N,VDD*
X107315000Y-95250000D03*
G04 #@! TO.P,REG1,3*
G04 #@! TO.N,N/C*
X107315000Y-92710000D03*
D22*
G04 #@! TO.P,REG1,1*
G04 #@! TO.N,GND*
X107315000Y-97790000D03*
D21*
G04 #@! TO.P,REG1,5*
G04 #@! TO.N,N/C*
X107315000Y-87630000D03*
G04 #@! TO.P,REG1,6*
G04 #@! TO.N,VDDA*
X107315000Y-85090000D03*
G04 #@! TO.P,REG1,7*
G04 #@! TO.N,GND*
X107315000Y-82550000D03*
G04 #@! TO.P,REG1,8*
G04 #@! TO.N,VSSA*
X107315000Y-80010000D03*
G04 #@! TD*
D23*
G04 #@! TO.N,GND*
X128048100Y-83247000D03*
G04 #@! TO.N,VEE*
X126650500Y-87731300D03*
G04 #@! TO.N,VDDA*
X133882700Y-84763500D03*
G04 #@! TO.N,VSSA*
X124168600Y-81866700D03*
G04 #@! TO.N,/LDAC*
X121920000Y-81070700D03*
G04 #@! TD*
D24*
G04 #@! TO.N,VDD*
X88265000Y-71120000D02*
X88265000Y-72720200D01*
X102589600Y-94996000D02*
X87404600Y-79811000D01*
X87404600Y-79811000D02*
X87404600Y-73580600D01*
X87404600Y-73580600D02*
X88265000Y-72720200D01*
X102803200Y-94996000D02*
X103835200Y-94996000D01*
X102235000Y-94996000D02*
X102589600Y-94996000D01*
X102803200Y-94996000D02*
X102589600Y-94996000D01*
X107315000Y-95250000D02*
X104089200Y-95250000D01*
X104089200Y-95250000D02*
X103835200Y-94996000D01*
G04 #@! TO.N,GND*
X141605000Y-104775000D02*
X141605000Y-103682800D01*
X141605000Y-103682800D02*
X141195400Y-103682800D01*
X141195400Y-103682800D02*
X131150000Y-93637400D01*
X131150000Y-93637400D02*
X131150000Y-91719400D01*
X105714800Y-82550000D02*
X100634800Y-82550000D01*
X100634800Y-82550000D02*
X90805000Y-72720200D01*
X105714800Y-82550000D02*
X105714800Y-88055400D01*
X105714800Y-88055400D02*
X108915100Y-91255700D01*
X108915100Y-91255700D02*
X108915100Y-97790000D01*
X90805000Y-71120000D02*
X90805000Y-72720200D01*
X107315000Y-97790000D02*
X108915100Y-97790000D01*
X107315000Y-82550000D02*
X105714800Y-82550000D01*
X111760000Y-82550000D02*
X107315000Y-82550000D01*
X102235000Y-98044000D02*
X103835200Y-98044000D01*
X107315000Y-97790000D02*
X104089200Y-97790000D01*
X104089200Y-97790000D02*
X103835200Y-98044000D01*
X127900000Y-86080600D02*
X127900000Y-83395100D01*
X127900000Y-83395100D02*
X128048100Y-83247000D01*
X131699000Y-81280000D02*
X132664200Y-81280000D01*
X141605000Y-73025000D02*
X140512800Y-73025000D01*
X140512800Y-73025000D02*
X132664200Y-80873600D01*
X132664200Y-80873600D02*
X132664200Y-81280000D01*
X111760000Y-82550000D02*
X118110000Y-82550000D01*
X131699000Y-81280000D02*
X131699000Y-82880200D01*
X131475000Y-86080600D02*
X131475000Y-83104200D01*
X131475000Y-83104200D02*
X131699000Y-82880200D01*
X131475000Y-86080600D02*
X131800000Y-86080600D01*
X131150000Y-86080600D02*
X131475000Y-86080600D01*
X130500000Y-86080600D02*
X131150000Y-86080600D01*
X129850000Y-86080600D02*
X130500000Y-86080600D01*
X118110000Y-82550000D02*
X118110000Y-83566000D01*
X111760000Y-81534000D02*
X111760000Y-82550000D01*
X111760000Y-82550000D02*
X111760000Y-83566000D01*
X118110000Y-81534000D02*
X118110000Y-82550000D01*
G04 #@! TO.N,VEE*
X127250000Y-86080600D02*
X127250000Y-87147400D01*
X127250000Y-87147400D02*
X127234400Y-87147400D01*
X127234400Y-87147400D02*
X126650500Y-87731300D01*
X127685800Y-81280000D02*
X127250000Y-81715800D01*
X127250000Y-81715800D02*
X127250000Y-86080600D01*
X128651000Y-81280000D02*
X127685800Y-81280000D01*
G04 #@! TO.N,VDDA*
X114935000Y-86614000D02*
X113411000Y-85090000D01*
X113411000Y-85090000D02*
X107315000Y-85090000D01*
X114935000Y-86614000D02*
X118110000Y-86614000D01*
X111760000Y-86614000D02*
X114935000Y-86614000D01*
X133750000Y-85013800D02*
X133882700Y-84881100D01*
X133882700Y-84881100D02*
X133882700Y-84763500D01*
X133750000Y-86080600D02*
X133750000Y-85013800D01*
G04 #@! TO.N,VSSA*
X124168600Y-81866700D02*
X124168600Y-86343100D01*
X124168600Y-86343100D02*
X126725500Y-88900000D01*
X126725500Y-88900000D02*
X130175000Y-88900000D01*
X130175000Y-88900000D02*
X133019800Y-88900000D01*
X133019800Y-88900000D02*
X133750000Y-89630200D01*
X133750000Y-89630200D02*
X133750000Y-91719400D01*
X111760000Y-78486000D02*
X118110000Y-78486000D01*
X111760000Y-78486000D02*
X110159800Y-78486000D01*
X107315000Y-80010000D02*
X108915200Y-80010000D01*
X110159800Y-78486000D02*
X110159800Y-78765400D01*
X110159800Y-78765400D02*
X108915200Y-80010000D01*
G04 #@! TO.N,/dac_3x2/DAC_0*
X144145000Y-102235000D02*
X143052800Y-102235000D01*
X143052800Y-102235000D02*
X143052800Y-101825400D01*
X143052800Y-101825400D02*
X142065400Y-100838000D01*
X142065400Y-100838000D02*
X140820200Y-100838000D01*
X140820200Y-100838000D02*
X132450000Y-92467800D01*
X132450000Y-92467800D02*
X132450000Y-91719400D01*
G04 #@! TO.N,/dac_3x2/DAC_1*
X141605000Y-102235000D02*
X140512800Y-102235000D01*
X131800000Y-91719400D02*
X131800000Y-92786200D01*
X131800000Y-92786200D02*
X140512800Y-101499000D01*
X140512800Y-101499000D02*
X140512800Y-102235000D01*
G04 #@! TO.N,/CS*
X118745000Y-71120000D02*
X120002300Y-71120000D01*
X129850000Y-91719400D02*
X129850000Y-102462200D01*
X129850000Y-102462200D02*
X127844600Y-104467600D01*
X127844600Y-104467600D02*
X127844600Y-107341100D01*
X127844600Y-107341100D02*
X126894600Y-108291100D01*
X126894600Y-108291100D02*
X123317000Y-108291100D01*
X123317000Y-108291100D02*
X122555000Y-107529100D01*
X122555000Y-107529100D02*
X122555000Y-92325600D01*
X122555000Y-92325600D02*
X120002300Y-89772900D01*
X120002300Y-89772900D02*
X120002300Y-71120000D01*
G04 #@! TO.N,/SCK*
X123825000Y-106680000D02*
X125082300Y-106680000D01*
X129200000Y-91719400D02*
X129200000Y-101305000D01*
X129200000Y-101305000D02*
X125082300Y-105422700D01*
X125082300Y-105422700D02*
X125082300Y-106680000D01*
G04 #@! TO.N,/MOSI*
X121285000Y-72720200D02*
X121170400Y-72834800D01*
X121170400Y-72834800D02*
X121170400Y-88399800D01*
X121170400Y-88399800D02*
X126065100Y-93294500D01*
X126065100Y-93294500D02*
X128041700Y-93294500D01*
X128041700Y-93294500D02*
X128550000Y-92786200D01*
X121285000Y-71120000D02*
X121285000Y-72720200D01*
X128550000Y-91719400D02*
X128550000Y-92786200D01*
G04 #@! TO.N,/LDAC*
X127900000Y-91719400D02*
X127900000Y-92419500D01*
X127900000Y-92419500D02*
X127533300Y-92786200D01*
X127533300Y-92786200D02*
X126275700Y-92786200D01*
X126275700Y-92786200D02*
X121920000Y-88430500D01*
X121920000Y-88430500D02*
X121920000Y-81070700D01*
G04 #@! TO.N,/CLR*
X103505000Y-71120000D02*
X104762300Y-71120000D01*
X127250000Y-91719400D02*
X127250000Y-90652600D01*
X127250000Y-90652600D02*
X122739100Y-86141700D01*
X122739100Y-86141700D02*
X122739100Y-76728900D01*
X122739100Y-76728900D02*
X122555000Y-76544800D01*
X122555000Y-76544800D02*
X122555000Y-70289100D01*
X122555000Y-70289100D02*
X121803600Y-69537700D01*
X121803600Y-69537700D02*
X105480700Y-69537700D01*
X105480700Y-69537700D02*
X104762300Y-70256100D01*
X104762300Y-70256100D02*
X104762300Y-71120000D01*
G04 #@! TO.N,/MISO*
X123825000Y-71120000D02*
X125082300Y-71120000D01*
X128550000Y-86080600D02*
X128550000Y-85013800D01*
X128550000Y-85013800D02*
X129591200Y-83972600D01*
X129591200Y-83972600D02*
X129591200Y-76886200D01*
X129591200Y-76886200D02*
X125082300Y-72377300D01*
X125082300Y-72377300D02*
X125082300Y-71120000D01*
G04 #@! TO.N,/dac_3x2/DAC_3*
X141605000Y-75565000D02*
X140512800Y-75565000D01*
X140512800Y-75565000D02*
X132450000Y-83627800D01*
X132450000Y-83627800D02*
X132450000Y-86080600D01*
G04 #@! TO.N,/dac_3x2/DAC_2*
X143052800Y-75565000D02*
X143052800Y-75974600D01*
X143052800Y-75974600D02*
X142065400Y-76962000D01*
X142065400Y-76962000D02*
X140587200Y-76962000D01*
X140587200Y-76962000D02*
X133100000Y-84449200D01*
X133100000Y-84449200D02*
X133100000Y-85013800D01*
X133100000Y-86080600D02*
X133100000Y-85013800D01*
X144145000Y-75565000D02*
X143052800Y-75565000D01*
G04 #@! TD*
D25*
G04 #@! TO.N,GND*
G36*
X155765500Y-109410500D02*
X86169500Y-109410500D01*
X86169500Y-106213272D01*
X87007700Y-106213272D01*
X87007700Y-107146729D01*
X87080650Y-107513474D01*
X87358539Y-107929362D01*
X87774427Y-108207250D01*
X88265000Y-108304831D01*
X88755574Y-108207250D01*
X89171462Y-107929362D01*
X89449350Y-107513474D01*
X89522300Y-107146728D01*
X89522300Y-106213272D01*
X89547700Y-106213272D01*
X89547700Y-107146729D01*
X89620650Y-107513474D01*
X89898539Y-107929362D01*
X90314427Y-108207250D01*
X90805000Y-108304831D01*
X91295574Y-108207250D01*
X91711462Y-107929362D01*
X91989350Y-107513474D01*
X92062300Y-107146728D01*
X92062300Y-106213272D01*
X92087700Y-106213272D01*
X92087700Y-107146729D01*
X92160650Y-107513474D01*
X92438539Y-107929362D01*
X92854427Y-108207250D01*
X93345000Y-108304831D01*
X93835574Y-108207250D01*
X94251462Y-107929362D01*
X94529350Y-107513474D01*
X94602300Y-107146728D01*
X94602300Y-106213272D01*
X94627700Y-106213272D01*
X94627700Y-107146729D01*
X94700650Y-107513474D01*
X94978539Y-107929362D01*
X95394427Y-108207250D01*
X95885000Y-108304831D01*
X96375574Y-108207250D01*
X96791462Y-107929362D01*
X97069350Y-107513474D01*
X97142300Y-107146728D01*
X97142300Y-106213272D01*
X97167700Y-106213272D01*
X97167700Y-107146729D01*
X97240650Y-107513474D01*
X97518539Y-107929362D01*
X97934427Y-108207250D01*
X98425000Y-108304831D01*
X98915574Y-108207250D01*
X99331462Y-107929362D01*
X99609350Y-107513474D01*
X99682300Y-107146728D01*
X99682300Y-106213272D01*
X99707700Y-106213272D01*
X99707700Y-107146729D01*
X99780650Y-107513474D01*
X100058539Y-107929362D01*
X100474427Y-108207250D01*
X100965000Y-108304831D01*
X101455574Y-108207250D01*
X101871462Y-107929362D01*
X102149350Y-107513474D01*
X102222300Y-107146728D01*
X102222300Y-106213272D01*
X102247700Y-106213272D01*
X102247700Y-107146729D01*
X102320650Y-107513474D01*
X102598539Y-107929362D01*
X103014427Y-108207250D01*
X103505000Y-108304831D01*
X103995574Y-108207250D01*
X104411462Y-107929362D01*
X104689350Y-107513474D01*
X104762300Y-107146728D01*
X104762300Y-106213272D01*
X104787700Y-106213272D01*
X104787700Y-107146729D01*
X104860650Y-107513474D01*
X105138539Y-107929362D01*
X105554427Y-108207250D01*
X106045000Y-108304831D01*
X106535574Y-108207250D01*
X106951462Y-107929362D01*
X107229350Y-107513474D01*
X107302300Y-107146728D01*
X107302300Y-106213272D01*
X107327700Y-106213272D01*
X107327700Y-107146729D01*
X107400650Y-107513474D01*
X107678539Y-107929362D01*
X108094427Y-108207250D01*
X108585000Y-108304831D01*
X109075574Y-108207250D01*
X109491462Y-107929362D01*
X109769350Y-107513474D01*
X109842300Y-107146728D01*
X109842300Y-106213272D01*
X109867700Y-106213272D01*
X109867700Y-107146729D01*
X109940650Y-107513474D01*
X110218539Y-107929362D01*
X110634427Y-108207250D01*
X111125000Y-108304831D01*
X111615574Y-108207250D01*
X112031462Y-107929362D01*
X112309350Y-107513474D01*
X112382300Y-107146728D01*
X112382300Y-106213272D01*
X112407700Y-106213272D01*
X112407700Y-107146729D01*
X112480650Y-107513474D01*
X112758539Y-107929362D01*
X113174427Y-108207250D01*
X113665000Y-108304831D01*
X114155574Y-108207250D01*
X114571462Y-107929362D01*
X114849350Y-107513474D01*
X114922300Y-107146728D01*
X114922300Y-106213272D01*
X114947700Y-106213272D01*
X114947700Y-107146729D01*
X115020650Y-107513474D01*
X115298539Y-107929362D01*
X115714427Y-108207250D01*
X116205000Y-108304831D01*
X116695574Y-108207250D01*
X117111462Y-107929362D01*
X117389350Y-107513474D01*
X117462300Y-107146728D01*
X117462300Y-106213272D01*
X117487700Y-106213272D01*
X117487700Y-107146729D01*
X117560650Y-107513474D01*
X117838539Y-107929362D01*
X118254427Y-108207250D01*
X118745000Y-108304831D01*
X119235574Y-108207250D01*
X119651462Y-107929362D01*
X119929350Y-107513474D01*
X120002300Y-107146728D01*
X120002300Y-106213271D01*
X119929350Y-105846526D01*
X119651462Y-105430638D01*
X119235573Y-105152750D01*
X118745000Y-105055169D01*
X118254426Y-105152750D01*
X117838538Y-105430638D01*
X117560650Y-105846527D01*
X117487700Y-106213272D01*
X117462300Y-106213272D01*
X117462300Y-106213271D01*
X117389350Y-105846526D01*
X117111462Y-105430638D01*
X116695573Y-105152750D01*
X116205000Y-105055169D01*
X115714426Y-105152750D01*
X115298538Y-105430638D01*
X115020650Y-105846527D01*
X114947700Y-106213272D01*
X114922300Y-106213272D01*
X114922300Y-106213271D01*
X114849350Y-105846526D01*
X114571462Y-105430638D01*
X114155573Y-105152750D01*
X113665000Y-105055169D01*
X113174426Y-105152750D01*
X112758538Y-105430638D01*
X112480650Y-105846527D01*
X112407700Y-106213272D01*
X112382300Y-106213272D01*
X112382300Y-106213271D01*
X112309350Y-105846526D01*
X112031462Y-105430638D01*
X111615573Y-105152750D01*
X111125000Y-105055169D01*
X110634426Y-105152750D01*
X110218538Y-105430638D01*
X109940650Y-105846527D01*
X109867700Y-106213272D01*
X109842300Y-106213272D01*
X109842300Y-106213271D01*
X109769350Y-105846526D01*
X109491462Y-105430638D01*
X109075573Y-105152750D01*
X108585000Y-105055169D01*
X108094426Y-105152750D01*
X107678538Y-105430638D01*
X107400650Y-105846527D01*
X107327700Y-106213272D01*
X107302300Y-106213272D01*
X107302300Y-106213271D01*
X107229350Y-105846526D01*
X106951462Y-105430638D01*
X106535573Y-105152750D01*
X106045000Y-105055169D01*
X105554426Y-105152750D01*
X105138538Y-105430638D01*
X104860650Y-105846527D01*
X104787700Y-106213272D01*
X104762300Y-106213272D01*
X104762300Y-106213271D01*
X104689350Y-105846526D01*
X104411462Y-105430638D01*
X103995573Y-105152750D01*
X103505000Y-105055169D01*
X103014426Y-105152750D01*
X102598538Y-105430638D01*
X102320650Y-105846527D01*
X102247700Y-106213272D01*
X102222300Y-106213272D01*
X102222300Y-106213271D01*
X102149350Y-105846526D01*
X101871462Y-105430638D01*
X101455573Y-105152750D01*
X100965000Y-105055169D01*
X100474426Y-105152750D01*
X100058538Y-105430638D01*
X99780650Y-105846527D01*
X99707700Y-106213272D01*
X99682300Y-106213272D01*
X99682300Y-106213271D01*
X99609350Y-105846526D01*
X99331462Y-105430638D01*
X98915573Y-105152750D01*
X98425000Y-105055169D01*
X97934426Y-105152750D01*
X97518538Y-105430638D01*
X97240650Y-105846527D01*
X97167700Y-106213272D01*
X97142300Y-106213272D01*
X97142300Y-106213271D01*
X97069350Y-105846526D01*
X96791462Y-105430638D01*
X96375573Y-105152750D01*
X95885000Y-105055169D01*
X95394426Y-105152750D01*
X94978538Y-105430638D01*
X94700650Y-105846527D01*
X94627700Y-106213272D01*
X94602300Y-106213272D01*
X94602300Y-106213271D01*
X94529350Y-105846526D01*
X94251462Y-105430638D01*
X93835573Y-105152750D01*
X93345000Y-105055169D01*
X92854426Y-105152750D01*
X92438538Y-105430638D01*
X92160650Y-105846527D01*
X92087700Y-106213272D01*
X92062300Y-106213272D01*
X92062300Y-106213271D01*
X91989350Y-105846526D01*
X91711462Y-105430638D01*
X91295573Y-105152750D01*
X90805000Y-105055169D01*
X90314426Y-105152750D01*
X89898538Y-105430638D01*
X89620650Y-105846527D01*
X89547700Y-106213272D01*
X89522300Y-106213272D01*
X89522300Y-106213271D01*
X89449350Y-105846526D01*
X89171462Y-105430638D01*
X88755573Y-105152750D01*
X88265000Y-105055169D01*
X87774426Y-105152750D01*
X87358538Y-105430638D01*
X87080650Y-105846527D01*
X87007700Y-106213272D01*
X86169500Y-106213272D01*
X86169500Y-101180653D01*
X87426800Y-101180653D01*
X87426800Y-102019347D01*
X87747754Y-102794199D01*
X88340801Y-103387246D01*
X89115653Y-103708200D01*
X89954347Y-103708200D01*
X90729199Y-103387246D01*
X91322246Y-102794199D01*
X91643200Y-102019347D01*
X91643200Y-101180653D01*
X91322246Y-100405801D01*
X90729199Y-99812754D01*
X89954347Y-99491800D01*
X89115653Y-99491800D01*
X88340801Y-99812754D01*
X87747754Y-100405801D01*
X87426800Y-101180653D01*
X86169500Y-101180653D01*
X86169500Y-98329750D01*
X100330000Y-98329750D01*
X100330000Y-98805309D01*
X100426673Y-99038698D01*
X100605301Y-99217327D01*
X100838690Y-99314000D01*
X101949250Y-99314000D01*
X102108000Y-99155250D01*
X102108000Y-98171000D01*
X102362000Y-98171000D01*
X102362000Y-99155250D01*
X102520750Y-99314000D01*
X103631310Y-99314000D01*
X103864699Y-99217327D01*
X104043327Y-99038698D01*
X104140000Y-98805309D01*
X104140000Y-98329750D01*
X103981250Y-98171000D01*
X102362000Y-98171000D01*
X102108000Y-98171000D01*
X100488750Y-98171000D01*
X100330000Y-98329750D01*
X86169500Y-98329750D01*
X86169500Y-98075750D01*
X105410000Y-98075750D01*
X105410000Y-98678309D01*
X105506673Y-98911698D01*
X105685301Y-99090327D01*
X105918690Y-99187000D01*
X107029250Y-99187000D01*
X107188000Y-99028250D01*
X107188000Y-97917000D01*
X107442000Y-97917000D01*
X107442000Y-99028250D01*
X107600750Y-99187000D01*
X108711310Y-99187000D01*
X108944699Y-99090327D01*
X109123327Y-98911698D01*
X109220000Y-98678309D01*
X109220000Y-98075750D01*
X109061250Y-97917000D01*
X107442000Y-97917000D01*
X107188000Y-97917000D01*
X105568750Y-97917000D01*
X105410000Y-98075750D01*
X86169500Y-98075750D01*
X86169500Y-97282691D01*
X100330000Y-97282691D01*
X100330000Y-97758250D01*
X100488750Y-97917000D01*
X102108000Y-97917000D01*
X102108000Y-96932750D01*
X102362000Y-96932750D01*
X102362000Y-97917000D01*
X103981250Y-97917000D01*
X104140000Y-97758250D01*
X104140000Y-97282691D01*
X104043327Y-97049302D01*
X103895717Y-96901691D01*
X105410000Y-96901691D01*
X105410000Y-97504250D01*
X105568750Y-97663000D01*
X107188000Y-97663000D01*
X107188000Y-96551750D01*
X107442000Y-96551750D01*
X107442000Y-97663000D01*
X109061250Y-97663000D01*
X109220000Y-97504250D01*
X109220000Y-96901691D01*
X109123327Y-96668302D01*
X108944699Y-96489673D01*
X108711310Y-96393000D01*
X107600750Y-96393000D01*
X107442000Y-96551750D01*
X107188000Y-96551750D01*
X107029250Y-96393000D01*
X105918690Y-96393000D01*
X105685301Y-96489673D01*
X105506673Y-96668302D01*
X105410000Y-96901691D01*
X103895717Y-96901691D01*
X103864699Y-96870673D01*
X103631310Y-96774000D01*
X102520750Y-96774000D01*
X102362000Y-96932750D01*
X102108000Y-96932750D01*
X101949250Y-96774000D01*
X100838690Y-96774000D01*
X100605301Y-96870673D01*
X100426673Y-97049302D01*
X100330000Y-97282691D01*
X86169500Y-97282691D01*
X86169500Y-73580600D01*
X86860752Y-73580600D01*
X86871201Y-73633131D01*
X86871200Y-79758474D01*
X86860752Y-79811000D01*
X86871200Y-79863526D01*
X86871200Y-79863530D01*
X86902149Y-80019121D01*
X87020041Y-80195559D01*
X87064577Y-80225317D01*
X100880415Y-94041156D01*
X100836162Y-94049958D01*
X100726939Y-94122939D01*
X100653958Y-94232162D01*
X100628331Y-94361000D01*
X100628331Y-95631000D01*
X100653958Y-95759838D01*
X100726939Y-95869061D01*
X100836162Y-95942042D01*
X100965000Y-95967669D01*
X103505000Y-95967669D01*
X103633838Y-95942042D01*
X103743061Y-95869061D01*
X103816042Y-95759838D01*
X103824969Y-95714960D01*
X103881078Y-95752451D01*
X104036669Y-95783400D01*
X104036673Y-95783400D01*
X104089199Y-95793848D01*
X104141725Y-95783400D01*
X105849830Y-95783400D01*
X106019568Y-96037432D01*
X106380845Y-96278829D01*
X106699431Y-96342200D01*
X107930569Y-96342200D01*
X108249155Y-96278829D01*
X108610432Y-96037432D01*
X108851829Y-95676155D01*
X108936597Y-95250000D01*
X108851829Y-94823845D01*
X108610432Y-94462568D01*
X108249155Y-94221171D01*
X107930569Y-94157800D01*
X106699431Y-94157800D01*
X106380845Y-94221171D01*
X106019568Y-94462568D01*
X105849830Y-94716600D01*
X104310140Y-94716600D01*
X104249517Y-94655977D01*
X104219759Y-94611441D01*
X104043322Y-94493549D01*
X103887731Y-94462600D01*
X103887726Y-94462600D01*
X103841669Y-94453439D01*
X103841669Y-94361000D01*
X103816042Y-94232162D01*
X103743061Y-94122939D01*
X103633838Y-94049958D01*
X103505000Y-94024331D01*
X102372272Y-94024331D01*
X101057941Y-92710000D01*
X105693403Y-92710000D01*
X105778171Y-93136155D01*
X106019568Y-93497432D01*
X106380845Y-93738829D01*
X106699431Y-93802200D01*
X107930569Y-93802200D01*
X108249155Y-93738829D01*
X108610432Y-93497432D01*
X108851829Y-93136155D01*
X108936597Y-92710000D01*
X108851829Y-92283845D01*
X108610432Y-91922568D01*
X108249155Y-91681171D01*
X107930569Y-91617800D01*
X106699431Y-91617800D01*
X106380845Y-91681171D01*
X106019568Y-91922568D01*
X105778171Y-92283845D01*
X105693403Y-92710000D01*
X101057941Y-92710000D01*
X95977941Y-87630000D01*
X105693403Y-87630000D01*
X105778171Y-88056155D01*
X106019568Y-88417432D01*
X106380845Y-88658829D01*
X106699431Y-88722200D01*
X107930569Y-88722200D01*
X108249155Y-88658829D01*
X108610432Y-88417432D01*
X108851829Y-88056155D01*
X108936597Y-87630000D01*
X108851829Y-87203845D01*
X108610432Y-86842568D01*
X108249155Y-86601171D01*
X107930569Y-86537800D01*
X106699431Y-86537800D01*
X106380845Y-86601171D01*
X106019568Y-86842568D01*
X105778171Y-87203845D01*
X105693403Y-87630000D01*
X95977941Y-87630000D01*
X91241011Y-82893070D01*
X105452780Y-82893070D01*
X105467740Y-82967277D01*
X105729370Y-83448026D01*
X106155059Y-83792059D01*
X106680000Y-83947000D01*
X107188000Y-83947000D01*
X107188000Y-82677000D01*
X107442000Y-82677000D01*
X107442000Y-83947000D01*
X107950000Y-83947000D01*
X108474941Y-83792059D01*
X108900630Y-83448026D01*
X109162260Y-82967277D01*
X109177220Y-82893070D01*
X109054720Y-82677000D01*
X107442000Y-82677000D01*
X107188000Y-82677000D01*
X105575280Y-82677000D01*
X105452780Y-82893070D01*
X91241011Y-82893070D01*
X90554871Y-82206930D01*
X105452780Y-82206930D01*
X105575280Y-82423000D01*
X107188000Y-82423000D01*
X107188000Y-81153000D01*
X107442000Y-81153000D01*
X107442000Y-82423000D01*
X109054720Y-82423000D01*
X109177220Y-82206930D01*
X109162260Y-82132723D01*
X108991936Y-81819750D01*
X109855000Y-81819750D01*
X109855000Y-82295309D01*
X109951673Y-82528698D01*
X109972975Y-82550000D01*
X109951673Y-82571302D01*
X109855000Y-82804691D01*
X109855000Y-83280250D01*
X110013750Y-83439000D01*
X111633000Y-83439000D01*
X111633000Y-81661000D01*
X111887000Y-81661000D01*
X111887000Y-83439000D01*
X113506250Y-83439000D01*
X113665000Y-83280250D01*
X113665000Y-82804691D01*
X113568327Y-82571302D01*
X113547025Y-82550000D01*
X113568327Y-82528698D01*
X113665000Y-82295309D01*
X113665000Y-81819750D01*
X116205000Y-81819750D01*
X116205000Y-82295309D01*
X116301673Y-82528698D01*
X116322975Y-82550000D01*
X116301673Y-82571302D01*
X116205000Y-82804691D01*
X116205000Y-83280250D01*
X116363750Y-83439000D01*
X117983000Y-83439000D01*
X117983000Y-81661000D01*
X116363750Y-81661000D01*
X116205000Y-81819750D01*
X113665000Y-81819750D01*
X113506250Y-81661000D01*
X111887000Y-81661000D01*
X111633000Y-81661000D01*
X110013750Y-81661000D01*
X109855000Y-81819750D01*
X108991936Y-81819750D01*
X108900630Y-81651974D01*
X108474941Y-81307941D01*
X107950000Y-81153000D01*
X107442000Y-81153000D01*
X107188000Y-81153000D01*
X106680000Y-81153000D01*
X106155059Y-81307941D01*
X105729370Y-81651974D01*
X105467740Y-82132723D01*
X105452780Y-82206930D01*
X90554871Y-82206930D01*
X87938000Y-79590060D01*
X87938000Y-77584445D01*
X88340801Y-77987246D01*
X89115653Y-78308200D01*
X89954347Y-78308200D01*
X90729199Y-77987246D01*
X91322246Y-77394199D01*
X91643200Y-76619347D01*
X91643200Y-75780653D01*
X91322246Y-75005801D01*
X90729199Y-74412754D01*
X89954347Y-74091800D01*
X89115653Y-74091800D01*
X88340801Y-74412754D01*
X87938000Y-74815555D01*
X87938000Y-73801540D01*
X88605025Y-73134516D01*
X88649559Y-73104759D01*
X88767451Y-72928322D01*
X88798400Y-72772731D01*
X88798400Y-72772727D01*
X88807561Y-72726669D01*
X89192100Y-72726669D01*
X89320938Y-72701042D01*
X89430161Y-72628061D01*
X89503142Y-72518838D01*
X89528769Y-72390000D01*
X89528769Y-72327366D01*
X89790231Y-72657273D01*
X90324542Y-72954692D01*
X90436006Y-72980793D01*
X90678000Y-72860492D01*
X90678000Y-71247000D01*
X90658000Y-71247000D01*
X90658000Y-70993000D01*
X90678000Y-70993000D01*
X90678000Y-69379508D01*
X90932000Y-69379508D01*
X90932000Y-70993000D01*
X90952000Y-70993000D01*
X90952000Y-71247000D01*
X90932000Y-71247000D01*
X90932000Y-72860492D01*
X91173994Y-72980793D01*
X91285458Y-72954692D01*
X91819769Y-72657273D01*
X92199591Y-72178022D01*
X92232794Y-72061445D01*
X92438539Y-72369362D01*
X92854427Y-72647250D01*
X93345000Y-72744831D01*
X93835574Y-72647250D01*
X94251462Y-72369362D01*
X94529350Y-71953474D01*
X94602300Y-71586728D01*
X94602300Y-70653272D01*
X94627700Y-70653272D01*
X94627700Y-71586729D01*
X94700650Y-71953474D01*
X94978539Y-72369362D01*
X95394427Y-72647250D01*
X95885000Y-72744831D01*
X96375574Y-72647250D01*
X96791462Y-72369362D01*
X97069350Y-71953474D01*
X97142300Y-71586728D01*
X97142300Y-70653272D01*
X97167700Y-70653272D01*
X97167700Y-71586729D01*
X97240650Y-71953474D01*
X97518539Y-72369362D01*
X97934427Y-72647250D01*
X98425000Y-72744831D01*
X98915574Y-72647250D01*
X99331462Y-72369362D01*
X99609350Y-71953474D01*
X99682300Y-71586728D01*
X99682300Y-70653272D01*
X99707700Y-70653272D01*
X99707700Y-71586729D01*
X99780650Y-71953474D01*
X100058539Y-72369362D01*
X100474427Y-72647250D01*
X100965000Y-72744831D01*
X101455574Y-72647250D01*
X101871462Y-72369362D01*
X102149350Y-71953474D01*
X102222300Y-71586728D01*
X102222300Y-70653272D01*
X102247700Y-70653272D01*
X102247700Y-71586729D01*
X102320650Y-71953474D01*
X102598539Y-72369362D01*
X103014427Y-72647250D01*
X103505000Y-72744831D01*
X103995574Y-72647250D01*
X104411462Y-72369362D01*
X104689350Y-71953474D01*
X104747544Y-71660914D01*
X104762300Y-71663849D01*
X104801490Y-71656054D01*
X104860650Y-71953474D01*
X105138539Y-72369362D01*
X105554427Y-72647250D01*
X106045000Y-72744831D01*
X106535574Y-72647250D01*
X106951462Y-72369362D01*
X107229350Y-71953474D01*
X107302300Y-71586728D01*
X107302300Y-70653271D01*
X107229350Y-70286526D01*
X107085407Y-70071100D01*
X107544594Y-70071100D01*
X107400650Y-70286527D01*
X107327700Y-70653272D01*
X107327700Y-71586729D01*
X107400650Y-71953474D01*
X107678539Y-72369362D01*
X108094427Y-72647250D01*
X108585000Y-72744831D01*
X109075574Y-72647250D01*
X109491462Y-72369362D01*
X109769350Y-71953474D01*
X109842300Y-71586728D01*
X109842300Y-70653271D01*
X109769350Y-70286526D01*
X109625407Y-70071100D01*
X110084594Y-70071100D01*
X109940650Y-70286527D01*
X109867700Y-70653272D01*
X109867700Y-71586729D01*
X109940650Y-71953474D01*
X110218539Y-72369362D01*
X110634427Y-72647250D01*
X111125000Y-72744831D01*
X111615574Y-72647250D01*
X112031462Y-72369362D01*
X112309350Y-71953474D01*
X112382300Y-71586728D01*
X112382300Y-70653271D01*
X112309350Y-70286526D01*
X112165407Y-70071100D01*
X112624594Y-70071100D01*
X112480650Y-70286527D01*
X112407700Y-70653272D01*
X112407700Y-71586729D01*
X112480650Y-71953474D01*
X112758539Y-72369362D01*
X113174427Y-72647250D01*
X113665000Y-72744831D01*
X114155574Y-72647250D01*
X114571462Y-72369362D01*
X114849350Y-71953474D01*
X114922300Y-71586728D01*
X114922300Y-70653271D01*
X114849350Y-70286526D01*
X114705407Y-70071100D01*
X115164594Y-70071100D01*
X115020650Y-70286527D01*
X114947700Y-70653272D01*
X114947700Y-71586729D01*
X115020650Y-71953474D01*
X115298539Y-72369362D01*
X115714427Y-72647250D01*
X116205000Y-72744831D01*
X116695574Y-72647250D01*
X117111462Y-72369362D01*
X117389350Y-71953474D01*
X117462300Y-71586728D01*
X117462300Y-70653271D01*
X117389350Y-70286526D01*
X117245407Y-70071100D01*
X117704594Y-70071100D01*
X117560650Y-70286527D01*
X117487700Y-70653272D01*
X117487700Y-71586729D01*
X117560650Y-71953474D01*
X117838539Y-72369362D01*
X118254427Y-72647250D01*
X118745000Y-72744831D01*
X119235574Y-72647250D01*
X119468901Y-72491346D01*
X119468901Y-77532014D01*
X119380000Y-77514331D01*
X116840000Y-77514331D01*
X116711162Y-77539958D01*
X116601939Y-77612939D01*
X116528958Y-77722162D01*
X116503331Y-77851000D01*
X116503331Y-77952600D01*
X113366669Y-77952600D01*
X113366669Y-77851000D01*
X113341042Y-77722162D01*
X113268061Y-77612939D01*
X113158838Y-77539958D01*
X113030000Y-77514331D01*
X110490000Y-77514331D01*
X110361162Y-77539958D01*
X110251939Y-77612939D01*
X110178958Y-77722162D01*
X110153331Y-77851000D01*
X110153331Y-77943438D01*
X110107269Y-77952600D01*
X109951678Y-77983549D01*
X109775241Y-78101441D01*
X109657349Y-78277878D01*
X109615951Y-78486000D01*
X109626400Y-78538531D01*
X109626400Y-78544459D01*
X108745759Y-79425100D01*
X108610432Y-79222568D01*
X108249155Y-78981171D01*
X107930569Y-78917800D01*
X106699431Y-78917800D01*
X106380845Y-78981171D01*
X106019568Y-79222568D01*
X105778171Y-79583845D01*
X105693403Y-80010000D01*
X105778171Y-80436155D01*
X106019568Y-80797432D01*
X106380845Y-81038829D01*
X106699431Y-81102200D01*
X107930569Y-81102200D01*
X108249155Y-81038829D01*
X108610432Y-80797432D01*
X108626963Y-80772691D01*
X109855000Y-80772691D01*
X109855000Y-81248250D01*
X110013750Y-81407000D01*
X111633000Y-81407000D01*
X111633000Y-80422750D01*
X111887000Y-80422750D01*
X111887000Y-81407000D01*
X113506250Y-81407000D01*
X113665000Y-81248250D01*
X113665000Y-80772691D01*
X116205000Y-80772691D01*
X116205000Y-81248250D01*
X116363750Y-81407000D01*
X117983000Y-81407000D01*
X117983000Y-80422750D01*
X117824250Y-80264000D01*
X116713690Y-80264000D01*
X116480301Y-80360673D01*
X116301673Y-80539302D01*
X116205000Y-80772691D01*
X113665000Y-80772691D01*
X113568327Y-80539302D01*
X113389699Y-80360673D01*
X113156310Y-80264000D01*
X112045750Y-80264000D01*
X111887000Y-80422750D01*
X111633000Y-80422750D01*
X111474250Y-80264000D01*
X110363690Y-80264000D01*
X110130301Y-80360673D01*
X109951673Y-80539302D01*
X109855000Y-80772691D01*
X108626963Y-80772691D01*
X108780170Y-80543400D01*
X108862674Y-80543400D01*
X108915200Y-80553848D01*
X108967726Y-80543400D01*
X108967731Y-80543400D01*
X109123322Y-80512451D01*
X109299759Y-80394559D01*
X109329517Y-80350023D01*
X110293026Y-79386515D01*
X110361162Y-79432042D01*
X110490000Y-79457669D01*
X113030000Y-79457669D01*
X113158838Y-79432042D01*
X113268061Y-79359061D01*
X113341042Y-79249838D01*
X113366669Y-79121000D01*
X113366669Y-79019400D01*
X116503331Y-79019400D01*
X116503331Y-79121000D01*
X116528958Y-79249838D01*
X116601939Y-79359061D01*
X116711162Y-79432042D01*
X116840000Y-79457669D01*
X119380000Y-79457669D01*
X119468901Y-79439986D01*
X119468901Y-80264000D01*
X118395750Y-80264000D01*
X118237000Y-80422750D01*
X118237000Y-81407000D01*
X118257000Y-81407000D01*
X118257000Y-81661000D01*
X118237000Y-81661000D01*
X118237000Y-83439000D01*
X118257000Y-83439000D01*
X118257000Y-83693000D01*
X118237000Y-83693000D01*
X118237000Y-84677250D01*
X118395750Y-84836000D01*
X119468900Y-84836000D01*
X119468900Y-85660014D01*
X119380000Y-85642331D01*
X116840000Y-85642331D01*
X116711162Y-85667958D01*
X116601939Y-85740939D01*
X116528958Y-85850162D01*
X116503331Y-85979000D01*
X116503331Y-86080600D01*
X115155942Y-86080600D01*
X113825317Y-84749977D01*
X113795559Y-84705441D01*
X113619122Y-84587549D01*
X113554358Y-84574667D01*
X113568327Y-84560698D01*
X113665000Y-84327309D01*
X113665000Y-83851750D01*
X116205000Y-83851750D01*
X116205000Y-84327309D01*
X116301673Y-84560698D01*
X116480301Y-84739327D01*
X116713690Y-84836000D01*
X117824250Y-84836000D01*
X117983000Y-84677250D01*
X117983000Y-83693000D01*
X116363750Y-83693000D01*
X116205000Y-83851750D01*
X113665000Y-83851750D01*
X113506250Y-83693000D01*
X111887000Y-83693000D01*
X111887000Y-83713000D01*
X111633000Y-83713000D01*
X111633000Y-83693000D01*
X110013750Y-83693000D01*
X109855000Y-83851750D01*
X109855000Y-84327309D01*
X109949976Y-84556600D01*
X108780170Y-84556600D01*
X108610432Y-84302568D01*
X108249155Y-84061171D01*
X107930569Y-83997800D01*
X106699431Y-83997800D01*
X106380845Y-84061171D01*
X106019568Y-84302568D01*
X105778171Y-84663845D01*
X105693403Y-85090000D01*
X105778171Y-85516155D01*
X106019568Y-85877432D01*
X106380845Y-86118829D01*
X106699431Y-86182200D01*
X107930569Y-86182200D01*
X108249155Y-86118829D01*
X108610432Y-85877432D01*
X108780170Y-85623400D01*
X113190060Y-85623400D01*
X113647259Y-86080600D01*
X113366669Y-86080600D01*
X113366669Y-85979000D01*
X113341042Y-85850162D01*
X113268061Y-85740939D01*
X113158838Y-85667958D01*
X113030000Y-85642331D01*
X110490000Y-85642331D01*
X110361162Y-85667958D01*
X110251939Y-85740939D01*
X110178958Y-85850162D01*
X110153331Y-85979000D01*
X110153331Y-87249000D01*
X110178958Y-87377838D01*
X110251939Y-87487061D01*
X110361162Y-87560042D01*
X110490000Y-87585669D01*
X113030000Y-87585669D01*
X113158838Y-87560042D01*
X113268061Y-87487061D01*
X113341042Y-87377838D01*
X113366669Y-87249000D01*
X113366669Y-87147400D01*
X114882473Y-87147400D01*
X114934999Y-87157848D01*
X114987525Y-87147400D01*
X116503331Y-87147400D01*
X116503331Y-87249000D01*
X116528958Y-87377838D01*
X116601939Y-87487061D01*
X116711162Y-87560042D01*
X116840000Y-87585669D01*
X119380000Y-87585669D01*
X119468900Y-87567986D01*
X119468900Y-89720374D01*
X119458452Y-89772900D01*
X119468900Y-89825426D01*
X119468900Y-89825430D01*
X119499849Y-89981021D01*
X119617741Y-90157459D01*
X119662277Y-90187217D01*
X122021601Y-92546542D01*
X122021600Y-105317140D01*
X121775573Y-105152750D01*
X121285000Y-105055169D01*
X120794426Y-105152750D01*
X120378538Y-105430638D01*
X120100650Y-105846527D01*
X120027700Y-106213272D01*
X120027700Y-107146729D01*
X120100650Y-107513474D01*
X120378539Y-107929362D01*
X120794427Y-108207250D01*
X121285000Y-108304831D01*
X121775574Y-108207250D01*
X122191462Y-107929362D01*
X122192228Y-107928216D01*
X122214977Y-107943417D01*
X122902684Y-108631125D01*
X122932441Y-108675659D01*
X123108878Y-108793551D01*
X123264469Y-108824500D01*
X123264473Y-108824500D01*
X123317000Y-108834948D01*
X123369527Y-108824500D01*
X126842074Y-108824500D01*
X126894600Y-108834948D01*
X126947126Y-108824500D01*
X126947131Y-108824500D01*
X127102722Y-108793551D01*
X127279159Y-108675659D01*
X127308917Y-108631123D01*
X128184625Y-107755416D01*
X128229159Y-107725659D01*
X128289081Y-107635980D01*
X128387754Y-107874199D01*
X128980801Y-108467246D01*
X129755653Y-108788200D01*
X130594347Y-108788200D01*
X131369199Y-108467246D01*
X131962246Y-107874199D01*
X132193873Y-107315000D01*
X147588475Y-107315000D01*
X147732383Y-108038473D01*
X148142197Y-108651803D01*
X148755527Y-109061617D01*
X149296382Y-109169200D01*
X151693618Y-109169200D01*
X152234473Y-109061617D01*
X152847803Y-108651803D01*
X153257617Y-108038473D01*
X153401525Y-107315000D01*
X153257617Y-106591527D01*
X152847803Y-105978197D01*
X152234473Y-105568383D01*
X151693618Y-105460800D01*
X149296382Y-105460800D01*
X148755527Y-105568383D01*
X148142197Y-105978197D01*
X147732383Y-106591527D01*
X147588475Y-107315000D01*
X132193873Y-107315000D01*
X132283200Y-107099347D01*
X132283200Y-106260653D01*
X131962246Y-105485801D01*
X131632445Y-105156000D01*
X140208000Y-105156000D01*
X140208000Y-105410000D01*
X140362941Y-105934941D01*
X140706974Y-106360630D01*
X141187723Y-106622260D01*
X141261930Y-106637220D01*
X141478000Y-106514720D01*
X141478000Y-105156000D01*
X141732000Y-105156000D01*
X141732000Y-106514720D01*
X141948070Y-106637220D01*
X142022277Y-106622260D01*
X142503026Y-106360630D01*
X142847059Y-105934941D01*
X143002000Y-105410000D01*
X143002000Y-105156000D01*
X141732000Y-105156000D01*
X141478000Y-105156000D01*
X140208000Y-105156000D01*
X131632445Y-105156000D01*
X131369199Y-104892754D01*
X130594347Y-104571800D01*
X129755653Y-104571800D01*
X128980801Y-104892754D01*
X128387754Y-105485801D01*
X128378000Y-105509349D01*
X128378000Y-104688540D01*
X130190025Y-102876516D01*
X130234559Y-102846759D01*
X130352451Y-102670322D01*
X130383400Y-102514731D01*
X130383400Y-102514727D01*
X130393848Y-102462200D01*
X130383400Y-102409673D01*
X130383400Y-92792669D01*
X130424336Y-92792669D01*
X130433875Y-92815698D01*
X130612503Y-92994327D01*
X130845892Y-93091000D01*
X130902352Y-93091000D01*
X131061102Y-92932250D01*
X131061102Y-91846400D01*
X131014470Y-91846400D01*
X131014470Y-91592400D01*
X131061102Y-91592400D01*
X131061102Y-91572400D01*
X131238902Y-91572400D01*
X131238902Y-91592400D01*
X131281413Y-91592400D01*
X131266600Y-91666870D01*
X131266600Y-91846400D01*
X131238902Y-91846400D01*
X131238902Y-92932250D01*
X131296700Y-92990048D01*
X131297550Y-92994322D01*
X131415442Y-93170759D01*
X131459975Y-93200515D01*
X139979400Y-101719941D01*
X139979400Y-102182469D01*
X139968951Y-102235000D01*
X140010349Y-102443122D01*
X140128241Y-102619559D01*
X140304678Y-102737451D01*
X140460269Y-102768400D01*
X140460270Y-102768400D01*
X140512800Y-102778849D01*
X140547678Y-102771911D01*
X140576171Y-102915154D01*
X140817568Y-103276432D01*
X141115122Y-103475251D01*
X140706974Y-103697370D01*
X140362941Y-104123059D01*
X140208000Y-104648000D01*
X140208000Y-104902000D01*
X141478000Y-104902000D01*
X141478000Y-104882000D01*
X141732000Y-104882000D01*
X141732000Y-104902000D01*
X143002000Y-104902000D01*
X143002000Y-104648000D01*
X142847059Y-104123059D01*
X142503026Y-103697370D01*
X142094878Y-103475250D01*
X142392432Y-103276432D01*
X142633829Y-102915155D01*
X142689766Y-102633942D01*
X142844678Y-102737451D01*
X143052800Y-102778849D01*
X143105330Y-102768400D01*
X143187830Y-102768400D01*
X143357568Y-103022432D01*
X143718845Y-103263829D01*
X144037431Y-103327200D01*
X144760569Y-103327200D01*
X145079155Y-103263829D01*
X145440432Y-103022432D01*
X145681829Y-102661155D01*
X145766597Y-102235000D01*
X145681829Y-101808845D01*
X145440432Y-101447568D01*
X145079155Y-101206171D01*
X144760569Y-101142800D01*
X144037431Y-101142800D01*
X143718845Y-101206171D01*
X143402497Y-101417547D01*
X143392828Y-101411086D01*
X142615366Y-100633626D01*
X142847059Y-100346941D01*
X143002000Y-99822000D01*
X143002000Y-99568000D01*
X141732000Y-99568000D01*
X141732000Y-99588000D01*
X141478000Y-99588000D01*
X141478000Y-99568000D01*
X140304541Y-99568000D01*
X139796541Y-99060000D01*
X140208000Y-99060000D01*
X140208000Y-99314000D01*
X141478000Y-99314000D01*
X141478000Y-97955280D01*
X141732000Y-97955280D01*
X141732000Y-99314000D01*
X143002000Y-99314000D01*
X143002000Y-99060000D01*
X142847059Y-98535059D01*
X142503026Y-98109370D01*
X142022277Y-97847740D01*
X141948070Y-97832780D01*
X141732000Y-97955280D01*
X141478000Y-97955280D01*
X141261930Y-97832780D01*
X141187723Y-97847740D01*
X140706974Y-98109370D01*
X140362941Y-98535059D01*
X140208000Y-99060000D01*
X139796541Y-99060000D01*
X137891541Y-97155000D01*
X147588475Y-97155000D01*
X147732383Y-97878473D01*
X148142197Y-98491803D01*
X148755527Y-98901617D01*
X149296382Y-99009200D01*
X151693618Y-99009200D01*
X152234473Y-98901617D01*
X152847803Y-98491803D01*
X153257617Y-97878473D01*
X153401525Y-97155000D01*
X153257617Y-96431527D01*
X152847803Y-95818197D01*
X152234473Y-95408383D01*
X151693618Y-95300800D01*
X149296382Y-95300800D01*
X148755527Y-95408383D01*
X148142197Y-95818197D01*
X147732383Y-96431527D01*
X147588475Y-97155000D01*
X137891541Y-97155000D01*
X133518535Y-92781995D01*
X133572199Y-92792669D01*
X133927799Y-92792669D01*
X134056637Y-92767042D01*
X134165860Y-92694061D01*
X134238841Y-92584838D01*
X134264468Y-92456000D01*
X134264468Y-91867109D01*
X134283400Y-91771931D01*
X134283400Y-89682727D01*
X134293848Y-89630200D01*
X134283400Y-89577673D01*
X134283400Y-89577669D01*
X134252451Y-89422078D01*
X134134559Y-89245641D01*
X134090026Y-89215885D01*
X133434117Y-88559977D01*
X133404359Y-88515441D01*
X133227922Y-88397549D01*
X133072331Y-88366600D01*
X133072326Y-88366600D01*
X133026269Y-88357439D01*
X133026269Y-87274400D01*
X133002294Y-87153869D01*
X133277798Y-87153869D01*
X133406636Y-87128242D01*
X133424999Y-87115972D01*
X133443361Y-87128242D01*
X133572199Y-87153869D01*
X133927799Y-87153869D01*
X134056637Y-87128242D01*
X134165860Y-87055261D01*
X134238841Y-86946038D01*
X134264468Y-86817200D01*
X134264468Y-86228309D01*
X134283400Y-86133131D01*
X134283400Y-85436054D01*
X134321532Y-85420259D01*
X134539459Y-85202332D01*
X134657400Y-84917597D01*
X134657400Y-84609403D01*
X134539459Y-84324668D01*
X134321532Y-84106741D01*
X134233333Y-84070208D01*
X137658541Y-80645000D01*
X147588475Y-80645000D01*
X147732383Y-81368473D01*
X148142197Y-81981803D01*
X148755527Y-82391617D01*
X149296382Y-82499200D01*
X151693618Y-82499200D01*
X152234473Y-82391617D01*
X152847803Y-81981803D01*
X153257617Y-81368473D01*
X153401525Y-80645000D01*
X153257617Y-79921527D01*
X152847803Y-79308197D01*
X152234473Y-78898383D01*
X151693618Y-78790800D01*
X149296382Y-78790800D01*
X148755527Y-78898383D01*
X148142197Y-79308197D01*
X147732383Y-79921527D01*
X147588475Y-80645000D01*
X137658541Y-80645000D01*
X139817541Y-78486000D01*
X140208000Y-78486000D01*
X140208000Y-78740000D01*
X140362941Y-79264941D01*
X140706974Y-79690630D01*
X141187723Y-79952260D01*
X141261930Y-79967220D01*
X141478000Y-79844720D01*
X141478000Y-78486000D01*
X141732000Y-78486000D01*
X141732000Y-79844720D01*
X141948070Y-79967220D01*
X142022277Y-79952260D01*
X142503026Y-79690630D01*
X142847059Y-79264941D01*
X143002000Y-78740000D01*
X143002000Y-78486000D01*
X141732000Y-78486000D01*
X141478000Y-78486000D01*
X140208000Y-78486000D01*
X139817541Y-78486000D01*
X140208000Y-78095541D01*
X140208000Y-78232000D01*
X141478000Y-78232000D01*
X141478000Y-78212000D01*
X141732000Y-78212000D01*
X141732000Y-78232000D01*
X143002000Y-78232000D01*
X143002000Y-77978000D01*
X142847059Y-77453059D01*
X142615366Y-77166374D01*
X143392828Y-76388914D01*
X143402497Y-76382453D01*
X143718845Y-76593829D01*
X144037431Y-76657200D01*
X144760569Y-76657200D01*
X145079155Y-76593829D01*
X145440432Y-76352432D01*
X145681829Y-75991155D01*
X145766597Y-75565000D01*
X145681829Y-75138845D01*
X145440432Y-74777568D01*
X145079155Y-74536171D01*
X144760569Y-74472800D01*
X144037431Y-74472800D01*
X143718845Y-74536171D01*
X143357568Y-74777568D01*
X143187830Y-75031600D01*
X143105330Y-75031600D01*
X143052800Y-75021151D01*
X143000269Y-75031600D01*
X142844678Y-75062549D01*
X142689766Y-75166058D01*
X142633829Y-74884846D01*
X142392432Y-74523568D01*
X142094878Y-74324749D01*
X142503026Y-74102630D01*
X142847059Y-73676941D01*
X143002000Y-73152000D01*
X143002000Y-72898000D01*
X141732000Y-72898000D01*
X141732000Y-72918000D01*
X141478000Y-72918000D01*
X141478000Y-72898000D01*
X140208000Y-72898000D01*
X140208000Y-73152000D01*
X140362941Y-73676941D01*
X140706974Y-74102630D01*
X141115122Y-74324750D01*
X140817569Y-74523568D01*
X140576171Y-74884845D01*
X140547678Y-75028090D01*
X140512799Y-75021152D01*
X140460273Y-75031600D01*
X140460269Y-75031600D01*
X140304678Y-75062549D01*
X140128241Y-75180441D01*
X140098485Y-75224974D01*
X132969000Y-82354460D01*
X132969000Y-81565750D01*
X132810250Y-81407000D01*
X131826000Y-81407000D01*
X131826000Y-83026250D01*
X131984750Y-83185000D01*
X132138460Y-83185000D01*
X132109977Y-83213483D01*
X132065441Y-83243241D01*
X131947549Y-83419679D01*
X131916600Y-83575270D01*
X131916600Y-83575274D01*
X131906152Y-83627800D01*
X131916600Y-83680326D01*
X131916600Y-84840048D01*
X131888898Y-84867750D01*
X131888898Y-85039278D01*
X131866126Y-84984302D01*
X131687498Y-84805673D01*
X131621814Y-84778466D01*
X131552348Y-84709000D01*
X131495888Y-84709000D01*
X131474999Y-84717653D01*
X131454109Y-84709000D01*
X131397649Y-84709000D01*
X131328183Y-84778466D01*
X131262499Y-84805673D01*
X131149998Y-84918175D01*
X131037497Y-84805673D01*
X130971816Y-84778467D01*
X130902349Y-84709000D01*
X130845889Y-84709000D01*
X130824999Y-84717653D01*
X130804108Y-84709000D01*
X130747648Y-84709000D01*
X130678181Y-84778467D01*
X130612500Y-84805673D01*
X130499999Y-84918175D01*
X130387498Y-84805673D01*
X130321814Y-84778466D01*
X130252348Y-84709000D01*
X130195888Y-84709000D01*
X130174999Y-84717653D01*
X130154109Y-84709000D01*
X130097649Y-84709000D01*
X130028183Y-84778466D01*
X129962499Y-84805673D01*
X129783871Y-84984302D01*
X129761099Y-85039278D01*
X129761099Y-84867750D01*
X129605745Y-84712396D01*
X129931226Y-84386915D01*
X129975759Y-84357159D01*
X130093651Y-84180722D01*
X130124600Y-84025131D01*
X130124600Y-84025127D01*
X130135048Y-83972601D01*
X130124600Y-83920075D01*
X130124600Y-81565750D01*
X130429000Y-81565750D01*
X130429000Y-82676310D01*
X130525673Y-82909699D01*
X130704302Y-83088327D01*
X130937691Y-83185000D01*
X131413250Y-83185000D01*
X131572000Y-83026250D01*
X131572000Y-81407000D01*
X130587750Y-81407000D01*
X130429000Y-81565750D01*
X130124600Y-81565750D01*
X130124600Y-79883690D01*
X130429000Y-79883690D01*
X130429000Y-80994250D01*
X130587750Y-81153000D01*
X131572000Y-81153000D01*
X131572000Y-79533750D01*
X131826000Y-79533750D01*
X131826000Y-81153000D01*
X132810250Y-81153000D01*
X132969000Y-80994250D01*
X132969000Y-79883690D01*
X132872327Y-79650301D01*
X132693698Y-79471673D01*
X132460309Y-79375000D01*
X131984750Y-79375000D01*
X131826000Y-79533750D01*
X131572000Y-79533750D01*
X131413250Y-79375000D01*
X130937691Y-79375000D01*
X130704302Y-79471673D01*
X130525673Y-79650301D01*
X130429000Y-79883690D01*
X130124600Y-79883690D01*
X130124600Y-76938727D01*
X130135048Y-76886200D01*
X130124600Y-76833673D01*
X130124600Y-76833669D01*
X130093651Y-76678078D01*
X130054408Y-76619347D01*
X130005516Y-76546174D01*
X130005513Y-76546171D01*
X129975759Y-76501641D01*
X129931228Y-76471887D01*
X126164237Y-72704897D01*
X126365000Y-72744831D01*
X126855574Y-72647250D01*
X127271462Y-72369362D01*
X127549350Y-71953474D01*
X127622300Y-71586728D01*
X127622300Y-70700653D01*
X128066800Y-70700653D01*
X128066800Y-71539347D01*
X128387754Y-72314199D01*
X128980801Y-72907246D01*
X129755653Y-73228200D01*
X130594347Y-73228200D01*
X131369199Y-72907246D01*
X131886445Y-72390000D01*
X140208000Y-72390000D01*
X140208000Y-72644000D01*
X141478000Y-72644000D01*
X141478000Y-71285280D01*
X141732000Y-71285280D01*
X141732000Y-72644000D01*
X143002000Y-72644000D01*
X143002000Y-72390000D01*
X142847059Y-71865059D01*
X142503026Y-71439370D01*
X142022277Y-71177740D01*
X141948070Y-71162780D01*
X141732000Y-71285280D01*
X141478000Y-71285280D01*
X141261930Y-71162780D01*
X141187723Y-71177740D01*
X140706974Y-71439370D01*
X140362941Y-71865059D01*
X140208000Y-72390000D01*
X131886445Y-72390000D01*
X131962246Y-72314199D01*
X132283200Y-71539347D01*
X132283200Y-70700653D01*
X132193874Y-70485000D01*
X147588475Y-70485000D01*
X147732383Y-71208473D01*
X148142197Y-71821803D01*
X148755527Y-72231617D01*
X149296382Y-72339200D01*
X151693618Y-72339200D01*
X152234473Y-72231617D01*
X152847803Y-71821803D01*
X153257617Y-71208473D01*
X153401525Y-70485000D01*
X153257617Y-69761527D01*
X152847803Y-69148197D01*
X152234473Y-68738383D01*
X151693618Y-68630800D01*
X149296382Y-68630800D01*
X148755527Y-68738383D01*
X148142197Y-69148197D01*
X147732383Y-69761527D01*
X147588475Y-70485000D01*
X132193874Y-70485000D01*
X131962246Y-69925801D01*
X131369199Y-69332754D01*
X130594347Y-69011800D01*
X129755653Y-69011800D01*
X128980801Y-69332754D01*
X128387754Y-69925801D01*
X128066800Y-70700653D01*
X127622300Y-70700653D01*
X127622300Y-70653271D01*
X127549350Y-70286526D01*
X127271462Y-69870638D01*
X126855573Y-69592750D01*
X126365000Y-69495169D01*
X125874426Y-69592750D01*
X125458538Y-69870638D01*
X125180650Y-70286527D01*
X125121490Y-70583946D01*
X125082300Y-70576151D01*
X125067544Y-70579086D01*
X125009350Y-70286526D01*
X124731462Y-69870638D01*
X124315573Y-69592750D01*
X123825000Y-69495169D01*
X123334426Y-69592750D01*
X122918538Y-69870638D01*
X122909365Y-69884366D01*
X122895025Y-69874784D01*
X122217917Y-69197677D01*
X122188159Y-69153141D01*
X122011722Y-69035249D01*
X121856131Y-69004300D01*
X121856126Y-69004300D01*
X121803600Y-68993852D01*
X121751074Y-69004300D01*
X105533225Y-69004300D01*
X105480699Y-68993852D01*
X105428173Y-69004300D01*
X105428169Y-69004300D01*
X105272578Y-69035249D01*
X105096141Y-69153141D01*
X105066384Y-69197675D01*
X104422277Y-69841783D01*
X104395277Y-69859824D01*
X103995573Y-69592750D01*
X103505000Y-69495169D01*
X103014426Y-69592750D01*
X102598538Y-69870638D01*
X102320650Y-70286527D01*
X102247700Y-70653272D01*
X102222300Y-70653272D01*
X102222300Y-70653271D01*
X102149350Y-70286526D01*
X101871462Y-69870638D01*
X101455573Y-69592750D01*
X100965000Y-69495169D01*
X100474426Y-69592750D01*
X100058538Y-69870638D01*
X99780650Y-70286527D01*
X99707700Y-70653272D01*
X99682300Y-70653272D01*
X99682300Y-70653271D01*
X99609350Y-70286526D01*
X99331462Y-69870638D01*
X98915573Y-69592750D01*
X98425000Y-69495169D01*
X97934426Y-69592750D01*
X97518538Y-69870638D01*
X97240650Y-70286527D01*
X97167700Y-70653272D01*
X97142300Y-70653272D01*
X97142300Y-70653271D01*
X97069350Y-70286526D01*
X96791462Y-69870638D01*
X96375573Y-69592750D01*
X95885000Y-69495169D01*
X95394426Y-69592750D01*
X94978538Y-69870638D01*
X94700650Y-70286527D01*
X94627700Y-70653272D01*
X94602300Y-70653272D01*
X94602300Y-70653271D01*
X94529350Y-70286526D01*
X94251462Y-69870638D01*
X93835573Y-69592750D01*
X93345000Y-69495169D01*
X92854426Y-69592750D01*
X92438538Y-69870638D01*
X92232794Y-70178555D01*
X92199591Y-70061978D01*
X91819769Y-69582727D01*
X91285458Y-69285308D01*
X91173994Y-69259207D01*
X90932000Y-69379508D01*
X90678000Y-69379508D01*
X90436006Y-69259207D01*
X90324542Y-69285308D01*
X89790231Y-69582727D01*
X89528769Y-69912634D01*
X89528769Y-69850000D01*
X89503142Y-69721162D01*
X89430161Y-69611939D01*
X89320938Y-69538958D01*
X89192100Y-69513331D01*
X87337900Y-69513331D01*
X87209062Y-69538958D01*
X87099839Y-69611939D01*
X87026858Y-69721162D01*
X87001231Y-69850000D01*
X87001231Y-72390000D01*
X87026858Y-72518838D01*
X87099839Y-72628061D01*
X87209062Y-72701042D01*
X87337900Y-72726669D01*
X87504190Y-72726669D01*
X87064575Y-73166285D01*
X87020042Y-73196041D01*
X86990286Y-73240574D01*
X86990285Y-73240575D01*
X86902150Y-73372478D01*
X86860752Y-73580600D01*
X86169500Y-73580600D01*
X86169500Y-68389500D01*
X155765501Y-68389500D01*
X155765500Y-109410500D01*
X155765500Y-109410500D01*
G37*
X155765500Y-109410500D02*
X86169500Y-109410500D01*
X86169500Y-106213272D01*
X87007700Y-106213272D01*
X87007700Y-107146729D01*
X87080650Y-107513474D01*
X87358539Y-107929362D01*
X87774427Y-108207250D01*
X88265000Y-108304831D01*
X88755574Y-108207250D01*
X89171462Y-107929362D01*
X89449350Y-107513474D01*
X89522300Y-107146728D01*
X89522300Y-106213272D01*
X89547700Y-106213272D01*
X89547700Y-107146729D01*
X89620650Y-107513474D01*
X89898539Y-107929362D01*
X90314427Y-108207250D01*
X90805000Y-108304831D01*
X91295574Y-108207250D01*
X91711462Y-107929362D01*
X91989350Y-107513474D01*
X92062300Y-107146728D01*
X92062300Y-106213272D01*
X92087700Y-106213272D01*
X92087700Y-107146729D01*
X92160650Y-107513474D01*
X92438539Y-107929362D01*
X92854427Y-108207250D01*
X93345000Y-108304831D01*
X93835574Y-108207250D01*
X94251462Y-107929362D01*
X94529350Y-107513474D01*
X94602300Y-107146728D01*
X94602300Y-106213272D01*
X94627700Y-106213272D01*
X94627700Y-107146729D01*
X94700650Y-107513474D01*
X94978539Y-107929362D01*
X95394427Y-108207250D01*
X95885000Y-108304831D01*
X96375574Y-108207250D01*
X96791462Y-107929362D01*
X97069350Y-107513474D01*
X97142300Y-107146728D01*
X97142300Y-106213272D01*
X97167700Y-106213272D01*
X97167700Y-107146729D01*
X97240650Y-107513474D01*
X97518539Y-107929362D01*
X97934427Y-108207250D01*
X98425000Y-108304831D01*
X98915574Y-108207250D01*
X99331462Y-107929362D01*
X99609350Y-107513474D01*
X99682300Y-107146728D01*
X99682300Y-106213272D01*
X99707700Y-106213272D01*
X99707700Y-107146729D01*
X99780650Y-107513474D01*
X100058539Y-107929362D01*
X100474427Y-108207250D01*
X100965000Y-108304831D01*
X101455574Y-108207250D01*
X101871462Y-107929362D01*
X102149350Y-107513474D01*
X102222300Y-107146728D01*
X102222300Y-106213272D01*
X102247700Y-106213272D01*
X102247700Y-107146729D01*
X102320650Y-107513474D01*
X102598539Y-107929362D01*
X103014427Y-108207250D01*
X103505000Y-108304831D01*
X103995574Y-108207250D01*
X104411462Y-107929362D01*
X104689350Y-107513474D01*
X104762300Y-107146728D01*
X104762300Y-106213272D01*
X104787700Y-106213272D01*
X104787700Y-107146729D01*
X104860650Y-107513474D01*
X105138539Y-107929362D01*
X105554427Y-108207250D01*
X106045000Y-108304831D01*
X106535574Y-108207250D01*
X106951462Y-107929362D01*
X107229350Y-107513474D01*
X107302300Y-107146728D01*
X107302300Y-106213272D01*
X107327700Y-106213272D01*
X107327700Y-107146729D01*
X107400650Y-107513474D01*
X107678539Y-107929362D01*
X108094427Y-108207250D01*
X108585000Y-108304831D01*
X109075574Y-108207250D01*
X109491462Y-107929362D01*
X109769350Y-107513474D01*
X109842300Y-107146728D01*
X109842300Y-106213272D01*
X109867700Y-106213272D01*
X109867700Y-107146729D01*
X109940650Y-107513474D01*
X110218539Y-107929362D01*
X110634427Y-108207250D01*
X111125000Y-108304831D01*
X111615574Y-108207250D01*
X112031462Y-107929362D01*
X112309350Y-107513474D01*
X112382300Y-107146728D01*
X112382300Y-106213272D01*
X112407700Y-106213272D01*
X112407700Y-107146729D01*
X112480650Y-107513474D01*
X112758539Y-107929362D01*
X113174427Y-108207250D01*
X113665000Y-108304831D01*
X114155574Y-108207250D01*
X114571462Y-107929362D01*
X114849350Y-107513474D01*
X114922300Y-107146728D01*
X114922300Y-106213272D01*
X114947700Y-106213272D01*
X114947700Y-107146729D01*
X115020650Y-107513474D01*
X115298539Y-107929362D01*
X115714427Y-108207250D01*
X116205000Y-108304831D01*
X116695574Y-108207250D01*
X117111462Y-107929362D01*
X117389350Y-107513474D01*
X117462300Y-107146728D01*
X117462300Y-106213272D01*
X117487700Y-106213272D01*
X117487700Y-107146729D01*
X117560650Y-107513474D01*
X117838539Y-107929362D01*
X118254427Y-108207250D01*
X118745000Y-108304831D01*
X119235574Y-108207250D01*
X119651462Y-107929362D01*
X119929350Y-107513474D01*
X120002300Y-107146728D01*
X120002300Y-106213271D01*
X119929350Y-105846526D01*
X119651462Y-105430638D01*
X119235573Y-105152750D01*
X118745000Y-105055169D01*
X118254426Y-105152750D01*
X117838538Y-105430638D01*
X117560650Y-105846527D01*
X117487700Y-106213272D01*
X117462300Y-106213272D01*
X117462300Y-106213271D01*
X117389350Y-105846526D01*
X117111462Y-105430638D01*
X116695573Y-105152750D01*
X116205000Y-105055169D01*
X115714426Y-105152750D01*
X115298538Y-105430638D01*
X115020650Y-105846527D01*
X114947700Y-106213272D01*
X114922300Y-106213272D01*
X114922300Y-106213271D01*
X114849350Y-105846526D01*
X114571462Y-105430638D01*
X114155573Y-105152750D01*
X113665000Y-105055169D01*
X113174426Y-105152750D01*
X112758538Y-105430638D01*
X112480650Y-105846527D01*
X112407700Y-106213272D01*
X112382300Y-106213272D01*
X112382300Y-106213271D01*
X112309350Y-105846526D01*
X112031462Y-105430638D01*
X111615573Y-105152750D01*
X111125000Y-105055169D01*
X110634426Y-105152750D01*
X110218538Y-105430638D01*
X109940650Y-105846527D01*
X109867700Y-106213272D01*
X109842300Y-106213272D01*
X109842300Y-106213271D01*
X109769350Y-105846526D01*
X109491462Y-105430638D01*
X109075573Y-105152750D01*
X108585000Y-105055169D01*
X108094426Y-105152750D01*
X107678538Y-105430638D01*
X107400650Y-105846527D01*
X107327700Y-106213272D01*
X107302300Y-106213272D01*
X107302300Y-106213271D01*
X107229350Y-105846526D01*
X106951462Y-105430638D01*
X106535573Y-105152750D01*
X106045000Y-105055169D01*
X105554426Y-105152750D01*
X105138538Y-105430638D01*
X104860650Y-105846527D01*
X104787700Y-106213272D01*
X104762300Y-106213272D01*
X104762300Y-106213271D01*
X104689350Y-105846526D01*
X104411462Y-105430638D01*
X103995573Y-105152750D01*
X103505000Y-105055169D01*
X103014426Y-105152750D01*
X102598538Y-105430638D01*
X102320650Y-105846527D01*
X102247700Y-106213272D01*
X102222300Y-106213272D01*
X102222300Y-106213271D01*
X102149350Y-105846526D01*
X101871462Y-105430638D01*
X101455573Y-105152750D01*
X100965000Y-105055169D01*
X100474426Y-105152750D01*
X100058538Y-105430638D01*
X99780650Y-105846527D01*
X99707700Y-106213272D01*
X99682300Y-106213272D01*
X99682300Y-106213271D01*
X99609350Y-105846526D01*
X99331462Y-105430638D01*
X98915573Y-105152750D01*
X98425000Y-105055169D01*
X97934426Y-105152750D01*
X97518538Y-105430638D01*
X97240650Y-105846527D01*
X97167700Y-106213272D01*
X97142300Y-106213272D01*
X97142300Y-106213271D01*
X97069350Y-105846526D01*
X96791462Y-105430638D01*
X96375573Y-105152750D01*
X95885000Y-105055169D01*
X95394426Y-105152750D01*
X94978538Y-105430638D01*
X94700650Y-105846527D01*
X94627700Y-106213272D01*
X94602300Y-106213272D01*
X94602300Y-106213271D01*
X94529350Y-105846526D01*
X94251462Y-105430638D01*
X93835573Y-105152750D01*
X93345000Y-105055169D01*
X92854426Y-105152750D01*
X92438538Y-105430638D01*
X92160650Y-105846527D01*
X92087700Y-106213272D01*
X92062300Y-106213272D01*
X92062300Y-106213271D01*
X91989350Y-105846526D01*
X91711462Y-105430638D01*
X91295573Y-105152750D01*
X90805000Y-105055169D01*
X90314426Y-105152750D01*
X89898538Y-105430638D01*
X89620650Y-105846527D01*
X89547700Y-106213272D01*
X89522300Y-106213272D01*
X89522300Y-106213271D01*
X89449350Y-105846526D01*
X89171462Y-105430638D01*
X88755573Y-105152750D01*
X88265000Y-105055169D01*
X87774426Y-105152750D01*
X87358538Y-105430638D01*
X87080650Y-105846527D01*
X87007700Y-106213272D01*
X86169500Y-106213272D01*
X86169500Y-101180653D01*
X87426800Y-101180653D01*
X87426800Y-102019347D01*
X87747754Y-102794199D01*
X88340801Y-103387246D01*
X89115653Y-103708200D01*
X89954347Y-103708200D01*
X90729199Y-103387246D01*
X91322246Y-102794199D01*
X91643200Y-102019347D01*
X91643200Y-101180653D01*
X91322246Y-100405801D01*
X90729199Y-99812754D01*
X89954347Y-99491800D01*
X89115653Y-99491800D01*
X88340801Y-99812754D01*
X87747754Y-100405801D01*
X87426800Y-101180653D01*
X86169500Y-101180653D01*
X86169500Y-98329750D01*
X100330000Y-98329750D01*
X100330000Y-98805309D01*
X100426673Y-99038698D01*
X100605301Y-99217327D01*
X100838690Y-99314000D01*
X101949250Y-99314000D01*
X102108000Y-99155250D01*
X102108000Y-98171000D01*
X102362000Y-98171000D01*
X102362000Y-99155250D01*
X102520750Y-99314000D01*
X103631310Y-99314000D01*
X103864699Y-99217327D01*
X104043327Y-99038698D01*
X104140000Y-98805309D01*
X104140000Y-98329750D01*
X103981250Y-98171000D01*
X102362000Y-98171000D01*
X102108000Y-98171000D01*
X100488750Y-98171000D01*
X100330000Y-98329750D01*
X86169500Y-98329750D01*
X86169500Y-98075750D01*
X105410000Y-98075750D01*
X105410000Y-98678309D01*
X105506673Y-98911698D01*
X105685301Y-99090327D01*
X105918690Y-99187000D01*
X107029250Y-99187000D01*
X107188000Y-99028250D01*
X107188000Y-97917000D01*
X107442000Y-97917000D01*
X107442000Y-99028250D01*
X107600750Y-99187000D01*
X108711310Y-99187000D01*
X108944699Y-99090327D01*
X109123327Y-98911698D01*
X109220000Y-98678309D01*
X109220000Y-98075750D01*
X109061250Y-97917000D01*
X107442000Y-97917000D01*
X107188000Y-97917000D01*
X105568750Y-97917000D01*
X105410000Y-98075750D01*
X86169500Y-98075750D01*
X86169500Y-97282691D01*
X100330000Y-97282691D01*
X100330000Y-97758250D01*
X100488750Y-97917000D01*
X102108000Y-97917000D01*
X102108000Y-96932750D01*
X102362000Y-96932750D01*
X102362000Y-97917000D01*
X103981250Y-97917000D01*
X104140000Y-97758250D01*
X104140000Y-97282691D01*
X104043327Y-97049302D01*
X103895717Y-96901691D01*
X105410000Y-96901691D01*
X105410000Y-97504250D01*
X105568750Y-97663000D01*
X107188000Y-97663000D01*
X107188000Y-96551750D01*
X107442000Y-96551750D01*
X107442000Y-97663000D01*
X109061250Y-97663000D01*
X109220000Y-97504250D01*
X109220000Y-96901691D01*
X109123327Y-96668302D01*
X108944699Y-96489673D01*
X108711310Y-96393000D01*
X107600750Y-96393000D01*
X107442000Y-96551750D01*
X107188000Y-96551750D01*
X107029250Y-96393000D01*
X105918690Y-96393000D01*
X105685301Y-96489673D01*
X105506673Y-96668302D01*
X105410000Y-96901691D01*
X103895717Y-96901691D01*
X103864699Y-96870673D01*
X103631310Y-96774000D01*
X102520750Y-96774000D01*
X102362000Y-96932750D01*
X102108000Y-96932750D01*
X101949250Y-96774000D01*
X100838690Y-96774000D01*
X100605301Y-96870673D01*
X100426673Y-97049302D01*
X100330000Y-97282691D01*
X86169500Y-97282691D01*
X86169500Y-73580600D01*
X86860752Y-73580600D01*
X86871201Y-73633131D01*
X86871200Y-79758474D01*
X86860752Y-79811000D01*
X86871200Y-79863526D01*
X86871200Y-79863530D01*
X86902149Y-80019121D01*
X87020041Y-80195559D01*
X87064577Y-80225317D01*
X100880415Y-94041156D01*
X100836162Y-94049958D01*
X100726939Y-94122939D01*
X100653958Y-94232162D01*
X100628331Y-94361000D01*
X100628331Y-95631000D01*
X100653958Y-95759838D01*
X100726939Y-95869061D01*
X100836162Y-95942042D01*
X100965000Y-95967669D01*
X103505000Y-95967669D01*
X103633838Y-95942042D01*
X103743061Y-95869061D01*
X103816042Y-95759838D01*
X103824969Y-95714960D01*
X103881078Y-95752451D01*
X104036669Y-95783400D01*
X104036673Y-95783400D01*
X104089199Y-95793848D01*
X104141725Y-95783400D01*
X105849830Y-95783400D01*
X106019568Y-96037432D01*
X106380845Y-96278829D01*
X106699431Y-96342200D01*
X107930569Y-96342200D01*
X108249155Y-96278829D01*
X108610432Y-96037432D01*
X108851829Y-95676155D01*
X108936597Y-95250000D01*
X108851829Y-94823845D01*
X108610432Y-94462568D01*
X108249155Y-94221171D01*
X107930569Y-94157800D01*
X106699431Y-94157800D01*
X106380845Y-94221171D01*
X106019568Y-94462568D01*
X105849830Y-94716600D01*
X104310140Y-94716600D01*
X104249517Y-94655977D01*
X104219759Y-94611441D01*
X104043322Y-94493549D01*
X103887731Y-94462600D01*
X103887726Y-94462600D01*
X103841669Y-94453439D01*
X103841669Y-94361000D01*
X103816042Y-94232162D01*
X103743061Y-94122939D01*
X103633838Y-94049958D01*
X103505000Y-94024331D01*
X102372272Y-94024331D01*
X101057941Y-92710000D01*
X105693403Y-92710000D01*
X105778171Y-93136155D01*
X106019568Y-93497432D01*
X106380845Y-93738829D01*
X106699431Y-93802200D01*
X107930569Y-93802200D01*
X108249155Y-93738829D01*
X108610432Y-93497432D01*
X108851829Y-93136155D01*
X108936597Y-92710000D01*
X108851829Y-92283845D01*
X108610432Y-91922568D01*
X108249155Y-91681171D01*
X107930569Y-91617800D01*
X106699431Y-91617800D01*
X106380845Y-91681171D01*
X106019568Y-91922568D01*
X105778171Y-92283845D01*
X105693403Y-92710000D01*
X101057941Y-92710000D01*
X95977941Y-87630000D01*
X105693403Y-87630000D01*
X105778171Y-88056155D01*
X106019568Y-88417432D01*
X106380845Y-88658829D01*
X106699431Y-88722200D01*
X107930569Y-88722200D01*
X108249155Y-88658829D01*
X108610432Y-88417432D01*
X108851829Y-88056155D01*
X108936597Y-87630000D01*
X108851829Y-87203845D01*
X108610432Y-86842568D01*
X108249155Y-86601171D01*
X107930569Y-86537800D01*
X106699431Y-86537800D01*
X106380845Y-86601171D01*
X106019568Y-86842568D01*
X105778171Y-87203845D01*
X105693403Y-87630000D01*
X95977941Y-87630000D01*
X91241011Y-82893070D01*
X105452780Y-82893070D01*
X105467740Y-82967277D01*
X105729370Y-83448026D01*
X106155059Y-83792059D01*
X106680000Y-83947000D01*
X107188000Y-83947000D01*
X107188000Y-82677000D01*
X107442000Y-82677000D01*
X107442000Y-83947000D01*
X107950000Y-83947000D01*
X108474941Y-83792059D01*
X108900630Y-83448026D01*
X109162260Y-82967277D01*
X109177220Y-82893070D01*
X109054720Y-82677000D01*
X107442000Y-82677000D01*
X107188000Y-82677000D01*
X105575280Y-82677000D01*
X105452780Y-82893070D01*
X91241011Y-82893070D01*
X90554871Y-82206930D01*
X105452780Y-82206930D01*
X105575280Y-82423000D01*
X107188000Y-82423000D01*
X107188000Y-81153000D01*
X107442000Y-81153000D01*
X107442000Y-82423000D01*
X109054720Y-82423000D01*
X109177220Y-82206930D01*
X109162260Y-82132723D01*
X108991936Y-81819750D01*
X109855000Y-81819750D01*
X109855000Y-82295309D01*
X109951673Y-82528698D01*
X109972975Y-82550000D01*
X109951673Y-82571302D01*
X109855000Y-82804691D01*
X109855000Y-83280250D01*
X110013750Y-83439000D01*
X111633000Y-83439000D01*
X111633000Y-81661000D01*
X111887000Y-81661000D01*
X111887000Y-83439000D01*
X113506250Y-83439000D01*
X113665000Y-83280250D01*
X113665000Y-82804691D01*
X113568327Y-82571302D01*
X113547025Y-82550000D01*
X113568327Y-82528698D01*
X113665000Y-82295309D01*
X113665000Y-81819750D01*
X116205000Y-81819750D01*
X116205000Y-82295309D01*
X116301673Y-82528698D01*
X116322975Y-82550000D01*
X116301673Y-82571302D01*
X116205000Y-82804691D01*
X116205000Y-83280250D01*
X116363750Y-83439000D01*
X117983000Y-83439000D01*
X117983000Y-81661000D01*
X116363750Y-81661000D01*
X116205000Y-81819750D01*
X113665000Y-81819750D01*
X113506250Y-81661000D01*
X111887000Y-81661000D01*
X111633000Y-81661000D01*
X110013750Y-81661000D01*
X109855000Y-81819750D01*
X108991936Y-81819750D01*
X108900630Y-81651974D01*
X108474941Y-81307941D01*
X107950000Y-81153000D01*
X107442000Y-81153000D01*
X107188000Y-81153000D01*
X106680000Y-81153000D01*
X106155059Y-81307941D01*
X105729370Y-81651974D01*
X105467740Y-82132723D01*
X105452780Y-82206930D01*
X90554871Y-82206930D01*
X87938000Y-79590060D01*
X87938000Y-77584445D01*
X88340801Y-77987246D01*
X89115653Y-78308200D01*
X89954347Y-78308200D01*
X90729199Y-77987246D01*
X91322246Y-77394199D01*
X91643200Y-76619347D01*
X91643200Y-75780653D01*
X91322246Y-75005801D01*
X90729199Y-74412754D01*
X89954347Y-74091800D01*
X89115653Y-74091800D01*
X88340801Y-74412754D01*
X87938000Y-74815555D01*
X87938000Y-73801540D01*
X88605025Y-73134516D01*
X88649559Y-73104759D01*
X88767451Y-72928322D01*
X88798400Y-72772731D01*
X88798400Y-72772727D01*
X88807561Y-72726669D01*
X89192100Y-72726669D01*
X89320938Y-72701042D01*
X89430161Y-72628061D01*
X89503142Y-72518838D01*
X89528769Y-72390000D01*
X89528769Y-72327366D01*
X89790231Y-72657273D01*
X90324542Y-72954692D01*
X90436006Y-72980793D01*
X90678000Y-72860492D01*
X90678000Y-71247000D01*
X90658000Y-71247000D01*
X90658000Y-70993000D01*
X90678000Y-70993000D01*
X90678000Y-69379508D01*
X90932000Y-69379508D01*
X90932000Y-70993000D01*
X90952000Y-70993000D01*
X90952000Y-71247000D01*
X90932000Y-71247000D01*
X90932000Y-72860492D01*
X91173994Y-72980793D01*
X91285458Y-72954692D01*
X91819769Y-72657273D01*
X92199591Y-72178022D01*
X92232794Y-72061445D01*
X92438539Y-72369362D01*
X92854427Y-72647250D01*
X93345000Y-72744831D01*
X93835574Y-72647250D01*
X94251462Y-72369362D01*
X94529350Y-71953474D01*
X94602300Y-71586728D01*
X94602300Y-70653272D01*
X94627700Y-70653272D01*
X94627700Y-71586729D01*
X94700650Y-71953474D01*
X94978539Y-72369362D01*
X95394427Y-72647250D01*
X95885000Y-72744831D01*
X96375574Y-72647250D01*
X96791462Y-72369362D01*
X97069350Y-71953474D01*
X97142300Y-71586728D01*
X97142300Y-70653272D01*
X97167700Y-70653272D01*
X97167700Y-71586729D01*
X97240650Y-71953474D01*
X97518539Y-72369362D01*
X97934427Y-72647250D01*
X98425000Y-72744831D01*
X98915574Y-72647250D01*
X99331462Y-72369362D01*
X99609350Y-71953474D01*
X99682300Y-71586728D01*
X99682300Y-70653272D01*
X99707700Y-70653272D01*
X99707700Y-71586729D01*
X99780650Y-71953474D01*
X100058539Y-72369362D01*
X100474427Y-72647250D01*
X100965000Y-72744831D01*
X101455574Y-72647250D01*
X101871462Y-72369362D01*
X102149350Y-71953474D01*
X102222300Y-71586728D01*
X102222300Y-70653272D01*
X102247700Y-70653272D01*
X102247700Y-71586729D01*
X102320650Y-71953474D01*
X102598539Y-72369362D01*
X103014427Y-72647250D01*
X103505000Y-72744831D01*
X103995574Y-72647250D01*
X104411462Y-72369362D01*
X104689350Y-71953474D01*
X104747544Y-71660914D01*
X104762300Y-71663849D01*
X104801490Y-71656054D01*
X104860650Y-71953474D01*
X105138539Y-72369362D01*
X105554427Y-72647250D01*
X106045000Y-72744831D01*
X106535574Y-72647250D01*
X106951462Y-72369362D01*
X107229350Y-71953474D01*
X107302300Y-71586728D01*
X107302300Y-70653271D01*
X107229350Y-70286526D01*
X107085407Y-70071100D01*
X107544594Y-70071100D01*
X107400650Y-70286527D01*
X107327700Y-70653272D01*
X107327700Y-71586729D01*
X107400650Y-71953474D01*
X107678539Y-72369362D01*
X108094427Y-72647250D01*
X108585000Y-72744831D01*
X109075574Y-72647250D01*
X109491462Y-72369362D01*
X109769350Y-71953474D01*
X109842300Y-71586728D01*
X109842300Y-70653271D01*
X109769350Y-70286526D01*
X109625407Y-70071100D01*
X110084594Y-70071100D01*
X109940650Y-70286527D01*
X109867700Y-70653272D01*
X109867700Y-71586729D01*
X109940650Y-71953474D01*
X110218539Y-72369362D01*
X110634427Y-72647250D01*
X111125000Y-72744831D01*
X111615574Y-72647250D01*
X112031462Y-72369362D01*
X112309350Y-71953474D01*
X112382300Y-71586728D01*
X112382300Y-70653271D01*
X112309350Y-70286526D01*
X112165407Y-70071100D01*
X112624594Y-70071100D01*
X112480650Y-70286527D01*
X112407700Y-70653272D01*
X112407700Y-71586729D01*
X112480650Y-71953474D01*
X112758539Y-72369362D01*
X113174427Y-72647250D01*
X113665000Y-72744831D01*
X114155574Y-72647250D01*
X114571462Y-72369362D01*
X114849350Y-71953474D01*
X114922300Y-71586728D01*
X114922300Y-70653271D01*
X114849350Y-70286526D01*
X114705407Y-70071100D01*
X115164594Y-70071100D01*
X115020650Y-70286527D01*
X114947700Y-70653272D01*
X114947700Y-71586729D01*
X115020650Y-71953474D01*
X115298539Y-72369362D01*
X115714427Y-72647250D01*
X116205000Y-72744831D01*
X116695574Y-72647250D01*
X117111462Y-72369362D01*
X117389350Y-71953474D01*
X117462300Y-71586728D01*
X117462300Y-70653271D01*
X117389350Y-70286526D01*
X117245407Y-70071100D01*
X117704594Y-70071100D01*
X117560650Y-70286527D01*
X117487700Y-70653272D01*
X117487700Y-71586729D01*
X117560650Y-71953474D01*
X117838539Y-72369362D01*
X118254427Y-72647250D01*
X118745000Y-72744831D01*
X119235574Y-72647250D01*
X119468901Y-72491346D01*
X119468901Y-77532014D01*
X119380000Y-77514331D01*
X116840000Y-77514331D01*
X116711162Y-77539958D01*
X116601939Y-77612939D01*
X116528958Y-77722162D01*
X116503331Y-77851000D01*
X116503331Y-77952600D01*
X113366669Y-77952600D01*
X113366669Y-77851000D01*
X113341042Y-77722162D01*
X113268061Y-77612939D01*
X113158838Y-77539958D01*
X113030000Y-77514331D01*
X110490000Y-77514331D01*
X110361162Y-77539958D01*
X110251939Y-77612939D01*
X110178958Y-77722162D01*
X110153331Y-77851000D01*
X110153331Y-77943438D01*
X110107269Y-77952600D01*
X109951678Y-77983549D01*
X109775241Y-78101441D01*
X109657349Y-78277878D01*
X109615951Y-78486000D01*
X109626400Y-78538531D01*
X109626400Y-78544459D01*
X108745759Y-79425100D01*
X108610432Y-79222568D01*
X108249155Y-78981171D01*
X107930569Y-78917800D01*
X106699431Y-78917800D01*
X106380845Y-78981171D01*
X106019568Y-79222568D01*
X105778171Y-79583845D01*
X105693403Y-80010000D01*
X105778171Y-80436155D01*
X106019568Y-80797432D01*
X106380845Y-81038829D01*
X106699431Y-81102200D01*
X107930569Y-81102200D01*
X108249155Y-81038829D01*
X108610432Y-80797432D01*
X108626963Y-80772691D01*
X109855000Y-80772691D01*
X109855000Y-81248250D01*
X110013750Y-81407000D01*
X111633000Y-81407000D01*
X111633000Y-80422750D01*
X111887000Y-80422750D01*
X111887000Y-81407000D01*
X113506250Y-81407000D01*
X113665000Y-81248250D01*
X113665000Y-80772691D01*
X116205000Y-80772691D01*
X116205000Y-81248250D01*
X116363750Y-81407000D01*
X117983000Y-81407000D01*
X117983000Y-80422750D01*
X117824250Y-80264000D01*
X116713690Y-80264000D01*
X116480301Y-80360673D01*
X116301673Y-80539302D01*
X116205000Y-80772691D01*
X113665000Y-80772691D01*
X113568327Y-80539302D01*
X113389699Y-80360673D01*
X113156310Y-80264000D01*
X112045750Y-80264000D01*
X111887000Y-80422750D01*
X111633000Y-80422750D01*
X111474250Y-80264000D01*
X110363690Y-80264000D01*
X110130301Y-80360673D01*
X109951673Y-80539302D01*
X109855000Y-80772691D01*
X108626963Y-80772691D01*
X108780170Y-80543400D01*
X108862674Y-80543400D01*
X108915200Y-80553848D01*
X108967726Y-80543400D01*
X108967731Y-80543400D01*
X109123322Y-80512451D01*
X109299759Y-80394559D01*
X109329517Y-80350023D01*
X110293026Y-79386515D01*
X110361162Y-79432042D01*
X110490000Y-79457669D01*
X113030000Y-79457669D01*
X113158838Y-79432042D01*
X113268061Y-79359061D01*
X113341042Y-79249838D01*
X113366669Y-79121000D01*
X113366669Y-79019400D01*
X116503331Y-79019400D01*
X116503331Y-79121000D01*
X116528958Y-79249838D01*
X116601939Y-79359061D01*
X116711162Y-79432042D01*
X116840000Y-79457669D01*
X119380000Y-79457669D01*
X119468901Y-79439986D01*
X119468901Y-80264000D01*
X118395750Y-80264000D01*
X118237000Y-80422750D01*
X118237000Y-81407000D01*
X118257000Y-81407000D01*
X118257000Y-81661000D01*
X118237000Y-81661000D01*
X118237000Y-83439000D01*
X118257000Y-83439000D01*
X118257000Y-83693000D01*
X118237000Y-83693000D01*
X118237000Y-84677250D01*
X118395750Y-84836000D01*
X119468900Y-84836000D01*
X119468900Y-85660014D01*
X119380000Y-85642331D01*
X116840000Y-85642331D01*
X116711162Y-85667958D01*
X116601939Y-85740939D01*
X116528958Y-85850162D01*
X116503331Y-85979000D01*
X116503331Y-86080600D01*
X115155942Y-86080600D01*
X113825317Y-84749977D01*
X113795559Y-84705441D01*
X113619122Y-84587549D01*
X113554358Y-84574667D01*
X113568327Y-84560698D01*
X113665000Y-84327309D01*
X113665000Y-83851750D01*
X116205000Y-83851750D01*
X116205000Y-84327309D01*
X116301673Y-84560698D01*
X116480301Y-84739327D01*
X116713690Y-84836000D01*
X117824250Y-84836000D01*
X117983000Y-84677250D01*
X117983000Y-83693000D01*
X116363750Y-83693000D01*
X116205000Y-83851750D01*
X113665000Y-83851750D01*
X113506250Y-83693000D01*
X111887000Y-83693000D01*
X111887000Y-83713000D01*
X111633000Y-83713000D01*
X111633000Y-83693000D01*
X110013750Y-83693000D01*
X109855000Y-83851750D01*
X109855000Y-84327309D01*
X109949976Y-84556600D01*
X108780170Y-84556600D01*
X108610432Y-84302568D01*
X108249155Y-84061171D01*
X107930569Y-83997800D01*
X106699431Y-83997800D01*
X106380845Y-84061171D01*
X106019568Y-84302568D01*
X105778171Y-84663845D01*
X105693403Y-85090000D01*
X105778171Y-85516155D01*
X106019568Y-85877432D01*
X106380845Y-86118829D01*
X106699431Y-86182200D01*
X107930569Y-86182200D01*
X108249155Y-86118829D01*
X108610432Y-85877432D01*
X108780170Y-85623400D01*
X113190060Y-85623400D01*
X113647259Y-86080600D01*
X113366669Y-86080600D01*
X113366669Y-85979000D01*
X113341042Y-85850162D01*
X113268061Y-85740939D01*
X113158838Y-85667958D01*
X113030000Y-85642331D01*
X110490000Y-85642331D01*
X110361162Y-85667958D01*
X110251939Y-85740939D01*
X110178958Y-85850162D01*
X110153331Y-85979000D01*
X110153331Y-87249000D01*
X110178958Y-87377838D01*
X110251939Y-87487061D01*
X110361162Y-87560042D01*
X110490000Y-87585669D01*
X113030000Y-87585669D01*
X113158838Y-87560042D01*
X113268061Y-87487061D01*
X113341042Y-87377838D01*
X113366669Y-87249000D01*
X113366669Y-87147400D01*
X114882473Y-87147400D01*
X114934999Y-87157848D01*
X114987525Y-87147400D01*
X116503331Y-87147400D01*
X116503331Y-87249000D01*
X116528958Y-87377838D01*
X116601939Y-87487061D01*
X116711162Y-87560042D01*
X116840000Y-87585669D01*
X119380000Y-87585669D01*
X119468900Y-87567986D01*
X119468900Y-89720374D01*
X119458452Y-89772900D01*
X119468900Y-89825426D01*
X119468900Y-89825430D01*
X119499849Y-89981021D01*
X119617741Y-90157459D01*
X119662277Y-90187217D01*
X122021601Y-92546542D01*
X122021600Y-105317140D01*
X121775573Y-105152750D01*
X121285000Y-105055169D01*
X120794426Y-105152750D01*
X120378538Y-105430638D01*
X120100650Y-105846527D01*
X120027700Y-106213272D01*
X120027700Y-107146729D01*
X120100650Y-107513474D01*
X120378539Y-107929362D01*
X120794427Y-108207250D01*
X121285000Y-108304831D01*
X121775574Y-108207250D01*
X122191462Y-107929362D01*
X122192228Y-107928216D01*
X122214977Y-107943417D01*
X122902684Y-108631125D01*
X122932441Y-108675659D01*
X123108878Y-108793551D01*
X123264469Y-108824500D01*
X123264473Y-108824500D01*
X123317000Y-108834948D01*
X123369527Y-108824500D01*
X126842074Y-108824500D01*
X126894600Y-108834948D01*
X126947126Y-108824500D01*
X126947131Y-108824500D01*
X127102722Y-108793551D01*
X127279159Y-108675659D01*
X127308917Y-108631123D01*
X128184625Y-107755416D01*
X128229159Y-107725659D01*
X128289081Y-107635980D01*
X128387754Y-107874199D01*
X128980801Y-108467246D01*
X129755653Y-108788200D01*
X130594347Y-108788200D01*
X131369199Y-108467246D01*
X131962246Y-107874199D01*
X132193873Y-107315000D01*
X147588475Y-107315000D01*
X147732383Y-108038473D01*
X148142197Y-108651803D01*
X148755527Y-109061617D01*
X149296382Y-109169200D01*
X151693618Y-109169200D01*
X152234473Y-109061617D01*
X152847803Y-108651803D01*
X153257617Y-108038473D01*
X153401525Y-107315000D01*
X153257617Y-106591527D01*
X152847803Y-105978197D01*
X152234473Y-105568383D01*
X151693618Y-105460800D01*
X149296382Y-105460800D01*
X148755527Y-105568383D01*
X148142197Y-105978197D01*
X147732383Y-106591527D01*
X147588475Y-107315000D01*
X132193873Y-107315000D01*
X132283200Y-107099347D01*
X132283200Y-106260653D01*
X131962246Y-105485801D01*
X131632445Y-105156000D01*
X140208000Y-105156000D01*
X140208000Y-105410000D01*
X140362941Y-105934941D01*
X140706974Y-106360630D01*
X141187723Y-106622260D01*
X141261930Y-106637220D01*
X141478000Y-106514720D01*
X141478000Y-105156000D01*
X141732000Y-105156000D01*
X141732000Y-106514720D01*
X141948070Y-106637220D01*
X142022277Y-106622260D01*
X142503026Y-106360630D01*
X142847059Y-105934941D01*
X143002000Y-105410000D01*
X143002000Y-105156000D01*
X141732000Y-105156000D01*
X141478000Y-105156000D01*
X140208000Y-105156000D01*
X131632445Y-105156000D01*
X131369199Y-104892754D01*
X130594347Y-104571800D01*
X129755653Y-104571800D01*
X128980801Y-104892754D01*
X128387754Y-105485801D01*
X128378000Y-105509349D01*
X128378000Y-104688540D01*
X130190025Y-102876516D01*
X130234559Y-102846759D01*
X130352451Y-102670322D01*
X130383400Y-102514731D01*
X130383400Y-102514727D01*
X130393848Y-102462200D01*
X130383400Y-102409673D01*
X130383400Y-92792669D01*
X130424336Y-92792669D01*
X130433875Y-92815698D01*
X130612503Y-92994327D01*
X130845892Y-93091000D01*
X130902352Y-93091000D01*
X131061102Y-92932250D01*
X131061102Y-91846400D01*
X131014470Y-91846400D01*
X131014470Y-91592400D01*
X131061102Y-91592400D01*
X131061102Y-91572400D01*
X131238902Y-91572400D01*
X131238902Y-91592400D01*
X131281413Y-91592400D01*
X131266600Y-91666870D01*
X131266600Y-91846400D01*
X131238902Y-91846400D01*
X131238902Y-92932250D01*
X131296700Y-92990048D01*
X131297550Y-92994322D01*
X131415442Y-93170759D01*
X131459975Y-93200515D01*
X139979400Y-101719941D01*
X139979400Y-102182469D01*
X139968951Y-102235000D01*
X140010349Y-102443122D01*
X140128241Y-102619559D01*
X140304678Y-102737451D01*
X140460269Y-102768400D01*
X140460270Y-102768400D01*
X140512800Y-102778849D01*
X140547678Y-102771911D01*
X140576171Y-102915154D01*
X140817568Y-103276432D01*
X141115122Y-103475251D01*
X140706974Y-103697370D01*
X140362941Y-104123059D01*
X140208000Y-104648000D01*
X140208000Y-104902000D01*
X141478000Y-104902000D01*
X141478000Y-104882000D01*
X141732000Y-104882000D01*
X141732000Y-104902000D01*
X143002000Y-104902000D01*
X143002000Y-104648000D01*
X142847059Y-104123059D01*
X142503026Y-103697370D01*
X142094878Y-103475250D01*
X142392432Y-103276432D01*
X142633829Y-102915155D01*
X142689766Y-102633942D01*
X142844678Y-102737451D01*
X143052800Y-102778849D01*
X143105330Y-102768400D01*
X143187830Y-102768400D01*
X143357568Y-103022432D01*
X143718845Y-103263829D01*
X144037431Y-103327200D01*
X144760569Y-103327200D01*
X145079155Y-103263829D01*
X145440432Y-103022432D01*
X145681829Y-102661155D01*
X145766597Y-102235000D01*
X145681829Y-101808845D01*
X145440432Y-101447568D01*
X145079155Y-101206171D01*
X144760569Y-101142800D01*
X144037431Y-101142800D01*
X143718845Y-101206171D01*
X143402497Y-101417547D01*
X143392828Y-101411086D01*
X142615366Y-100633626D01*
X142847059Y-100346941D01*
X143002000Y-99822000D01*
X143002000Y-99568000D01*
X141732000Y-99568000D01*
X141732000Y-99588000D01*
X141478000Y-99588000D01*
X141478000Y-99568000D01*
X140304541Y-99568000D01*
X139796541Y-99060000D01*
X140208000Y-99060000D01*
X140208000Y-99314000D01*
X141478000Y-99314000D01*
X141478000Y-97955280D01*
X141732000Y-97955280D01*
X141732000Y-99314000D01*
X143002000Y-99314000D01*
X143002000Y-99060000D01*
X142847059Y-98535059D01*
X142503026Y-98109370D01*
X142022277Y-97847740D01*
X141948070Y-97832780D01*
X141732000Y-97955280D01*
X141478000Y-97955280D01*
X141261930Y-97832780D01*
X141187723Y-97847740D01*
X140706974Y-98109370D01*
X140362941Y-98535059D01*
X140208000Y-99060000D01*
X139796541Y-99060000D01*
X137891541Y-97155000D01*
X147588475Y-97155000D01*
X147732383Y-97878473D01*
X148142197Y-98491803D01*
X148755527Y-98901617D01*
X149296382Y-99009200D01*
X151693618Y-99009200D01*
X152234473Y-98901617D01*
X152847803Y-98491803D01*
X153257617Y-97878473D01*
X153401525Y-97155000D01*
X153257617Y-96431527D01*
X152847803Y-95818197D01*
X152234473Y-95408383D01*
X151693618Y-95300800D01*
X149296382Y-95300800D01*
X148755527Y-95408383D01*
X148142197Y-95818197D01*
X147732383Y-96431527D01*
X147588475Y-97155000D01*
X137891541Y-97155000D01*
X133518535Y-92781995D01*
X133572199Y-92792669D01*
X133927799Y-92792669D01*
X134056637Y-92767042D01*
X134165860Y-92694061D01*
X134238841Y-92584838D01*
X134264468Y-92456000D01*
X134264468Y-91867109D01*
X134283400Y-91771931D01*
X134283400Y-89682727D01*
X134293848Y-89630200D01*
X134283400Y-89577673D01*
X134283400Y-89577669D01*
X134252451Y-89422078D01*
X134134559Y-89245641D01*
X134090026Y-89215885D01*
X133434117Y-88559977D01*
X133404359Y-88515441D01*
X133227922Y-88397549D01*
X133072331Y-88366600D01*
X133072326Y-88366600D01*
X133026269Y-88357439D01*
X133026269Y-87274400D01*
X133002294Y-87153869D01*
X133277798Y-87153869D01*
X133406636Y-87128242D01*
X133424999Y-87115972D01*
X133443361Y-87128242D01*
X133572199Y-87153869D01*
X133927799Y-87153869D01*
X134056637Y-87128242D01*
X134165860Y-87055261D01*
X134238841Y-86946038D01*
X134264468Y-86817200D01*
X134264468Y-86228309D01*
X134283400Y-86133131D01*
X134283400Y-85436054D01*
X134321532Y-85420259D01*
X134539459Y-85202332D01*
X134657400Y-84917597D01*
X134657400Y-84609403D01*
X134539459Y-84324668D01*
X134321532Y-84106741D01*
X134233333Y-84070208D01*
X137658541Y-80645000D01*
X147588475Y-80645000D01*
X147732383Y-81368473D01*
X148142197Y-81981803D01*
X148755527Y-82391617D01*
X149296382Y-82499200D01*
X151693618Y-82499200D01*
X152234473Y-82391617D01*
X152847803Y-81981803D01*
X153257617Y-81368473D01*
X153401525Y-80645000D01*
X153257617Y-79921527D01*
X152847803Y-79308197D01*
X152234473Y-78898383D01*
X151693618Y-78790800D01*
X149296382Y-78790800D01*
X148755527Y-78898383D01*
X148142197Y-79308197D01*
X147732383Y-79921527D01*
X147588475Y-80645000D01*
X137658541Y-80645000D01*
X139817541Y-78486000D01*
X140208000Y-78486000D01*
X140208000Y-78740000D01*
X140362941Y-79264941D01*
X140706974Y-79690630D01*
X141187723Y-79952260D01*
X141261930Y-79967220D01*
X141478000Y-79844720D01*
X141478000Y-78486000D01*
X141732000Y-78486000D01*
X141732000Y-79844720D01*
X141948070Y-79967220D01*
X142022277Y-79952260D01*
X142503026Y-79690630D01*
X142847059Y-79264941D01*
X143002000Y-78740000D01*
X143002000Y-78486000D01*
X141732000Y-78486000D01*
X141478000Y-78486000D01*
X140208000Y-78486000D01*
X139817541Y-78486000D01*
X140208000Y-78095541D01*
X140208000Y-78232000D01*
X141478000Y-78232000D01*
X141478000Y-78212000D01*
X141732000Y-78212000D01*
X141732000Y-78232000D01*
X143002000Y-78232000D01*
X143002000Y-77978000D01*
X142847059Y-77453059D01*
X142615366Y-77166374D01*
X143392828Y-76388914D01*
X143402497Y-76382453D01*
X143718845Y-76593829D01*
X144037431Y-76657200D01*
X144760569Y-76657200D01*
X145079155Y-76593829D01*
X145440432Y-76352432D01*
X145681829Y-75991155D01*
X145766597Y-75565000D01*
X145681829Y-75138845D01*
X145440432Y-74777568D01*
X145079155Y-74536171D01*
X144760569Y-74472800D01*
X144037431Y-74472800D01*
X143718845Y-74536171D01*
X143357568Y-74777568D01*
X143187830Y-75031600D01*
X143105330Y-75031600D01*
X143052800Y-75021151D01*
X143000269Y-75031600D01*
X142844678Y-75062549D01*
X142689766Y-75166058D01*
X142633829Y-74884846D01*
X142392432Y-74523568D01*
X142094878Y-74324749D01*
X142503026Y-74102630D01*
X142847059Y-73676941D01*
X143002000Y-73152000D01*
X143002000Y-72898000D01*
X141732000Y-72898000D01*
X141732000Y-72918000D01*
X141478000Y-72918000D01*
X141478000Y-72898000D01*
X140208000Y-72898000D01*
X140208000Y-73152000D01*
X140362941Y-73676941D01*
X140706974Y-74102630D01*
X141115122Y-74324750D01*
X140817569Y-74523568D01*
X140576171Y-74884845D01*
X140547678Y-75028090D01*
X140512799Y-75021152D01*
X140460273Y-75031600D01*
X140460269Y-75031600D01*
X140304678Y-75062549D01*
X140128241Y-75180441D01*
X140098485Y-75224974D01*
X132969000Y-82354460D01*
X132969000Y-81565750D01*
X132810250Y-81407000D01*
X131826000Y-81407000D01*
X131826000Y-83026250D01*
X131984750Y-83185000D01*
X132138460Y-83185000D01*
X132109977Y-83213483D01*
X132065441Y-83243241D01*
X131947549Y-83419679D01*
X131916600Y-83575270D01*
X131916600Y-83575274D01*
X131906152Y-83627800D01*
X131916600Y-83680326D01*
X131916600Y-84840048D01*
X131888898Y-84867750D01*
X131888898Y-85039278D01*
X131866126Y-84984302D01*
X131687498Y-84805673D01*
X131621814Y-84778466D01*
X131552348Y-84709000D01*
X131495888Y-84709000D01*
X131474999Y-84717653D01*
X131454109Y-84709000D01*
X131397649Y-84709000D01*
X131328183Y-84778466D01*
X131262499Y-84805673D01*
X131149998Y-84918175D01*
X131037497Y-84805673D01*
X130971816Y-84778467D01*
X130902349Y-84709000D01*
X130845889Y-84709000D01*
X130824999Y-84717653D01*
X130804108Y-84709000D01*
X130747648Y-84709000D01*
X130678181Y-84778467D01*
X130612500Y-84805673D01*
X130499999Y-84918175D01*
X130387498Y-84805673D01*
X130321814Y-84778466D01*
X130252348Y-84709000D01*
X130195888Y-84709000D01*
X130174999Y-84717653D01*
X130154109Y-84709000D01*
X130097649Y-84709000D01*
X130028183Y-84778466D01*
X129962499Y-84805673D01*
X129783871Y-84984302D01*
X129761099Y-85039278D01*
X129761099Y-84867750D01*
X129605745Y-84712396D01*
X129931226Y-84386915D01*
X129975759Y-84357159D01*
X130093651Y-84180722D01*
X130124600Y-84025131D01*
X130124600Y-84025127D01*
X130135048Y-83972601D01*
X130124600Y-83920075D01*
X130124600Y-81565750D01*
X130429000Y-81565750D01*
X130429000Y-82676310D01*
X130525673Y-82909699D01*
X130704302Y-83088327D01*
X130937691Y-83185000D01*
X131413250Y-83185000D01*
X131572000Y-83026250D01*
X131572000Y-81407000D01*
X130587750Y-81407000D01*
X130429000Y-81565750D01*
X130124600Y-81565750D01*
X130124600Y-79883690D01*
X130429000Y-79883690D01*
X130429000Y-80994250D01*
X130587750Y-81153000D01*
X131572000Y-81153000D01*
X131572000Y-79533750D01*
X131826000Y-79533750D01*
X131826000Y-81153000D01*
X132810250Y-81153000D01*
X132969000Y-80994250D01*
X132969000Y-79883690D01*
X132872327Y-79650301D01*
X132693698Y-79471673D01*
X132460309Y-79375000D01*
X131984750Y-79375000D01*
X131826000Y-79533750D01*
X131572000Y-79533750D01*
X131413250Y-79375000D01*
X130937691Y-79375000D01*
X130704302Y-79471673D01*
X130525673Y-79650301D01*
X130429000Y-79883690D01*
X130124600Y-79883690D01*
X130124600Y-76938727D01*
X130135048Y-76886200D01*
X130124600Y-76833673D01*
X130124600Y-76833669D01*
X130093651Y-76678078D01*
X130054408Y-76619347D01*
X130005516Y-76546174D01*
X130005513Y-76546171D01*
X129975759Y-76501641D01*
X129931228Y-76471887D01*
X126164237Y-72704897D01*
X126365000Y-72744831D01*
X126855574Y-72647250D01*
X127271462Y-72369362D01*
X127549350Y-71953474D01*
X127622300Y-71586728D01*
X127622300Y-70700653D01*
X128066800Y-70700653D01*
X128066800Y-71539347D01*
X128387754Y-72314199D01*
X128980801Y-72907246D01*
X129755653Y-73228200D01*
X130594347Y-73228200D01*
X131369199Y-72907246D01*
X131886445Y-72390000D01*
X140208000Y-72390000D01*
X140208000Y-72644000D01*
X141478000Y-72644000D01*
X141478000Y-71285280D01*
X141732000Y-71285280D01*
X141732000Y-72644000D01*
X143002000Y-72644000D01*
X143002000Y-72390000D01*
X142847059Y-71865059D01*
X142503026Y-71439370D01*
X142022277Y-71177740D01*
X141948070Y-71162780D01*
X141732000Y-71285280D01*
X141478000Y-71285280D01*
X141261930Y-71162780D01*
X141187723Y-71177740D01*
X140706974Y-71439370D01*
X140362941Y-71865059D01*
X140208000Y-72390000D01*
X131886445Y-72390000D01*
X131962246Y-72314199D01*
X132283200Y-71539347D01*
X132283200Y-70700653D01*
X132193874Y-70485000D01*
X147588475Y-70485000D01*
X147732383Y-71208473D01*
X148142197Y-71821803D01*
X148755527Y-72231617D01*
X149296382Y-72339200D01*
X151693618Y-72339200D01*
X152234473Y-72231617D01*
X152847803Y-71821803D01*
X153257617Y-71208473D01*
X153401525Y-70485000D01*
X153257617Y-69761527D01*
X152847803Y-69148197D01*
X152234473Y-68738383D01*
X151693618Y-68630800D01*
X149296382Y-68630800D01*
X148755527Y-68738383D01*
X148142197Y-69148197D01*
X147732383Y-69761527D01*
X147588475Y-70485000D01*
X132193874Y-70485000D01*
X131962246Y-69925801D01*
X131369199Y-69332754D01*
X130594347Y-69011800D01*
X129755653Y-69011800D01*
X128980801Y-69332754D01*
X128387754Y-69925801D01*
X128066800Y-70700653D01*
X127622300Y-70700653D01*
X127622300Y-70653271D01*
X127549350Y-70286526D01*
X127271462Y-69870638D01*
X126855573Y-69592750D01*
X126365000Y-69495169D01*
X125874426Y-69592750D01*
X125458538Y-69870638D01*
X125180650Y-70286527D01*
X125121490Y-70583946D01*
X125082300Y-70576151D01*
X125067544Y-70579086D01*
X125009350Y-70286526D01*
X124731462Y-69870638D01*
X124315573Y-69592750D01*
X123825000Y-69495169D01*
X123334426Y-69592750D01*
X122918538Y-69870638D01*
X122909365Y-69884366D01*
X122895025Y-69874784D01*
X122217917Y-69197677D01*
X122188159Y-69153141D01*
X122011722Y-69035249D01*
X121856131Y-69004300D01*
X121856126Y-69004300D01*
X121803600Y-68993852D01*
X121751074Y-69004300D01*
X105533225Y-69004300D01*
X105480699Y-68993852D01*
X105428173Y-69004300D01*
X105428169Y-69004300D01*
X105272578Y-69035249D01*
X105096141Y-69153141D01*
X105066384Y-69197675D01*
X104422277Y-69841783D01*
X104395277Y-69859824D01*
X103995573Y-69592750D01*
X103505000Y-69495169D01*
X103014426Y-69592750D01*
X102598538Y-69870638D01*
X102320650Y-70286527D01*
X102247700Y-70653272D01*
X102222300Y-70653272D01*
X102222300Y-70653271D01*
X102149350Y-70286526D01*
X101871462Y-69870638D01*
X101455573Y-69592750D01*
X100965000Y-69495169D01*
X100474426Y-69592750D01*
X100058538Y-69870638D01*
X99780650Y-70286527D01*
X99707700Y-70653272D01*
X99682300Y-70653272D01*
X99682300Y-70653271D01*
X99609350Y-70286526D01*
X99331462Y-69870638D01*
X98915573Y-69592750D01*
X98425000Y-69495169D01*
X97934426Y-69592750D01*
X97518538Y-69870638D01*
X97240650Y-70286527D01*
X97167700Y-70653272D01*
X97142300Y-70653272D01*
X97142300Y-70653271D01*
X97069350Y-70286526D01*
X96791462Y-69870638D01*
X96375573Y-69592750D01*
X95885000Y-69495169D01*
X95394426Y-69592750D01*
X94978538Y-69870638D01*
X94700650Y-70286527D01*
X94627700Y-70653272D01*
X94602300Y-70653272D01*
X94602300Y-70653271D01*
X94529350Y-70286526D01*
X94251462Y-69870638D01*
X93835573Y-69592750D01*
X93345000Y-69495169D01*
X92854426Y-69592750D01*
X92438538Y-69870638D01*
X92232794Y-70178555D01*
X92199591Y-70061978D01*
X91819769Y-69582727D01*
X91285458Y-69285308D01*
X91173994Y-69259207D01*
X90932000Y-69379508D01*
X90678000Y-69379508D01*
X90436006Y-69259207D01*
X90324542Y-69285308D01*
X89790231Y-69582727D01*
X89528769Y-69912634D01*
X89528769Y-69850000D01*
X89503142Y-69721162D01*
X89430161Y-69611939D01*
X89320938Y-69538958D01*
X89192100Y-69513331D01*
X87337900Y-69513331D01*
X87209062Y-69538958D01*
X87099839Y-69611939D01*
X87026858Y-69721162D01*
X87001231Y-69850000D01*
X87001231Y-72390000D01*
X87026858Y-72518838D01*
X87099839Y-72628061D01*
X87209062Y-72701042D01*
X87337900Y-72726669D01*
X87504190Y-72726669D01*
X87064575Y-73166285D01*
X87020042Y-73196041D01*
X86990286Y-73240574D01*
X86990285Y-73240575D01*
X86902150Y-73372478D01*
X86860752Y-73580600D01*
X86169500Y-73580600D01*
X86169500Y-68389500D01*
X155765501Y-68389500D01*
X155765500Y-109410500D01*
G36*
X127887162Y-82861042D02*
X128016000Y-82886669D01*
X129057800Y-82886669D01*
X129057800Y-83751659D01*
X128209975Y-84599485D01*
X128165442Y-84629241D01*
X128135686Y-84673774D01*
X128135685Y-84673775D01*
X128047553Y-84805673D01*
X128047550Y-84805678D01*
X128046700Y-84809951D01*
X127988901Y-84867750D01*
X127988901Y-85953600D01*
X128016600Y-85953600D01*
X128016600Y-86133130D01*
X128031413Y-86207600D01*
X127988901Y-86207600D01*
X127988901Y-86227600D01*
X127811101Y-86227600D01*
X127811101Y-86207600D01*
X127783400Y-86207600D01*
X127783400Y-85953600D01*
X127811101Y-85953600D01*
X127811101Y-84867750D01*
X127783400Y-84840049D01*
X127783400Y-82791710D01*
X127887162Y-82861042D01*
X127887162Y-82861042D01*
G37*
X127887162Y-82861042D02*
X128016000Y-82886669D01*
X129057800Y-82886669D01*
X129057800Y-83751659D01*
X128209975Y-84599485D01*
X128165442Y-84629241D01*
X128135686Y-84673774D01*
X128135685Y-84673775D01*
X128047553Y-84805673D01*
X128047550Y-84805678D01*
X128046700Y-84809951D01*
X127988901Y-84867750D01*
X127988901Y-85953600D01*
X128016600Y-85953600D01*
X128016600Y-86133130D01*
X128031413Y-86207600D01*
X127988901Y-86207600D01*
X127988901Y-86227600D01*
X127811101Y-86227600D01*
X127811101Y-86207600D01*
X127783400Y-86207600D01*
X127783400Y-85953600D01*
X127811101Y-85953600D01*
X127811101Y-84867750D01*
X127783400Y-84840049D01*
X127783400Y-82791710D01*
X127887162Y-82861042D01*
G36*
X129825948Y-86227600D02*
X129761099Y-86227600D01*
X129761099Y-86207602D01*
X129845946Y-86207602D01*
X129825948Y-86227600D01*
X129825948Y-86227600D01*
G37*
X129825948Y-86227600D02*
X129761099Y-86227600D01*
X129761099Y-86207602D01*
X129845946Y-86207602D01*
X129825948Y-86227600D01*
G36*
X131888898Y-86227600D02*
X131824049Y-86227600D01*
X131804051Y-86207602D01*
X131888898Y-86207602D01*
X131888898Y-86227600D01*
X131888898Y-86227600D01*
G37*
X131888898Y-86227600D02*
X131824049Y-86227600D01*
X131804051Y-86207602D01*
X131888898Y-86207602D01*
X131888898Y-86227600D01*
G36*
X131296999Y-86207600D02*
X130352998Y-86207600D01*
X130352998Y-85953600D01*
X131296999Y-85953600D01*
X131296999Y-86207600D01*
X131296999Y-86207600D01*
G37*
X131296999Y-86207600D02*
X130352998Y-86207600D01*
X130352998Y-85953600D01*
X131296999Y-85953600D01*
X131296999Y-86207600D01*
G36*
X129845946Y-85953598D02*
X129761099Y-85953598D01*
X129761099Y-85868751D01*
X129845946Y-85953598D01*
X129845946Y-85953598D01*
G37*
X129845946Y-85953598D02*
X129761099Y-85953598D01*
X129761099Y-85868751D01*
X129845946Y-85953598D01*
G36*
X131888898Y-85953598D02*
X131804051Y-85953598D01*
X131888898Y-85868751D01*
X131888898Y-85953598D01*
X131888898Y-85953598D01*
G37*
X131888898Y-85953598D02*
X131804051Y-85953598D01*
X131888898Y-85868751D01*
X131888898Y-85953598D01*
G04 #@! TD*
M02*
