G04 #@! TF.GenerationSoftware,KiCad,Pcbnew,6.0.0-rc1-unknown-d4e4359~66~ubuntu18.04.1*
G04 #@! TF.CreationDate,2018-09-17T12:26:01-04:00*
G04 #@! TF.ProjectId,dac_controller_3x2,6461635F636F6E74726F6C6C65725F33,1.0*
G04 #@! TF.SameCoordinates,Original*
G04 #@! TF.FileFunction,Legend,Top*
G04 #@! TF.FilePolarity,Positive*
%FSLAX46Y46*%
G04 Gerber Fmt 4.6, Leading zero omitted, Abs format (unit mm)*
G04 Created by KiCad (PCBNEW 6.0.0-rc1-unknown-d4e4359~66~ubuntu18.04.1) date Mon Sep 17 12:26:01 2018*
%MOMM*%
%LPD*%
G01*
G04 APERTURE LIST*
%ADD10C,0.254000*%
%ADD11C,0.228600*%
%ADD12C,0.190500*%
%ADD13C,0.381000*%
%ADD14C,0.317500*%
%ADD15C,3.556000*%
%ADD16O,1.854200X2.540000*%
%ADD17R,1.854200X2.540000*%
%ADD18O,5.080000X3.048000*%
%ADD19O,2.032000X1.524000*%
%ADD20O,1.524000X2.032000*%
%ADD21O,2.540000X1.524000*%
%ADD22R,2.540000X1.524000*%
G04 APERTURE END LIST*
D10*
X114372571Y-92867238D02*
X114372571Y-92093142D01*
X114759619Y-92480190D02*
X113985523Y-92480190D01*
X113695238Y-90883619D02*
X115001523Y-91754476D01*
X114372571Y-90544952D02*
X114372571Y-89770857D01*
X114759619Y-88754857D02*
X114759619Y-89335428D01*
X114759619Y-89045142D02*
X113743619Y-89045142D01*
X113888761Y-89141904D01*
X113985523Y-89238666D01*
X114033904Y-89335428D01*
X113840380Y-88367809D02*
X113792000Y-88319428D01*
X113743619Y-88222666D01*
X113743619Y-87980761D01*
X113792000Y-87884000D01*
X113840380Y-87835619D01*
X113937142Y-87787238D01*
X114033904Y-87787238D01*
X114179047Y-87835619D01*
X114759619Y-88416190D01*
X114759619Y-87787238D01*
X113743619Y-87496952D02*
X114759619Y-87158285D01*
X113743619Y-86819619D01*
X114759619Y-86480952D02*
X113743619Y-86480952D01*
X113743619Y-86239047D01*
X113792000Y-86093904D01*
X113888761Y-85997142D01*
X113985523Y-85948761D01*
X114179047Y-85900380D01*
X114324190Y-85900380D01*
X114517714Y-85948761D01*
X114614476Y-85997142D01*
X114711238Y-86093904D01*
X114759619Y-86239047D01*
X114759619Y-86480952D01*
X114662857Y-84884380D02*
X114711238Y-84932761D01*
X114759619Y-85077904D01*
X114759619Y-85174666D01*
X114711238Y-85319809D01*
X114614476Y-85416571D01*
X114517714Y-85464952D01*
X114324190Y-85513333D01*
X114179047Y-85513333D01*
X113985523Y-85464952D01*
X113888761Y-85416571D01*
X113792000Y-85319809D01*
X113743619Y-85174666D01*
X113743619Y-85077904D01*
X113792000Y-84932761D01*
X113840380Y-84884380D01*
D11*
X156210000Y-67945000D02*
X85725000Y-67945000D01*
X156210000Y-109855000D02*
X156210000Y-67945000D01*
X85725000Y-109855000D02*
X156210000Y-109855000D01*
X85725000Y-67945000D02*
X85725000Y-109855000D01*
D12*
X92437857Y-104599619D02*
X92437857Y-103583619D01*
X92873285Y-104599619D02*
X92873285Y-104067428D01*
X92824904Y-103970666D01*
X92728142Y-103922285D01*
X92583000Y-103922285D01*
X92486238Y-103970666D01*
X92437857Y-104019047D01*
X93211952Y-103922285D02*
X93599000Y-103922285D01*
X93357095Y-103583619D02*
X93357095Y-104454476D01*
X93405476Y-104551238D01*
X93502238Y-104599619D01*
X93599000Y-104599619D01*
X93792523Y-103922285D02*
X94179571Y-103922285D01*
X93937666Y-103583619D02*
X93937666Y-104454476D01*
X93986047Y-104551238D01*
X94082809Y-104599619D01*
X94179571Y-104599619D01*
X94518238Y-103922285D02*
X94518238Y-104938285D01*
X94518238Y-103970666D02*
X94615000Y-103922285D01*
X94808523Y-103922285D01*
X94905285Y-103970666D01*
X94953666Y-104019047D01*
X95002047Y-104115809D01*
X95002047Y-104406095D01*
X94953666Y-104502857D01*
X94905285Y-104551238D01*
X94808523Y-104599619D01*
X94615000Y-104599619D01*
X94518238Y-104551238D01*
X95389095Y-104551238D02*
X95485857Y-104599619D01*
X95679380Y-104599619D01*
X95776142Y-104551238D01*
X95824523Y-104454476D01*
X95824523Y-104406095D01*
X95776142Y-104309333D01*
X95679380Y-104260952D01*
X95534238Y-104260952D01*
X95437476Y-104212571D01*
X95389095Y-104115809D01*
X95389095Y-104067428D01*
X95437476Y-103970666D01*
X95534238Y-103922285D01*
X95679380Y-103922285D01*
X95776142Y-103970666D01*
X96259952Y-104502857D02*
X96308333Y-104551238D01*
X96259952Y-104599619D01*
X96211571Y-104551238D01*
X96259952Y-104502857D01*
X96259952Y-104599619D01*
X96259952Y-103970666D02*
X96308333Y-104019047D01*
X96259952Y-104067428D01*
X96211571Y-104019047D01*
X96259952Y-103970666D01*
X96259952Y-104067428D01*
X97469476Y-103535238D02*
X96598619Y-104841523D01*
X98533857Y-103535238D02*
X97663000Y-104841523D01*
X99307952Y-103922285D02*
X99307952Y-104744761D01*
X99259571Y-104841523D01*
X99211190Y-104889904D01*
X99114428Y-104938285D01*
X98969285Y-104938285D01*
X98872523Y-104889904D01*
X99307952Y-104551238D02*
X99211190Y-104599619D01*
X99017666Y-104599619D01*
X98920904Y-104551238D01*
X98872523Y-104502857D01*
X98824142Y-104406095D01*
X98824142Y-104115809D01*
X98872523Y-104019047D01*
X98920904Y-103970666D01*
X99017666Y-103922285D01*
X99211190Y-103922285D01*
X99307952Y-103970666D01*
X99791761Y-104599619D02*
X99791761Y-103922285D01*
X99791761Y-103583619D02*
X99743380Y-103632000D01*
X99791761Y-103680380D01*
X99840142Y-103632000D01*
X99791761Y-103583619D01*
X99791761Y-103680380D01*
X100130428Y-103922285D02*
X100517476Y-103922285D01*
X100275571Y-103583619D02*
X100275571Y-104454476D01*
X100323952Y-104551238D01*
X100420714Y-104599619D01*
X100517476Y-104599619D01*
X100856142Y-104599619D02*
X100856142Y-103583619D01*
X101291571Y-104599619D02*
X101291571Y-104067428D01*
X101243190Y-103970666D01*
X101146428Y-103922285D01*
X101001285Y-103922285D01*
X100904523Y-103970666D01*
X100856142Y-104019047D01*
X102210809Y-103922285D02*
X102210809Y-104599619D01*
X101775380Y-103922285D02*
X101775380Y-104454476D01*
X101823761Y-104551238D01*
X101920523Y-104599619D01*
X102065666Y-104599619D01*
X102162428Y-104551238D01*
X102210809Y-104502857D01*
X102694619Y-104599619D02*
X102694619Y-103583619D01*
X102694619Y-103970666D02*
X102791380Y-103922285D01*
X102984904Y-103922285D01*
X103081666Y-103970666D01*
X103130047Y-104019047D01*
X103178428Y-104115809D01*
X103178428Y-104406095D01*
X103130047Y-104502857D01*
X103081666Y-104551238D01*
X102984904Y-104599619D01*
X102791380Y-104599619D01*
X102694619Y-104551238D01*
X103613857Y-104502857D02*
X103662238Y-104551238D01*
X103613857Y-104599619D01*
X103565476Y-104551238D01*
X103613857Y-104502857D01*
X103613857Y-104599619D01*
X104533095Y-104551238D02*
X104436333Y-104599619D01*
X104242809Y-104599619D01*
X104146047Y-104551238D01*
X104097666Y-104502857D01*
X104049285Y-104406095D01*
X104049285Y-104115809D01*
X104097666Y-104019047D01*
X104146047Y-103970666D01*
X104242809Y-103922285D01*
X104436333Y-103922285D01*
X104533095Y-103970666D01*
X105113666Y-104599619D02*
X105016904Y-104551238D01*
X104968523Y-104502857D01*
X104920142Y-104406095D01*
X104920142Y-104115809D01*
X104968523Y-104019047D01*
X105016904Y-103970666D01*
X105113666Y-103922285D01*
X105258809Y-103922285D01*
X105355571Y-103970666D01*
X105403952Y-104019047D01*
X105452333Y-104115809D01*
X105452333Y-104406095D01*
X105403952Y-104502857D01*
X105355571Y-104551238D01*
X105258809Y-104599619D01*
X105113666Y-104599619D01*
X105887761Y-104599619D02*
X105887761Y-103922285D01*
X105887761Y-104019047D02*
X105936142Y-103970666D01*
X106032904Y-103922285D01*
X106178047Y-103922285D01*
X106274809Y-103970666D01*
X106323190Y-104067428D01*
X106323190Y-104599619D01*
X106323190Y-104067428D02*
X106371571Y-103970666D01*
X106468333Y-103922285D01*
X106613476Y-103922285D01*
X106710238Y-103970666D01*
X106758619Y-104067428D01*
X106758619Y-104599619D01*
X107968142Y-103535238D02*
X107097285Y-104841523D01*
X108306809Y-103922285D02*
X108306809Y-104793142D01*
X108258428Y-104889904D01*
X108161666Y-104938285D01*
X108113285Y-104938285D01*
X108306809Y-103583619D02*
X108258428Y-103632000D01*
X108306809Y-103680380D01*
X108355190Y-103632000D01*
X108306809Y-103583619D01*
X108306809Y-103680380D01*
X109226047Y-104599619D02*
X109226047Y-104067428D01*
X109177666Y-103970666D01*
X109080904Y-103922285D01*
X108887380Y-103922285D01*
X108790619Y-103970666D01*
X109226047Y-104551238D02*
X109129285Y-104599619D01*
X108887380Y-104599619D01*
X108790619Y-104551238D01*
X108742238Y-104454476D01*
X108742238Y-104357714D01*
X108790619Y-104260952D01*
X108887380Y-104212571D01*
X109129285Y-104212571D01*
X109226047Y-104164190D01*
X109709857Y-103922285D02*
X109709857Y-104599619D01*
X109709857Y-104019047D02*
X109758238Y-103970666D01*
X109855000Y-103922285D01*
X110000142Y-103922285D01*
X110096904Y-103970666D01*
X110145285Y-104067428D01*
X110145285Y-104599619D01*
X111016142Y-104551238D02*
X110919380Y-104599619D01*
X110725857Y-104599619D01*
X110629095Y-104551238D01*
X110580714Y-104454476D01*
X110580714Y-104067428D01*
X110629095Y-103970666D01*
X110725857Y-103922285D01*
X110919380Y-103922285D01*
X111016142Y-103970666D01*
X111064523Y-104067428D01*
X111064523Y-104164190D01*
X110580714Y-104260952D01*
X111645095Y-104599619D02*
X111548333Y-104551238D01*
X111499952Y-104454476D01*
X111499952Y-103583619D01*
X112032142Y-104599619D02*
X112032142Y-103922285D01*
X112032142Y-103583619D02*
X111983761Y-103632000D01*
X112032142Y-103680380D01*
X112080523Y-103632000D01*
X112032142Y-103583619D01*
X112032142Y-103680380D01*
X112951380Y-104599619D02*
X112951380Y-104067428D01*
X112903000Y-103970666D01*
X112806238Y-103922285D01*
X112612714Y-103922285D01*
X112515952Y-103970666D01*
X112951380Y-104551238D02*
X112854619Y-104599619D01*
X112612714Y-104599619D01*
X112515952Y-104551238D01*
X112467571Y-104454476D01*
X112467571Y-104357714D01*
X112515952Y-104260952D01*
X112612714Y-104212571D01*
X112854619Y-104212571D01*
X112951380Y-104164190D01*
X113435190Y-104212571D02*
X114209285Y-104212571D01*
X114693095Y-104599619D02*
X114693095Y-103922285D01*
X114693095Y-104019047D02*
X114741476Y-103970666D01*
X114838238Y-103922285D01*
X114983380Y-103922285D01*
X115080142Y-103970666D01*
X115128523Y-104067428D01*
X115128523Y-104599619D01*
X115128523Y-104067428D02*
X115176904Y-103970666D01*
X115273666Y-103922285D01*
X115418809Y-103922285D01*
X115515571Y-103970666D01*
X115563952Y-104067428D01*
X115563952Y-104599619D01*
X116192904Y-104599619D02*
X116096142Y-104551238D01*
X116047761Y-104502857D01*
X115999380Y-104406095D01*
X115999380Y-104115809D01*
X116047761Y-104019047D01*
X116096142Y-103970666D01*
X116192904Y-103922285D01*
X116338047Y-103922285D01*
X116434809Y-103970666D01*
X116483190Y-104019047D01*
X116531571Y-104115809D01*
X116531571Y-104406095D01*
X116483190Y-104502857D01*
X116434809Y-104551238D01*
X116338047Y-104599619D01*
X116192904Y-104599619D01*
X117402428Y-104599619D02*
X117402428Y-103583619D01*
X117402428Y-104551238D02*
X117305666Y-104599619D01*
X117112142Y-104599619D01*
X117015380Y-104551238D01*
X116967000Y-104502857D01*
X116918619Y-104406095D01*
X116918619Y-104115809D01*
X116967000Y-104019047D01*
X117015380Y-103970666D01*
X117112142Y-103922285D01*
X117305666Y-103922285D01*
X117402428Y-103970666D01*
X118321666Y-103922285D02*
X118321666Y-104599619D01*
X117886238Y-103922285D02*
X117886238Y-104454476D01*
X117934619Y-104551238D01*
X118031380Y-104599619D01*
X118176523Y-104599619D01*
X118273285Y-104551238D01*
X118321666Y-104502857D01*
X118950619Y-104599619D02*
X118853857Y-104551238D01*
X118805476Y-104454476D01*
X118805476Y-103583619D01*
X119773095Y-104599619D02*
X119773095Y-104067428D01*
X119724714Y-103970666D01*
X119627952Y-103922285D01*
X119434428Y-103922285D01*
X119337666Y-103970666D01*
X119773095Y-104551238D02*
X119676333Y-104599619D01*
X119434428Y-104599619D01*
X119337666Y-104551238D01*
X119289285Y-104454476D01*
X119289285Y-104357714D01*
X119337666Y-104260952D01*
X119434428Y-104212571D01*
X119676333Y-104212571D01*
X119773095Y-104164190D01*
X120256904Y-104599619D02*
X120256904Y-103922285D01*
X120256904Y-104115809D02*
X120305285Y-104019047D01*
X120353666Y-103970666D01*
X120450428Y-103922285D01*
X120547190Y-103922285D01*
X120885857Y-104212571D02*
X121659952Y-104212571D01*
X122579190Y-104599619D02*
X122579190Y-103583619D01*
X122579190Y-104551238D02*
X122482428Y-104599619D01*
X122288904Y-104599619D01*
X122192142Y-104551238D01*
X122143761Y-104502857D01*
X122095380Y-104406095D01*
X122095380Y-104115809D01*
X122143761Y-104019047D01*
X122192142Y-103970666D01*
X122288904Y-103922285D01*
X122482428Y-103922285D01*
X122579190Y-103970666D01*
X123450047Y-104551238D02*
X123353285Y-104599619D01*
X123159761Y-104599619D01*
X123063000Y-104551238D01*
X123014619Y-104454476D01*
X123014619Y-104067428D01*
X123063000Y-103970666D01*
X123159761Y-103922285D01*
X123353285Y-103922285D01*
X123450047Y-103970666D01*
X123498428Y-104067428D01*
X123498428Y-104164190D01*
X123014619Y-104260952D01*
X123837095Y-103922285D02*
X124079000Y-104599619D01*
X124320904Y-103922285D01*
X124707952Y-104599619D02*
X124707952Y-103922285D01*
X124707952Y-103583619D02*
X124659571Y-103632000D01*
X124707952Y-103680380D01*
X124756333Y-103632000D01*
X124707952Y-103583619D01*
X124707952Y-103680380D01*
X125627190Y-104551238D02*
X125530428Y-104599619D01*
X125336904Y-104599619D01*
X125240142Y-104551238D01*
X125191761Y-104502857D01*
X125143380Y-104406095D01*
X125143380Y-104115809D01*
X125191761Y-104019047D01*
X125240142Y-103970666D01*
X125336904Y-103922285D01*
X125530428Y-103922285D01*
X125627190Y-103970666D01*
X126449666Y-104551238D02*
X126352904Y-104599619D01*
X126159380Y-104599619D01*
X126062619Y-104551238D01*
X126014238Y-104454476D01*
X126014238Y-104067428D01*
X126062619Y-103970666D01*
X126159380Y-103922285D01*
X126352904Y-103922285D01*
X126449666Y-103970666D01*
X126498047Y-104067428D01*
X126498047Y-104164190D01*
X126014238Y-104260952D01*
X126885095Y-104551238D02*
X126981857Y-104599619D01*
X127175380Y-104599619D01*
X127272142Y-104551238D01*
X127320523Y-104454476D01*
X127320523Y-104406095D01*
X127272142Y-104309333D01*
X127175380Y-104260952D01*
X127030238Y-104260952D01*
X126933476Y-104212571D01*
X126885095Y-104115809D01*
X126885095Y-104067428D01*
X126933476Y-103970666D01*
X127030238Y-103922285D01*
X127175380Y-103922285D01*
X127272142Y-103970666D01*
D10*
X86311619Y-97294095D02*
X87037333Y-97294095D01*
X87182476Y-97342476D01*
X87279238Y-97439238D01*
X87327619Y-97584380D01*
X87327619Y-97681142D01*
X87327619Y-96374857D02*
X86795428Y-96374857D01*
X86698666Y-96423238D01*
X86650285Y-96520000D01*
X86650285Y-96713523D01*
X86698666Y-96810285D01*
X87279238Y-96374857D02*
X87327619Y-96471619D01*
X87327619Y-96713523D01*
X87279238Y-96810285D01*
X87182476Y-96858666D01*
X87085714Y-96858666D01*
X86988952Y-96810285D01*
X86940571Y-96713523D01*
X86940571Y-96471619D01*
X86892190Y-96374857D01*
X86650285Y-95891047D02*
X87327619Y-95891047D01*
X86747047Y-95891047D02*
X86698666Y-95842666D01*
X86650285Y-95745904D01*
X86650285Y-95600761D01*
X86698666Y-95504000D01*
X86795428Y-95455619D01*
X87327619Y-95455619D01*
X87279238Y-94584761D02*
X87327619Y-94681523D01*
X87327619Y-94875047D01*
X87279238Y-94971809D01*
X87182476Y-95020190D01*
X86795428Y-95020190D01*
X86698666Y-94971809D01*
X86650285Y-94875047D01*
X86650285Y-94681523D01*
X86698666Y-94584761D01*
X86795428Y-94536380D01*
X86892190Y-94536380D01*
X86988952Y-95020190D01*
X87327619Y-93955809D02*
X87279238Y-94052571D01*
X87182476Y-94100952D01*
X86311619Y-94100952D01*
X87327619Y-93568761D02*
X86650285Y-93568761D01*
X86311619Y-93568761D02*
X86360000Y-93617142D01*
X86408380Y-93568761D01*
X86360000Y-93520380D01*
X86311619Y-93568761D01*
X86408380Y-93568761D01*
X87327619Y-92649523D02*
X86795428Y-92649523D01*
X86698666Y-92697904D01*
X86650285Y-92794666D01*
X86650285Y-92988190D01*
X86698666Y-93084952D01*
X87279238Y-92649523D02*
X87327619Y-92746285D01*
X87327619Y-92988190D01*
X87279238Y-93084952D01*
X87182476Y-93133333D01*
X87085714Y-93133333D01*
X86988952Y-93084952D01*
X86940571Y-92988190D01*
X86940571Y-92746285D01*
X86892190Y-92649523D01*
X87327619Y-91391619D02*
X86311619Y-91391619D01*
X87037333Y-91052952D01*
X86311619Y-90714285D01*
X87327619Y-90714285D01*
X87327619Y-90085333D02*
X87279238Y-90182095D01*
X87230857Y-90230476D01*
X87134095Y-90278857D01*
X86843809Y-90278857D01*
X86747047Y-90230476D01*
X86698666Y-90182095D01*
X86650285Y-90085333D01*
X86650285Y-89940190D01*
X86698666Y-89843428D01*
X86747047Y-89795047D01*
X86843809Y-89746666D01*
X87134095Y-89746666D01*
X87230857Y-89795047D01*
X87279238Y-89843428D01*
X87327619Y-89940190D01*
X87327619Y-90085333D01*
X87327619Y-88875809D02*
X86311619Y-88875809D01*
X87279238Y-88875809D02*
X87327619Y-88972571D01*
X87327619Y-89166095D01*
X87279238Y-89262857D01*
X87230857Y-89311238D01*
X87134095Y-89359619D01*
X86843809Y-89359619D01*
X86747047Y-89311238D01*
X86698666Y-89262857D01*
X86650285Y-89166095D01*
X86650285Y-88972571D01*
X86698666Y-88875809D01*
X86650285Y-87956571D02*
X87327619Y-87956571D01*
X86650285Y-88392000D02*
X87182476Y-88392000D01*
X87279238Y-88343619D01*
X87327619Y-88246857D01*
X87327619Y-88101714D01*
X87279238Y-88004952D01*
X87230857Y-87956571D01*
X87327619Y-87327619D02*
X87279238Y-87424380D01*
X87182476Y-87472761D01*
X86311619Y-87472761D01*
X87327619Y-86505142D02*
X86795428Y-86505142D01*
X86698666Y-86553523D01*
X86650285Y-86650285D01*
X86650285Y-86843809D01*
X86698666Y-86940571D01*
X87279238Y-86505142D02*
X87327619Y-86601904D01*
X87327619Y-86843809D01*
X87279238Y-86940571D01*
X87182476Y-86988952D01*
X87085714Y-86988952D01*
X86988952Y-86940571D01*
X86940571Y-86843809D01*
X86940571Y-86601904D01*
X86892190Y-86505142D01*
X87327619Y-86021333D02*
X86650285Y-86021333D01*
X86843809Y-86021333D02*
X86747047Y-85972952D01*
X86698666Y-85924571D01*
X86650285Y-85827809D01*
X86650285Y-85731047D01*
X87327619Y-84618285D02*
X86311619Y-84618285D01*
X86311619Y-84376380D01*
X86360000Y-84231238D01*
X86456761Y-84134476D01*
X86553523Y-84086095D01*
X86747047Y-84037714D01*
X86892190Y-84037714D01*
X87085714Y-84086095D01*
X87182476Y-84134476D01*
X87279238Y-84231238D01*
X87327619Y-84376380D01*
X87327619Y-84618285D01*
X87279238Y-83215238D02*
X87327619Y-83312000D01*
X87327619Y-83505523D01*
X87279238Y-83602285D01*
X87182476Y-83650666D01*
X86795428Y-83650666D01*
X86698666Y-83602285D01*
X86650285Y-83505523D01*
X86650285Y-83312000D01*
X86698666Y-83215238D01*
X86795428Y-83166857D01*
X86892190Y-83166857D01*
X86988952Y-83650666D01*
X86650285Y-82828190D02*
X87327619Y-82586285D01*
X86650285Y-82344380D01*
X87327619Y-81957333D02*
X86650285Y-81957333D01*
X86311619Y-81957333D02*
X86360000Y-82005714D01*
X86408380Y-81957333D01*
X86360000Y-81908952D01*
X86311619Y-81957333D01*
X86408380Y-81957333D01*
X87279238Y-81038095D02*
X87327619Y-81134857D01*
X87327619Y-81328380D01*
X87279238Y-81425142D01*
X87230857Y-81473523D01*
X87134095Y-81521904D01*
X86843809Y-81521904D01*
X86747047Y-81473523D01*
X86698666Y-81425142D01*
X86650285Y-81328380D01*
X86650285Y-81134857D01*
X86698666Y-81038095D01*
X87279238Y-80215619D02*
X87327619Y-80312380D01*
X87327619Y-80505904D01*
X87279238Y-80602666D01*
X87182476Y-80651047D01*
X86795428Y-80651047D01*
X86698666Y-80602666D01*
X86650285Y-80505904D01*
X86650285Y-80312380D01*
X86698666Y-80215619D01*
X86795428Y-80167238D01*
X86892190Y-80167238D01*
X86988952Y-80651047D01*
X89105619Y-93665523D02*
X88089619Y-93665523D01*
X89057238Y-93665523D02*
X89105619Y-93762285D01*
X89105619Y-93955809D01*
X89057238Y-94052571D01*
X89008857Y-94100952D01*
X88912095Y-94149333D01*
X88621809Y-94149333D01*
X88525047Y-94100952D01*
X88476666Y-94052571D01*
X88428285Y-93955809D01*
X88428285Y-93762285D01*
X88476666Y-93665523D01*
X89105619Y-92746285D02*
X88573428Y-92746285D01*
X88476666Y-92794666D01*
X88428285Y-92891428D01*
X88428285Y-93084952D01*
X88476666Y-93181714D01*
X89057238Y-92746285D02*
X89105619Y-92843047D01*
X89105619Y-93084952D01*
X89057238Y-93181714D01*
X88960476Y-93230095D01*
X88863714Y-93230095D01*
X88766952Y-93181714D01*
X88718571Y-93084952D01*
X88718571Y-92843047D01*
X88670190Y-92746285D01*
X89057238Y-91827047D02*
X89105619Y-91923809D01*
X89105619Y-92117333D01*
X89057238Y-92214095D01*
X89008857Y-92262476D01*
X88912095Y-92310857D01*
X88621809Y-92310857D01*
X88525047Y-92262476D01*
X88476666Y-92214095D01*
X88428285Y-92117333D01*
X88428285Y-91923809D01*
X88476666Y-91827047D01*
X89202380Y-91633523D02*
X89202380Y-90859428D01*
X89057238Y-90182095D02*
X89105619Y-90278857D01*
X89105619Y-90472380D01*
X89057238Y-90569142D01*
X89008857Y-90617523D01*
X88912095Y-90665904D01*
X88621809Y-90665904D01*
X88525047Y-90617523D01*
X88476666Y-90569142D01*
X88428285Y-90472380D01*
X88428285Y-90278857D01*
X88476666Y-90182095D01*
X89105619Y-89601523D02*
X89057238Y-89698285D01*
X89008857Y-89746666D01*
X88912095Y-89795047D01*
X88621809Y-89795047D01*
X88525047Y-89746666D01*
X88476666Y-89698285D01*
X88428285Y-89601523D01*
X88428285Y-89456380D01*
X88476666Y-89359619D01*
X88525047Y-89311238D01*
X88621809Y-89262857D01*
X88912095Y-89262857D01*
X89008857Y-89311238D01*
X89057238Y-89359619D01*
X89105619Y-89456380D01*
X89105619Y-89601523D01*
X88428285Y-88827428D02*
X89105619Y-88827428D01*
X88525047Y-88827428D02*
X88476666Y-88779047D01*
X88428285Y-88682285D01*
X88428285Y-88537142D01*
X88476666Y-88440380D01*
X88573428Y-88392000D01*
X89105619Y-88392000D01*
X88428285Y-88053333D02*
X88428285Y-87666285D01*
X88089619Y-87908190D02*
X88960476Y-87908190D01*
X89057238Y-87859809D01*
X89105619Y-87763047D01*
X89105619Y-87666285D01*
X89105619Y-87327619D02*
X88428285Y-87327619D01*
X88621809Y-87327619D02*
X88525047Y-87279238D01*
X88476666Y-87230857D01*
X88428285Y-87134095D01*
X88428285Y-87037333D01*
X89105619Y-86553523D02*
X89057238Y-86650285D01*
X89008857Y-86698666D01*
X88912095Y-86747047D01*
X88621809Y-86747047D01*
X88525047Y-86698666D01*
X88476666Y-86650285D01*
X88428285Y-86553523D01*
X88428285Y-86408380D01*
X88476666Y-86311619D01*
X88525047Y-86263238D01*
X88621809Y-86214857D01*
X88912095Y-86214857D01*
X89008857Y-86263238D01*
X89057238Y-86311619D01*
X89105619Y-86408380D01*
X89105619Y-86553523D01*
X89105619Y-85634285D02*
X89057238Y-85731047D01*
X88960476Y-85779428D01*
X88089619Y-85779428D01*
X89105619Y-85102095D02*
X89057238Y-85198857D01*
X88960476Y-85247238D01*
X88089619Y-85247238D01*
X89057238Y-84328000D02*
X89105619Y-84424761D01*
X89105619Y-84618285D01*
X89057238Y-84715047D01*
X88960476Y-84763428D01*
X88573428Y-84763428D01*
X88476666Y-84715047D01*
X88428285Y-84618285D01*
X88428285Y-84424761D01*
X88476666Y-84328000D01*
X88573428Y-84279619D01*
X88670190Y-84279619D01*
X88766952Y-84763428D01*
X89105619Y-83844190D02*
X88428285Y-83844190D01*
X88621809Y-83844190D02*
X88525047Y-83795809D01*
X88476666Y-83747428D01*
X88428285Y-83650666D01*
X88428285Y-83553904D01*
X90206285Y-95939428D02*
X91222285Y-95939428D01*
X90254666Y-95939428D02*
X90206285Y-95842666D01*
X90206285Y-95649142D01*
X90254666Y-95552380D01*
X90303047Y-95504000D01*
X90399809Y-95455619D01*
X90690095Y-95455619D01*
X90786857Y-95504000D01*
X90835238Y-95552380D01*
X90883619Y-95649142D01*
X90883619Y-95842666D01*
X90835238Y-95939428D01*
X90883619Y-94584761D02*
X90351428Y-94584761D01*
X90254666Y-94633142D01*
X90206285Y-94729904D01*
X90206285Y-94923428D01*
X90254666Y-95020190D01*
X90835238Y-94584761D02*
X90883619Y-94681523D01*
X90883619Y-94923428D01*
X90835238Y-95020190D01*
X90738476Y-95068571D01*
X90641714Y-95068571D01*
X90544952Y-95020190D01*
X90496571Y-94923428D01*
X90496571Y-94681523D01*
X90448190Y-94584761D01*
X90883619Y-94100952D02*
X90206285Y-94100952D01*
X90399809Y-94100952D02*
X90303047Y-94052571D01*
X90254666Y-94004190D01*
X90206285Y-93907428D01*
X90206285Y-93810666D01*
X90206285Y-93617142D02*
X90206285Y-93230095D01*
X89867619Y-93472000D02*
X90738476Y-93472000D01*
X90835238Y-93423619D01*
X90883619Y-93326857D01*
X90883619Y-93230095D01*
X90980380Y-93133333D02*
X90980380Y-92359238D01*
X90206285Y-92117333D02*
X90883619Y-92117333D01*
X90303047Y-92117333D02*
X90254666Y-92068952D01*
X90206285Y-91972190D01*
X90206285Y-91827047D01*
X90254666Y-91730285D01*
X90351428Y-91681904D01*
X90883619Y-91681904D01*
X90206285Y-90762666D02*
X90883619Y-90762666D01*
X90206285Y-91198095D02*
X90738476Y-91198095D01*
X90835238Y-91149714D01*
X90883619Y-91052952D01*
X90883619Y-90907809D01*
X90835238Y-90811047D01*
X90786857Y-90762666D01*
X90883619Y-90278857D02*
X90206285Y-90278857D01*
X90303047Y-90278857D02*
X90254666Y-90230476D01*
X90206285Y-90133714D01*
X90206285Y-89988571D01*
X90254666Y-89891809D01*
X90351428Y-89843428D01*
X90883619Y-89843428D01*
X90351428Y-89843428D02*
X90254666Y-89795047D01*
X90206285Y-89698285D01*
X90206285Y-89553142D01*
X90254666Y-89456380D01*
X90351428Y-89408000D01*
X90883619Y-89408000D01*
X90883619Y-88924190D02*
X89867619Y-88924190D01*
X90254666Y-88924190D02*
X90206285Y-88827428D01*
X90206285Y-88633904D01*
X90254666Y-88537142D01*
X90303047Y-88488761D01*
X90399809Y-88440380D01*
X90690095Y-88440380D01*
X90786857Y-88488761D01*
X90835238Y-88537142D01*
X90883619Y-88633904D01*
X90883619Y-88827428D01*
X90835238Y-88924190D01*
X90835238Y-87617904D02*
X90883619Y-87714666D01*
X90883619Y-87908190D01*
X90835238Y-88004952D01*
X90738476Y-88053333D01*
X90351428Y-88053333D01*
X90254666Y-88004952D01*
X90206285Y-87908190D01*
X90206285Y-87714666D01*
X90254666Y-87617904D01*
X90351428Y-87569523D01*
X90448190Y-87569523D01*
X90544952Y-88053333D01*
X90883619Y-87134095D02*
X90206285Y-87134095D01*
X90399809Y-87134095D02*
X90303047Y-87085714D01*
X90254666Y-87037333D01*
X90206285Y-86940571D01*
X90206285Y-86843809D01*
X90786857Y-86505142D02*
X90835238Y-86456761D01*
X90883619Y-86505142D01*
X90835238Y-86553523D01*
X90786857Y-86505142D01*
X90883619Y-86505142D01*
X90254666Y-86505142D02*
X90303047Y-86456761D01*
X90351428Y-86505142D01*
X90303047Y-86553523D01*
X90254666Y-86505142D01*
X90351428Y-86505142D01*
X90883619Y-84715047D02*
X90883619Y-85295619D01*
X90883619Y-85005333D02*
X89867619Y-85005333D01*
X90012761Y-85102095D01*
X90109523Y-85198857D01*
X90157904Y-85295619D01*
X89964380Y-84328000D02*
X89916000Y-84279619D01*
X89867619Y-84182857D01*
X89867619Y-83940952D01*
X89916000Y-83844190D01*
X89964380Y-83795809D01*
X90061142Y-83747428D01*
X90157904Y-83747428D01*
X90303047Y-83795809D01*
X90883619Y-84376380D01*
X90883619Y-83747428D01*
X90303047Y-83166857D02*
X90254666Y-83263619D01*
X90206285Y-83312000D01*
X90109523Y-83360380D01*
X90061142Y-83360380D01*
X89964380Y-83312000D01*
X89916000Y-83263619D01*
X89867619Y-83166857D01*
X89867619Y-82973333D01*
X89916000Y-82876571D01*
X89964380Y-82828190D01*
X90061142Y-82779809D01*
X90109523Y-82779809D01*
X90206285Y-82828190D01*
X90254666Y-82876571D01*
X90303047Y-82973333D01*
X90303047Y-83166857D01*
X90351428Y-83263619D01*
X90399809Y-83312000D01*
X90496571Y-83360380D01*
X90690095Y-83360380D01*
X90786857Y-83312000D01*
X90835238Y-83263619D01*
X90883619Y-83166857D01*
X90883619Y-82973333D01*
X90835238Y-82876571D01*
X90786857Y-82828190D01*
X90690095Y-82779809D01*
X90496571Y-82779809D01*
X90399809Y-82828190D01*
X90351428Y-82876571D01*
X90303047Y-82973333D01*
X90883619Y-81812190D02*
X90883619Y-82392761D01*
X90883619Y-82102476D02*
X89867619Y-82102476D01*
X90012761Y-82199238D01*
X90109523Y-82295999D01*
X90157904Y-82392761D01*
X91645619Y-96786095D02*
X91645619Y-96689333D01*
X91694000Y-96592571D01*
X91742380Y-96544190D01*
X91839142Y-96495809D01*
X92032666Y-96447428D01*
X92274571Y-96447428D01*
X92468095Y-96495809D01*
X92564857Y-96544190D01*
X92613238Y-96592571D01*
X92661619Y-96689333D01*
X92661619Y-96786095D01*
X92613238Y-96882857D01*
X92564857Y-96931238D01*
X92468095Y-96979619D01*
X92274571Y-97028000D01*
X92032666Y-97028000D01*
X91839142Y-96979619D01*
X91742380Y-96931238D01*
X91694000Y-96882857D01*
X91645619Y-96786095D01*
X92661619Y-95963619D02*
X92661619Y-95770095D01*
X92613238Y-95673333D01*
X92564857Y-95624952D01*
X92419714Y-95528190D01*
X92226190Y-95479809D01*
X91839142Y-95479809D01*
X91742380Y-95528190D01*
X91694000Y-95576571D01*
X91645619Y-95673333D01*
X91645619Y-95866857D01*
X91694000Y-95963619D01*
X91742380Y-96012000D01*
X91839142Y-96060380D01*
X92081047Y-96060380D01*
X92177809Y-96012000D01*
X92226190Y-95963619D01*
X92274571Y-95866857D01*
X92274571Y-95673333D01*
X92226190Y-95576571D01*
X92177809Y-95528190D01*
X92081047Y-95479809D01*
X91597238Y-94318666D02*
X92903523Y-95189523D01*
X91742380Y-94028380D02*
X91694000Y-93980000D01*
X91645619Y-93883238D01*
X91645619Y-93641333D01*
X91694000Y-93544571D01*
X91742380Y-93496190D01*
X91839142Y-93447809D01*
X91935904Y-93447809D01*
X92081047Y-93496190D01*
X92661619Y-94076761D01*
X92661619Y-93447809D01*
X91645619Y-92818857D02*
X91645619Y-92722095D01*
X91694000Y-92625333D01*
X91742380Y-92576952D01*
X91839142Y-92528571D01*
X92032666Y-92480190D01*
X92274571Y-92480190D01*
X92468095Y-92528571D01*
X92564857Y-92576952D01*
X92613238Y-92625333D01*
X92661619Y-92722095D01*
X92661619Y-92818857D01*
X92613238Y-92915619D01*
X92564857Y-92964000D01*
X92468095Y-93012380D01*
X92274571Y-93060761D01*
X92032666Y-93060761D01*
X91839142Y-93012380D01*
X91742380Y-92964000D01*
X91694000Y-92915619D01*
X91645619Y-92818857D01*
X92661619Y-91512571D02*
X92661619Y-92093142D01*
X92661619Y-91802857D02*
X91645619Y-91802857D01*
X91790761Y-91899619D01*
X91887523Y-91996380D01*
X91935904Y-92093142D01*
X92081047Y-90932000D02*
X92032666Y-91028761D01*
X91984285Y-91077142D01*
X91887523Y-91125523D01*
X91839142Y-91125523D01*
X91742380Y-91077142D01*
X91694000Y-91028761D01*
X91645619Y-90932000D01*
X91645619Y-90738476D01*
X91694000Y-90641714D01*
X91742380Y-90593333D01*
X91839142Y-90544952D01*
X91887523Y-90544952D01*
X91984285Y-90593333D01*
X92032666Y-90641714D01*
X92081047Y-90738476D01*
X92081047Y-90932000D01*
X92129428Y-91028761D01*
X92177809Y-91077142D01*
X92274571Y-91125523D01*
X92468095Y-91125523D01*
X92564857Y-91077142D01*
X92613238Y-91028761D01*
X92661619Y-90932000D01*
X92661619Y-90738476D01*
X92613238Y-90641714D01*
X92564857Y-90593333D01*
X92468095Y-90544952D01*
X92274571Y-90544952D01*
X92177809Y-90593333D01*
X92129428Y-90641714D01*
X92081047Y-90738476D01*
X91984285Y-89432190D02*
X92661619Y-89190285D01*
X91984285Y-88948380D01*
X92613238Y-88174285D02*
X92661619Y-88271047D01*
X92661619Y-88464571D01*
X92613238Y-88561333D01*
X92516476Y-88609714D01*
X92129428Y-88609714D01*
X92032666Y-88561333D01*
X91984285Y-88464571D01*
X91984285Y-88271047D01*
X92032666Y-88174285D01*
X92129428Y-88125904D01*
X92226190Y-88125904D01*
X92322952Y-88609714D01*
X92661619Y-87690476D02*
X91984285Y-87690476D01*
X92177809Y-87690476D02*
X92081047Y-87642095D01*
X92032666Y-87593714D01*
X91984285Y-87496952D01*
X91984285Y-87400190D01*
X92661619Y-85755238D02*
X92661619Y-86335809D01*
X92661619Y-86045523D02*
X91645619Y-86045523D01*
X91790761Y-86142285D01*
X91887523Y-86239047D01*
X91935904Y-86335809D01*
X92564857Y-85319809D02*
X92613238Y-85271428D01*
X92661619Y-85319809D01*
X92613238Y-85368190D01*
X92564857Y-85319809D01*
X92661619Y-85319809D01*
X91645619Y-84642476D02*
X91645619Y-84545714D01*
X91694000Y-84448952D01*
X91742380Y-84400571D01*
X91839142Y-84352190D01*
X92032666Y-84303809D01*
X92274571Y-84303809D01*
X92468095Y-84352190D01*
X92564857Y-84400571D01*
X92613238Y-84448952D01*
X92661619Y-84545714D01*
X92661619Y-84642476D01*
X92613238Y-84739238D01*
X92564857Y-84787619D01*
X92468095Y-84836000D01*
X92274571Y-84884380D01*
X92032666Y-84884380D01*
X91839142Y-84836000D01*
X91742380Y-84787619D01*
X91694000Y-84739238D01*
X91645619Y-84642476D01*
X91645619Y-83191047D02*
X91645619Y-82562095D01*
X92032666Y-82900761D01*
X92032666Y-82755619D01*
X92081047Y-82658857D01*
X92129428Y-82610476D01*
X92226190Y-82562095D01*
X92468095Y-82562095D01*
X92564857Y-82610476D01*
X92613238Y-82658857D01*
X92661619Y-82755619D01*
X92661619Y-83045904D01*
X92613238Y-83142666D01*
X92564857Y-83191047D01*
X92661619Y-82223428D02*
X91984285Y-81691238D01*
X91984285Y-82223428D02*
X92661619Y-81691238D01*
X91742380Y-81352571D02*
X91694000Y-81304190D01*
X91645619Y-81207428D01*
X91645619Y-80965523D01*
X91694000Y-80868761D01*
X91742380Y-80820380D01*
X91839142Y-80772000D01*
X91935904Y-80772000D01*
X92081047Y-80820380D01*
X92661619Y-81400952D01*
X92661619Y-80772000D01*
D11*
G04 #@! TO.C,MDB1*
X132715000Y-71120000D02*
G75*
G03X132715000Y-71120000I-2540000J0D01*
G01*
X132715000Y-106680000D02*
G75*
G03X132715000Y-106680000I-2540000J0D01*
G01*
X92075000Y-101600000D02*
G75*
G03X92075000Y-101600000I-2540000J0D01*
G01*
X92075000Y-76200000D02*
G75*
G03X92075000Y-76200000I-2540000J0D01*
G01*
D13*
G04 #@! TO.C,P1*
X144145000Y-104775000D02*
X144907000Y-105537000D01*
X142875000Y-100965000D02*
X144399000Y-99949000D01*
X156210000Y-95885000D02*
X156845000Y-95885000D01*
X156845000Y-95885000D02*
X156845000Y-108585000D01*
X156845000Y-108585000D02*
X156210000Y-108585000D01*
X156210000Y-94615000D02*
X140335000Y-94615000D01*
X140335000Y-94615000D02*
X140335000Y-109855000D01*
X140335000Y-109855000D02*
X156210000Y-109855000D01*
X156210000Y-109855000D02*
X156210000Y-94615000D01*
X142240000Y-106553000D02*
X146050000Y-102743000D01*
X142875000Y-102235000D02*
X142875000Y-99695000D01*
G04 #@! TO.C,P2*
X142875000Y-75565000D02*
X142875000Y-73025000D01*
X142240000Y-79883000D02*
X146050000Y-76073000D01*
X156210000Y-83185000D02*
X156210000Y-67945000D01*
X140335000Y-83185000D02*
X156210000Y-83185000D01*
X140335000Y-67945000D02*
X140335000Y-83185000D01*
X156210000Y-67945000D02*
X140335000Y-67945000D01*
X156845000Y-81915000D02*
X156210000Y-81915000D01*
X156845000Y-69215000D02*
X156845000Y-81915000D01*
X156210000Y-69215000D02*
X156845000Y-69215000D01*
X142875000Y-74295000D02*
X144399000Y-73279000D01*
X144145000Y-78105000D02*
X144907000Y-78867000D01*
G04 #@! TO.C,REG1*
X113315000Y-78000000D02*
X104115000Y-78000000D01*
X104115000Y-78000000D02*
X104115000Y-99800000D01*
X104115000Y-99800000D02*
X113315000Y-99800000D01*
X113315000Y-99800000D02*
X113315000Y-78000000D01*
G04 #@! TD*
G04 #@! TO.C,P1*
D10*
X154190095Y-94058619D02*
X154190095Y-93042619D01*
X154577142Y-93042619D01*
X154673904Y-93091000D01*
X154722285Y-93139380D01*
X154770666Y-93236142D01*
X154770666Y-93381285D01*
X154722285Y-93478047D01*
X154673904Y-93526428D01*
X154577142Y-93574809D01*
X154190095Y-93574809D01*
X155738285Y-94058619D02*
X155157714Y-94058619D01*
X155448000Y-94058619D02*
X155448000Y-93042619D01*
X155351238Y-93187761D01*
X155254476Y-93284523D01*
X155157714Y-93332904D01*
D14*
X136464523Y-107435952D02*
X136464523Y-106710238D01*
X137734523Y-107073095D02*
X136464523Y-107073095D01*
X137734523Y-106105476D02*
X137674047Y-106226428D01*
X137613571Y-106286904D01*
X137492619Y-106347380D01*
X137129761Y-106347380D01*
X137008809Y-106286904D01*
X136948333Y-106226428D01*
X136887857Y-106105476D01*
X136887857Y-105924047D01*
X136948333Y-105803095D01*
X137008809Y-105742619D01*
X137129761Y-105682142D01*
X137492619Y-105682142D01*
X137613571Y-105742619D01*
X137674047Y-105803095D01*
X137734523Y-105924047D01*
X137734523Y-106105476D01*
X136887857Y-105137857D02*
X138157857Y-105137857D01*
X136948333Y-105137857D02*
X136887857Y-105016904D01*
X136887857Y-104775000D01*
X136948333Y-104654047D01*
X137008809Y-104593571D01*
X137129761Y-104533095D01*
X137492619Y-104533095D01*
X137613571Y-104593571D01*
X137674047Y-104654047D01*
X137734523Y-104775000D01*
X137734523Y-105016904D01*
X137674047Y-105137857D01*
X137613571Y-103988809D02*
X137674047Y-103928333D01*
X137734523Y-103988809D01*
X137674047Y-104049285D01*
X137613571Y-103988809D01*
X137734523Y-103988809D01*
X136948333Y-103988809D02*
X137008809Y-103928333D01*
X137069285Y-103988809D01*
X137008809Y-104049285D01*
X136948333Y-103988809D01*
X137069285Y-103988809D01*
X137734523Y-102416428D02*
X136464523Y-102416428D01*
X136464523Y-102114047D01*
X136525000Y-101932619D01*
X136645952Y-101811666D01*
X136766904Y-101751190D01*
X137008809Y-101690714D01*
X137190238Y-101690714D01*
X137432142Y-101751190D01*
X137553095Y-101811666D01*
X137674047Y-101932619D01*
X137734523Y-102114047D01*
X137734523Y-102416428D01*
X137371666Y-101206904D02*
X137371666Y-100602142D01*
X137734523Y-101327857D02*
X136464523Y-100904523D01*
X137734523Y-100481190D01*
X137613571Y-99332142D02*
X137674047Y-99392619D01*
X137734523Y-99574047D01*
X137734523Y-99695000D01*
X137674047Y-99876428D01*
X137553095Y-99997380D01*
X137432142Y-100057857D01*
X137190238Y-100118333D01*
X137008809Y-100118333D01*
X136766904Y-100057857D01*
X136645952Y-99997380D01*
X136525000Y-99876428D01*
X136464523Y-99695000D01*
X136464523Y-99574047D01*
X136525000Y-99392619D01*
X136585476Y-99332142D01*
X137734523Y-97155000D02*
X137734523Y-97880714D01*
X137734523Y-97517857D02*
X136464523Y-97517857D01*
X136645952Y-97638809D01*
X136766904Y-97759761D01*
X136827380Y-97880714D01*
X138974285Y-108554761D02*
X139034761Y-108373333D01*
X139095238Y-108312857D01*
X139216190Y-108252380D01*
X139397619Y-108252380D01*
X139518571Y-108312857D01*
X139579047Y-108373333D01*
X139639523Y-108494285D01*
X139639523Y-108978095D01*
X138369523Y-108978095D01*
X138369523Y-108554761D01*
X138430000Y-108433809D01*
X138490476Y-108373333D01*
X138611428Y-108312857D01*
X138732380Y-108312857D01*
X138853333Y-108373333D01*
X138913809Y-108433809D01*
X138974285Y-108554761D01*
X138974285Y-108978095D01*
X139639523Y-107526666D02*
X139579047Y-107647619D01*
X139518571Y-107708095D01*
X139397619Y-107768571D01*
X139034761Y-107768571D01*
X138913809Y-107708095D01*
X138853333Y-107647619D01*
X138792857Y-107526666D01*
X138792857Y-107345238D01*
X138853333Y-107224285D01*
X138913809Y-107163809D01*
X139034761Y-107103333D01*
X139397619Y-107103333D01*
X139518571Y-107163809D01*
X139579047Y-107224285D01*
X139639523Y-107345238D01*
X139639523Y-107526666D01*
X138792857Y-106740476D02*
X138792857Y-106256666D01*
X138369523Y-106559047D02*
X139458095Y-106559047D01*
X139579047Y-106498571D01*
X139639523Y-106377619D01*
X139639523Y-106256666D01*
X138792857Y-106014761D02*
X138792857Y-105530952D01*
X138369523Y-105833333D02*
X139458095Y-105833333D01*
X139579047Y-105772857D01*
X139639523Y-105651904D01*
X139639523Y-105530952D01*
X139639523Y-104926190D02*
X139579047Y-105047142D01*
X139518571Y-105107619D01*
X139397619Y-105168095D01*
X139034761Y-105168095D01*
X138913809Y-105107619D01*
X138853333Y-105047142D01*
X138792857Y-104926190D01*
X138792857Y-104744761D01*
X138853333Y-104623809D01*
X138913809Y-104563333D01*
X139034761Y-104502857D01*
X139397619Y-104502857D01*
X139518571Y-104563333D01*
X139579047Y-104623809D01*
X139639523Y-104744761D01*
X139639523Y-104926190D01*
X139639523Y-103958571D02*
X138792857Y-103958571D01*
X138913809Y-103958571D02*
X138853333Y-103898095D01*
X138792857Y-103777142D01*
X138792857Y-103595714D01*
X138853333Y-103474761D01*
X138974285Y-103414285D01*
X139639523Y-103414285D01*
X138974285Y-103414285D02*
X138853333Y-103353809D01*
X138792857Y-103232857D01*
X138792857Y-103051428D01*
X138853333Y-102930476D01*
X138974285Y-102870000D01*
X139639523Y-102870000D01*
X139518571Y-102265238D02*
X139579047Y-102204761D01*
X139639523Y-102265238D01*
X139579047Y-102325714D01*
X139518571Y-102265238D01*
X139639523Y-102265238D01*
X138853333Y-102265238D02*
X138913809Y-102204761D01*
X138974285Y-102265238D01*
X138913809Y-102325714D01*
X138853333Y-102265238D01*
X138974285Y-102265238D01*
X139639523Y-100692857D02*
X138369523Y-100692857D01*
X138369523Y-100390476D01*
X138430000Y-100209047D01*
X138550952Y-100088095D01*
X138671904Y-100027619D01*
X138913809Y-99967142D01*
X139095238Y-99967142D01*
X139337142Y-100027619D01*
X139458095Y-100088095D01*
X139579047Y-100209047D01*
X139639523Y-100390476D01*
X139639523Y-100692857D01*
X139276666Y-99483333D02*
X139276666Y-98878571D01*
X139639523Y-99604285D02*
X138369523Y-99180952D01*
X139639523Y-98757619D01*
X139518571Y-97608571D02*
X139579047Y-97669047D01*
X139639523Y-97850476D01*
X139639523Y-97971428D01*
X139579047Y-98152857D01*
X139458095Y-98273809D01*
X139337142Y-98334285D01*
X139095238Y-98394761D01*
X138913809Y-98394761D01*
X138671904Y-98334285D01*
X138550952Y-98273809D01*
X138430000Y-98152857D01*
X138369523Y-97971428D01*
X138369523Y-97850476D01*
X138430000Y-97669047D01*
X138490476Y-97608571D01*
X138369523Y-95854761D02*
X138369523Y-95733809D01*
X138430000Y-95612857D01*
X138490476Y-95552380D01*
X138611428Y-95491904D01*
X138853333Y-95431428D01*
X139155714Y-95431428D01*
X139397619Y-95491904D01*
X139518571Y-95552380D01*
X139579047Y-95612857D01*
X139639523Y-95733809D01*
X139639523Y-95854761D01*
X139579047Y-95975714D01*
X139518571Y-96036190D01*
X139397619Y-96096666D01*
X139155714Y-96157142D01*
X138853333Y-96157142D01*
X138611428Y-96096666D01*
X138490476Y-96036190D01*
X138430000Y-95975714D01*
X138369523Y-95854761D01*
D10*
X145088428Y-106226428D02*
X145136809Y-106081285D01*
X145185190Y-106032904D01*
X145281952Y-105984523D01*
X145427095Y-105984523D01*
X145523857Y-106032904D01*
X145572238Y-106081285D01*
X145620619Y-106178047D01*
X145620619Y-106565095D01*
X144604619Y-106565095D01*
X144604619Y-106226428D01*
X144653000Y-106129666D01*
X144701380Y-106081285D01*
X144798142Y-106032904D01*
X144894904Y-106032904D01*
X144991666Y-106081285D01*
X145040047Y-106129666D01*
X145088428Y-106226428D01*
X145088428Y-106565095D01*
X144858619Y-99985285D02*
X144858619Y-99404714D01*
X145874619Y-99695000D02*
X144858619Y-99695000D01*
G04 #@! TO.C,P2*
X154190095Y-84914619D02*
X154190095Y-83898619D01*
X154577142Y-83898619D01*
X154673904Y-83947000D01*
X154722285Y-83995380D01*
X154770666Y-84092142D01*
X154770666Y-84237285D01*
X154722285Y-84334047D01*
X154673904Y-84382428D01*
X154577142Y-84430809D01*
X154190095Y-84430809D01*
X155157714Y-83995380D02*
X155206095Y-83947000D01*
X155302857Y-83898619D01*
X155544761Y-83898619D01*
X155641523Y-83947000D01*
X155689904Y-83995380D01*
X155738285Y-84092142D01*
X155738285Y-84188904D01*
X155689904Y-84334047D01*
X155109333Y-84914619D01*
X155738285Y-84914619D01*
X144858619Y-73315285D02*
X144858619Y-72734714D01*
X145874619Y-73025000D02*
X144858619Y-73025000D01*
X145088428Y-79556428D02*
X145136809Y-79411285D01*
X145185190Y-79362904D01*
X145281952Y-79314523D01*
X145427095Y-79314523D01*
X145523857Y-79362904D01*
X145572238Y-79411285D01*
X145620619Y-79508047D01*
X145620619Y-79895095D01*
X144604619Y-79895095D01*
X144604619Y-79556428D01*
X144653000Y-79459666D01*
X144701380Y-79411285D01*
X144798142Y-79362904D01*
X144894904Y-79362904D01*
X144991666Y-79411285D01*
X145040047Y-79459666D01*
X145088428Y-79556428D01*
X145088428Y-79895095D01*
D14*
X138974285Y-81884761D02*
X139034761Y-81703333D01*
X139095238Y-81642857D01*
X139216190Y-81582380D01*
X139397619Y-81582380D01*
X139518571Y-81642857D01*
X139579047Y-81703333D01*
X139639523Y-81824285D01*
X139639523Y-82308095D01*
X138369523Y-82308095D01*
X138369523Y-81884761D01*
X138430000Y-81763809D01*
X138490476Y-81703333D01*
X138611428Y-81642857D01*
X138732380Y-81642857D01*
X138853333Y-81703333D01*
X138913809Y-81763809D01*
X138974285Y-81884761D01*
X138974285Y-82308095D01*
X139639523Y-80856666D02*
X139579047Y-80977619D01*
X139518571Y-81038095D01*
X139397619Y-81098571D01*
X139034761Y-81098571D01*
X138913809Y-81038095D01*
X138853333Y-80977619D01*
X138792857Y-80856666D01*
X138792857Y-80675238D01*
X138853333Y-80554285D01*
X138913809Y-80493809D01*
X139034761Y-80433333D01*
X139397619Y-80433333D01*
X139518571Y-80493809D01*
X139579047Y-80554285D01*
X139639523Y-80675238D01*
X139639523Y-80856666D01*
X138792857Y-80070476D02*
X138792857Y-79586666D01*
X138369523Y-79889047D02*
X139458095Y-79889047D01*
X139579047Y-79828571D01*
X139639523Y-79707619D01*
X139639523Y-79586666D01*
X138792857Y-79344761D02*
X138792857Y-78860952D01*
X138369523Y-79163333D02*
X139458095Y-79163333D01*
X139579047Y-79102857D01*
X139639523Y-78981904D01*
X139639523Y-78860952D01*
X139639523Y-78256190D02*
X139579047Y-78377142D01*
X139518571Y-78437619D01*
X139397619Y-78498095D01*
X139034761Y-78498095D01*
X138913809Y-78437619D01*
X138853333Y-78377142D01*
X138792857Y-78256190D01*
X138792857Y-78074761D01*
X138853333Y-77953809D01*
X138913809Y-77893333D01*
X139034761Y-77832857D01*
X139397619Y-77832857D01*
X139518571Y-77893333D01*
X139579047Y-77953809D01*
X139639523Y-78074761D01*
X139639523Y-78256190D01*
X139639523Y-77288571D02*
X138792857Y-77288571D01*
X138913809Y-77288571D02*
X138853333Y-77228095D01*
X138792857Y-77107142D01*
X138792857Y-76925714D01*
X138853333Y-76804761D01*
X138974285Y-76744285D01*
X139639523Y-76744285D01*
X138974285Y-76744285D02*
X138853333Y-76683809D01*
X138792857Y-76562857D01*
X138792857Y-76381428D01*
X138853333Y-76260476D01*
X138974285Y-76200000D01*
X139639523Y-76200000D01*
X139518571Y-75595238D02*
X139579047Y-75534761D01*
X139639523Y-75595238D01*
X139579047Y-75655714D01*
X139518571Y-75595238D01*
X139639523Y-75595238D01*
X138853333Y-75595238D02*
X138913809Y-75534761D01*
X138974285Y-75595238D01*
X138913809Y-75655714D01*
X138853333Y-75595238D01*
X138974285Y-75595238D01*
X139639523Y-74022857D02*
X138369523Y-74022857D01*
X138369523Y-73720476D01*
X138430000Y-73539047D01*
X138550952Y-73418095D01*
X138671904Y-73357619D01*
X138913809Y-73297142D01*
X139095238Y-73297142D01*
X139337142Y-73357619D01*
X139458095Y-73418095D01*
X139579047Y-73539047D01*
X139639523Y-73720476D01*
X139639523Y-74022857D01*
X139276666Y-72813333D02*
X139276666Y-72208571D01*
X139639523Y-72934285D02*
X138369523Y-72510952D01*
X139639523Y-72087619D01*
X139518571Y-70938571D02*
X139579047Y-70999047D01*
X139639523Y-71180476D01*
X139639523Y-71301428D01*
X139579047Y-71482857D01*
X139458095Y-71603809D01*
X139337142Y-71664285D01*
X139095238Y-71724761D01*
X138913809Y-71724761D01*
X138671904Y-71664285D01*
X138550952Y-71603809D01*
X138430000Y-71482857D01*
X138369523Y-71301428D01*
X138369523Y-71180476D01*
X138430000Y-70999047D01*
X138490476Y-70938571D01*
X138490476Y-69487142D02*
X138430000Y-69426666D01*
X138369523Y-69305714D01*
X138369523Y-69003333D01*
X138430000Y-68882380D01*
X138490476Y-68821904D01*
X138611428Y-68761428D01*
X138732380Y-68761428D01*
X138913809Y-68821904D01*
X139639523Y-69547619D01*
X139639523Y-68761428D01*
X136464523Y-80765952D02*
X136464523Y-80040238D01*
X137734523Y-80403095D02*
X136464523Y-80403095D01*
X137734523Y-79435476D02*
X137674047Y-79556428D01*
X137613571Y-79616904D01*
X137492619Y-79677380D01*
X137129761Y-79677380D01*
X137008809Y-79616904D01*
X136948333Y-79556428D01*
X136887857Y-79435476D01*
X136887857Y-79254047D01*
X136948333Y-79133095D01*
X137008809Y-79072619D01*
X137129761Y-79012142D01*
X137492619Y-79012142D01*
X137613571Y-79072619D01*
X137674047Y-79133095D01*
X137734523Y-79254047D01*
X137734523Y-79435476D01*
X136887857Y-78467857D02*
X138157857Y-78467857D01*
X136948333Y-78467857D02*
X136887857Y-78346904D01*
X136887857Y-78105000D01*
X136948333Y-77984047D01*
X137008809Y-77923571D01*
X137129761Y-77863095D01*
X137492619Y-77863095D01*
X137613571Y-77923571D01*
X137674047Y-77984047D01*
X137734523Y-78105000D01*
X137734523Y-78346904D01*
X137674047Y-78467857D01*
X137613571Y-77318809D02*
X137674047Y-77258333D01*
X137734523Y-77318809D01*
X137674047Y-77379285D01*
X137613571Y-77318809D01*
X137734523Y-77318809D01*
X136948333Y-77318809D02*
X137008809Y-77258333D01*
X137069285Y-77318809D01*
X137008809Y-77379285D01*
X136948333Y-77318809D01*
X137069285Y-77318809D01*
X137734523Y-75746428D02*
X136464523Y-75746428D01*
X136464523Y-75444047D01*
X136525000Y-75262619D01*
X136645952Y-75141666D01*
X136766904Y-75081190D01*
X137008809Y-75020714D01*
X137190238Y-75020714D01*
X137432142Y-75081190D01*
X137553095Y-75141666D01*
X137674047Y-75262619D01*
X137734523Y-75444047D01*
X137734523Y-75746428D01*
X137371666Y-74536904D02*
X137371666Y-73932142D01*
X137734523Y-74657857D02*
X136464523Y-74234523D01*
X137734523Y-73811190D01*
X137613571Y-72662142D02*
X137674047Y-72722619D01*
X137734523Y-72904047D01*
X137734523Y-73025000D01*
X137674047Y-73206428D01*
X137553095Y-73327380D01*
X137432142Y-73387857D01*
X137190238Y-73448333D01*
X137008809Y-73448333D01*
X136766904Y-73387857D01*
X136645952Y-73327380D01*
X136525000Y-73206428D01*
X136464523Y-73025000D01*
X136464523Y-72904047D01*
X136525000Y-72722619D01*
X136585476Y-72662142D01*
X136464523Y-71271190D02*
X136464523Y-70485000D01*
X136948333Y-70908333D01*
X136948333Y-70726904D01*
X137008809Y-70605952D01*
X137069285Y-70545476D01*
X137190238Y-70485000D01*
X137492619Y-70485000D01*
X137613571Y-70545476D01*
X137674047Y-70605952D01*
X137734523Y-70726904D01*
X137734523Y-71089761D01*
X137674047Y-71210714D01*
X137613571Y-71271190D01*
G04 #@! TO.C,REG1*
D10*
X103329619Y-90036952D02*
X102845809Y-90375619D01*
X103329619Y-90617523D02*
X102313619Y-90617523D01*
X102313619Y-90230476D01*
X102362000Y-90133714D01*
X102410380Y-90085333D01*
X102507142Y-90036952D01*
X102652285Y-90036952D01*
X102749047Y-90085333D01*
X102797428Y-90133714D01*
X102845809Y-90230476D01*
X102845809Y-90617523D01*
X102797428Y-89601523D02*
X102797428Y-89262857D01*
X103329619Y-89117714D02*
X103329619Y-89601523D01*
X102313619Y-89601523D01*
X102313619Y-89117714D01*
X102362000Y-88150095D02*
X102313619Y-88246857D01*
X102313619Y-88392000D01*
X102362000Y-88537142D01*
X102458761Y-88633904D01*
X102555523Y-88682285D01*
X102749047Y-88730666D01*
X102894190Y-88730666D01*
X103087714Y-88682285D01*
X103184476Y-88633904D01*
X103281238Y-88537142D01*
X103329619Y-88392000D01*
X103329619Y-88295238D01*
X103281238Y-88150095D01*
X103232857Y-88101714D01*
X102894190Y-88101714D01*
X102894190Y-88295238D01*
X103329619Y-87134095D02*
X103329619Y-87714666D01*
X103329619Y-87424380D02*
X102313619Y-87424380D01*
X102458761Y-87521142D01*
X102555523Y-87617904D01*
X102603904Y-87714666D01*
G04 #@! TD*
%LPC*%
D15*
G04 #@! TO.C,MDB1*
X130175000Y-71120000D03*
X130175000Y-106680000D03*
X89535000Y-101600000D03*
X89535000Y-76200000D03*
D16*
X88265000Y-106680000D03*
X90805000Y-106680000D03*
X93345000Y-106680000D03*
X95885000Y-106680000D03*
X98425000Y-106680000D03*
X100965000Y-106680000D03*
X103505000Y-106680000D03*
X106045000Y-106680000D03*
X108585000Y-106680000D03*
X111125000Y-106680000D03*
X113665000Y-106680000D03*
X116205000Y-106680000D03*
X118745000Y-106680000D03*
X121285000Y-106680000D03*
X123825000Y-106680000D03*
X126365000Y-106680000D03*
X126365000Y-71120000D03*
X123825000Y-71120000D03*
X121285000Y-71120000D03*
X118745000Y-71120000D03*
X116205000Y-71120000D03*
X113665000Y-71120000D03*
X111125000Y-71120000D03*
X108585000Y-71120000D03*
X106045000Y-71120000D03*
X103505000Y-71120000D03*
X100965000Y-71120000D03*
X98425000Y-71120000D03*
X95885000Y-71120000D03*
D17*
X88265000Y-71120000D03*
D16*
X93345000Y-71120000D03*
X90805000Y-71120000D03*
G04 #@! TD*
D18*
G04 #@! TO.C,P1*
X150495000Y-97155000D03*
X150495000Y-107315000D03*
D19*
X144399000Y-102235000D03*
D20*
X141605000Y-102235000D03*
X141605000Y-105029000D03*
X141605000Y-99441000D03*
G04 #@! TD*
G04 #@! TO.C,P2*
X141605000Y-72771000D03*
X141605000Y-78359000D03*
X141605000Y-75565000D03*
D19*
X144399000Y-75565000D03*
D18*
X150495000Y-80645000D03*
X150495000Y-70485000D03*
G04 #@! TD*
D21*
G04 #@! TO.C,REG1*
X107315000Y-95250000D03*
X107315000Y-92710000D03*
D22*
X107315000Y-97790000D03*
D21*
X107315000Y-87630000D03*
X107315000Y-85090000D03*
X107315000Y-82550000D03*
X107315000Y-80010000D03*
G04 #@! TD*
M02*
